<svg width="31" height="14" viewBox="0 0 31 14" fill="none" xmlns="http://www.w3.org/2000/svg">
<path fill-rule="evenodd" clip-rule="evenodd" d="M12.6149 0.775667C13.1036 0.254429 14.0483 0.417318 14.423 1.02C14.6184 1.32948 14.6347 1.75299 14.4718 2.07876C13.7877 3.44701 13.4945 4.96187 13.2339 6.44412C12.9244 8.38251 12.6638 10.3534 12.7615 12.3244C12.7941 12.8293 12.5498 13.432 12.0122 13.5623C11.5073 13.6763 11.0349 13.3343 10.7091 12.9759C9.24313 11.3959 8.41242 9.35981 7.80974 7.32375C7.20707 8.51283 6.6044 9.71817 6.018 10.9072C5.61078 11.7217 5.17096 12.5524 4.51942 13.2039C4.24252 13.4808 3.77017 13.7252 3.4118 13.4482C2.87426 12.9759 2.74394 12.2266 2.5159 11.5914C1.65259 8.61055 1.16397 5.53194 0.659025 2.4697C0.544974 1.96475 0.75675 1.34577 1.2617 1.15031C1.66892 1.00372 2.2064 0.971133 2.5485 1.28062C2.79281 1.49237 2.858 1.83444 2.90686 2.14392C3.26522 4.52205 3.67244 6.88393 4.25879 9.21322C5.23615 7.35629 6.21345 5.49941 7.19075 3.62619C7.33739 3.34928 7.51657 3.07237 7.77715 2.90949C8.13551 2.68145 8.65673 2.69774 8.96623 3.02351C9.2106 3.28413 9.30832 3.65877 9.37345 4.00084C9.66668 5.53194 10.0576 7.06311 10.6277 8.51283C10.872 6.3138 11.1815 4.08227 11.9796 2.01361C12.1588 1.57382 12.3217 1.13402 12.6149 0.775667ZM18.1368 1.96475C19.1956 1.83444 20.3358 2.19279 21.0524 2.99093C21.6388 3.65877 21.9646 4.52205 22.0787 5.38536C22.2578 6.86767 21.9809 8.43137 21.2642 9.75076C20.857 10.5 20.3358 11.233 19.5864 11.6728C18.4952 12.3406 17.0292 12.2592 15.9704 11.5588C15.1234 10.9724 14.651 9.99508 14.4555 9.01778C14.0646 6.78621 14.7324 4.31034 16.4102 2.76289C16.8989 2.3231 17.5015 2.04619 18.1368 1.96475ZM18.3485 4.24514C17.8436 4.40806 17.5178 4.88041 17.2409 5.3039C16.5568 6.41158 16.3613 7.86123 16.9151 9.05031C17.0617 9.35981 17.2898 9.7019 17.6644 9.76703C18.0553 9.83216 18.4137 9.60412 18.6906 9.35981C19.3095 8.82227 19.619 8.02415 19.782 7.22597C19.9448 6.33012 19.8634 5.3365 19.3421 4.55465C19.1304 4.26147 18.7069 4.13114 18.3485 4.24514ZM26.5906 1.96475C27.6168 1.83444 28.7407 2.16021 29.4574 2.92578C30.1089 3.62619 30.451 4.55465 30.5488 5.49941C30.6954 6.9328 30.4348 8.43137 29.7506 9.7019C29.3434 10.4674 28.8059 11.2167 28.024 11.6728C26.9815 12.3081 25.5807 12.2429 24.5383 11.624C23.8378 11.2004 23.3655 10.4838 23.0885 9.71817C22.3556 7.38888 22.9745 4.65237 24.6685 2.8932C25.2224 2.40454 25.8902 2.04619 26.5906 1.96475ZM26.8186 4.24514C26.2648 4.44065 25.939 4.97814 25.6459 5.45055C25.0269 6.54184 24.864 7.95896 25.4341 9.1155C25.5807 9.44127 25.8577 9.75076 26.2323 9.76703C26.6395 9.7833 26.9978 9.52272 27.291 9.24582C27.9263 8.62682 28.2032 7.74724 28.3009 6.88393C28.3987 6.08575 28.2683 5.22251 27.796 4.53838C27.6005 4.26147 27.177 4.13114 26.8186 4.24514Z" fill="white"/>
</svg>
