<svg width="72" height="22" viewBox="0 0 72 22" fill="none" xmlns="http://www.w3.org/2000/svg">
<path fill-rule="evenodd" clip-rule="evenodd" d="M13.4044 0.770454C13.3654 0.7963 13.0244 1.2289 12.6465 1.73174C12.2686 2.23461 11.8017 2.85511 11.609 3.11064C11.4162 3.36619 11.219 3.63158 11.1705 3.70043C10.7459 4.30372 12.2371 4.41566 12.7095 3.81594C12.8318 3.66063 12.9663 3.49119 13.0085 3.43942L13.0851 3.34529L13.0865 9.35119C13.088 15.5651 13.0856 15.4247 13.1925 15.5074C13.2374 15.5421 14.2173 15.5579 14.3019 15.5251C14.4295 15.4758 14.4233 15.8584 14.4233 8.11828V0.880319L14.3452 0.801706L14.2671 0.723094L13.8711 0.723282C13.5392 0.723416 13.4637 0.731054 13.4044 0.770454ZM23.3203 0.783606C23.2741 0.816901 23.0782 1.05591 22.8849 1.31477C22.2539 2.16009 21.2248 3.53067 21.1233 3.66089C20.8398 4.02467 20.9497 4.1181 21.7113 4.16078C22.3837 4.19846 22.4011 4.18829 22.9115 3.46113C22.9506 3.40545 22.9916 3.35963 23.0026 3.3593C23.0136 3.35901 23.0226 6.07022 23.0226 9.3843V15.4098L23.0882 15.4758C23.1533 15.5415 23.157 15.5419 23.6778 15.5419H24.2018L24.2798 15.4632L24.3579 15.3846V8.15967C24.3579 2.89134 24.3498 0.918804 24.3281 0.875961C24.2578 0.737536 24.2115 0.724331 23.7944 0.723686C23.4321 0.723148 23.3984 0.727397 23.3203 0.783606ZM0.080015 0.8286L0.00195312 0.907213V8.1418V15.3764L0.0710953 15.4591L0.140238 15.5419H2.4865H4.83277L4.90771 15.477L4.98264 15.4122L4.98982 14.9458C5.0016 14.1826 5.1909 14.251 3.06634 14.251H1.39043L1.39722 11.4472L1.40402 8.64345L2.8328 8.63703C4.60916 8.62899 4.46187 8.68678 4.46187 7.99801C4.46187 7.30923 4.60916 7.36702 2.8328 7.35899L1.40402 7.35256L1.39722 4.69729L1.3904 2.04207L3.11249 2.03476L4.83455 2.02747L4.90861 1.95297L4.98264 1.87848L4.99116 1.43187C4.99698 1.12613 4.9895 0.960517 4.96744 0.90689C4.89916 0.740871 5.04289 0.749988 2.49099 0.749988H0.158077L0.080015 0.8286ZM31.0781 0.820882L31.0078 0.891802V8.1508V15.4098L31.0733 15.4758L31.1388 15.5419H33.4914H35.844L35.9095 15.4758C35.9517 15.4334 35.9755 15.3782 35.9763 15.3212C35.9934 14.1261 36.221 14.2542 34.0789 14.2526L32.4098 14.2514V11.4475V8.64345L33.8564 8.63002L35.3032 8.61659L35.3721 8.5514L35.4409 8.48616V7.99569V7.50523L35.3588 7.43561L35.2766 7.36599H33.8365H32.3964V4.70421V2.04242L34.1149 2.03494C35.984 2.02682 35.893 2.0346 35.9591 1.87697C36.0208 1.72988 35.9719 0.861008 35.8987 0.801329C35.8377 0.751682 35.7585 0.749988 33.4921 0.749988H31.1485L31.0781 0.820882ZM42.6904 0.816014C42.5987 0.908368 42.5963 0.879887 42.8526 2.71241C42.9778 3.60778 43.1698 4.98181 43.2792 5.76578C43.3886 6.54975 43.7012 8.78873 43.9738 10.7412C44.2465 12.6938 44.499 14.5091 44.5352 14.7754C44.6466 15.5964 44.5941 15.5419 45.2732 15.5419C45.9623 15.5419 45.8875 15.6348 46.0331 14.5983C46.2374 13.1439 47.4011 4.80893 47.5798 3.5201C47.6752 2.83228 47.7951 1.97707 47.8464 1.61962C47.9778 0.702009 48.0114 0.749988 47.2377 0.749988H46.6789L46.6073 0.827282C46.5371 0.902936 46.5302 0.943735 46.2869 2.73006C46.1502 3.73408 45.998 4.84599 45.9487 5.201C45.8994 5.556 45.7989 6.2882 45.7253 6.82811C45.6517 7.36799 45.5362 8.20911 45.4686 8.69726C45.401 9.18541 45.3387 9.64528 45.3303 9.71927C45.3148 9.85599 45.2713 9.97999 45.2696 9.89244C45.2691 9.86943 45.0294 8.12059 44.7367 6.00624C44.444 3.89186 44.1654 1.87753 44.1175 1.52992C44.0353 0.93252 44.0264 0.893846 43.9573 0.823948L43.8842 0.749988H43.3201C42.7568 0.749988 42.7559 0.750068 42.6904 0.816014ZM54.6316 0.832742L54.5625 0.915469V8.13628C54.5625 13.5745 54.5702 15.3716 54.5936 15.4159C54.6616 15.5446 54.5743 15.5401 57.0514 15.541L59.3933 15.5419L59.4683 15.477L59.5432 15.4121L59.5521 14.9555C59.5671 14.1816 59.7741 14.2546 57.5602 14.2525L55.951 14.251L55.9578 11.4472L55.9646 8.64345L57.4112 8.63002L58.8579 8.61659L58.9268 8.5514L58.9957 8.48616V7.99801V7.50986L58.9268 7.44461L58.8579 7.37943L57.4112 7.36599L55.9646 7.35256L55.9578 4.69749L55.9509 2.04242L57.673 2.03494L59.3951 2.02747L59.4692 1.95297L59.5432 1.87848L59.5517 1.43187C59.5576 1.12613 59.55 0.960517 59.528 0.90689C59.4597 0.740871 59.6043 0.749988 57.0426 0.749988H54.7008L54.6316 0.832742ZM66.9181 0.78046C66.7876 0.856839 66.794 0.49312 66.794 8.14592C66.794 15.8353 66.787 15.4393 66.9232 15.5128C66.9573 15.5309 67.1836 15.5419 67.5243 15.5419H68.0713L68.1401 15.4591L68.2095 15.3764V10.9095C68.2095 8.45273 68.2153 6.44855 68.2224 6.45575C68.2294 6.46299 68.3503 6.8795 68.4904 7.38136C68.7392 8.2721 68.8047 8.50808 69.1975 9.92098C69.3023 10.2981 69.4405 10.7944 69.5048 11.0236C69.7407 11.8675 69.866 12.3168 70.0518 12.9869C70.2389 13.6609 70.3584 14.0893 70.6021 14.9569C70.6933 15.28 70.7428 15.4132 70.7943 15.4679L70.863 15.5419H71.3509C71.8279 15.5419 71.8401 15.5404 71.9134 15.4769L71.988 15.412L71.995 8.19535C72.0002 2.80778 71.9944 0.959575 71.9712 0.903554C71.9121 0.758298 71.8761 0.749988 71.3046 0.749988H70.7801L70.71 0.820882L70.6393 0.891802L70.638 5.41308C70.6368 8.1625 70.6265 9.91333 70.6117 9.88061C70.5982 9.85104 70.3578 9.00388 70.0775 7.99801C69.7972 6.99216 69.4913 5.89689 69.3974 5.56407C69.3042 5.23125 69.0638 4.37198 68.8632 3.65457C68.6627 2.93717 68.4223 2.0779 68.3291 1.74508C68.2359 1.41226 68.1452 1.08229 68.1279 1.01183C68.0687 0.773924 67.2099 0.6096 66.9181 0.78046ZM50.7969 18.0229C50.7969 18.0334 50.7365 18.3481 50.5064 19.5357C50.2762 20.7236 50.1828 21.2183 50.1828 21.2502C50.1826 21.3102 50.8445 21.2707 50.8592 21.2099C50.8725 21.1546 50.9556 20.7238 51.1598 19.6499C51.2215 19.3256 51.2776 19.1489 51.2776 19.279C51.2776 19.2933 51.4414 19.7471 51.6416 20.2876L52.0055 21.2703H52.3061H52.6068L52.6623 21.1292C52.6928 21.0515 52.8626 20.6015 53.0396 20.1292C53.2167 19.6569 53.3661 19.2657 53.3718 19.26C53.3862 19.2456 53.7613 21.1638 53.7613 21.2516C53.7613 21.2619 53.9116 21.2703 54.0951 21.2703C54.3384 21.2703 54.4289 21.2615 54.4289 21.2378C54.4289 21.22 54.3634 20.8599 54.2834 20.4377C54.0053 18.9718 53.8692 18.2441 53.852 18.1305L53.8346 18.0161H53.4937C53.2453 18.0161 53.1495 18.0252 53.1406 18.0497C52.9472 18.5819 52.3324 20.2138 52.3197 20.2287C52.31 20.2401 52.2234 20.0344 52.1272 19.7716C52.031 19.5087 51.8469 19.0062 51.7181 18.6549L51.4838 18.0161H51.1404C50.9515 18.0161 50.7969 18.0191 50.7969 18.0229ZM56.5921 19.6433V21.2703H56.9393H57.2865V19.6433V18.0161H56.9393H56.5921V19.6433ZM60.7555 18.1439C60.5353 18.6616 59.6834 20.6479 59.567 20.9148C59.4878 21.0965 59.423 21.2508 59.423 21.2577C59.423 21.2647 59.5837 21.2703 59.7802 21.2703H60.1374L60.2821 20.9409L60.4268 20.6115H61.1706H61.9142L62.0519 20.9342L62.1896 21.2569L62.5421 21.2644C62.7361 21.2685 62.8949 21.2625 62.8951 21.2509C62.8952 21.2394 62.5865 20.5069 62.209 19.6231L61.5228 18.0161H61.1663H60.8098L60.7555 18.1439ZM65.1401 19.6089C64.9729 20.4857 64.8302 21.2186 64.8232 21.2376C64.8142 21.2646 64.8842 21.2704 65.1536 21.2644L65.4962 21.2569L65.581 20.8266C65.6273 20.5899 65.7109 20.1542 65.7662 19.8584C65.8214 19.5626 65.8754 19.3041 65.8857 19.2841C65.8967 19.2626 66.0574 19.6606 66.2759 20.2523L66.6475 21.2569L66.9483 21.2645L67.2491 21.2722L67.2974 21.157C67.3237 21.0936 67.4947 20.6402 67.6773 20.1495C67.8598 19.6587 68.0167 19.2654 68.0257 19.2754C68.0347 19.2854 68.0925 19.5599 68.1542 19.8853C68.2159 20.2107 68.2995 20.6525 68.3406 20.8669L68.4146 21.2569L68.7392 21.2644C69.1307 21.2736 69.1069 21.3765 68.9307 20.4433C68.8575 20.055 68.7366 19.4136 68.6627 19.0179C68.5888 18.6223 68.5155 18.235 68.5001 18.1573L68.4724 18.0161L68.1343 18.0168L67.7955 18.0175L67.3816 19.1319C67.154 19.7448 66.9605 20.2377 66.9509 20.2272C66.9361 20.2107 66.5446 19.1597 66.2328 18.2986L66.1358 18.0296L65.79 18.0222L65.4448 18.0146L65.1401 19.6089ZM71.2539 19.6433V21.2703H71.5875H71.9217V19.6433V18.0161H71.5875H71.2539V19.6433ZM61.415 19.4397C61.5312 19.7124 61.6303 19.9454 61.6351 19.9575C61.6401 19.9696 61.4328 19.9795 61.1745 19.9795C60.9162 19.9795 60.7049 19.9746 60.7049 19.9688C60.7049 19.9629 60.7892 19.7624 60.8922 19.5232C60.9953 19.2839 61.0977 19.0445 61.1199 18.9912C61.1719 18.8657 61.1673 18.8586 61.415 19.4397Z" fill="#C4C0B6"/>
</svg>
