<svg width="72" height="10" viewBox="0 0 72 10" fill="none" xmlns="http://www.w3.org/2000/svg">
<path fill-rule="evenodd" clip-rule="evenodd" d="M68.4619 0.294592C67.6723 0.653238 67.2827 1.26612 67.2279 2.2356C67.1574 3.47865 67.4389 3.92503 69.3406 5.58654C70.2593 6.38888 70.4527 6.77049 70.2236 7.32441C69.8712 8.17452 68.362 7.81778 68.0243 6.80456C67.9753 6.65825 67.6567 6.83662 66.8025 7.48898C65.9185 8.1641 68.8109 9.88121 70.1923 9.50131C72.7303 8.80324 72.5306 5.85757 69.7987 3.68347C68.8961 2.96546 68.6548 2.50446 68.9475 2.05797C69.1981 1.67576 69.5085 1.67383 69.9573 2.05156L70.3098 2.34786L70.837 1.81074L71.3642 1.27362L71.1214 0.940344C70.553 0.160583 69.3827 -0.123626 68.4619 0.294592ZM0.0214844 4.89921V9.64258L1.32049 9.5604C5.05398 9.32441 6.39624 8.30718 6.80698 5.40263C7.3028 1.89714 5.84658 0.33048 1.98509 0.214718L0.0214844 0.15587V4.89921ZM8.91692 0.282629C8.85334 0.385461 6.305 8.95175 6.305 9.06253C6.305 9.8376 8.06186 8.9213 8.29761 8.02337C8.60408 6.85615 8.54921 6.89629 9.90331 6.84989L11.0939 6.80906L11.2285 7.27282C11.3025 7.52789 11.4235 7.96766 11.4972 8.25015L11.6312 8.76373H12.3417C13.5189 8.76373 13.5146 8.99776 12.4032 5.46475C11.8555 3.72359 11.2636 1.82318 11.0879 1.24159L10.7683 0.184267H9.87297C9.38058 0.184267 8.95041 0.228493 8.91692 0.282629ZM12.5886 0.283112C12.5886 0.412408 14.9682 8.02542 15.1072 8.34081C15.2022 8.55672 15.3092 8.57836 16.1127 8.54356L17.0118 8.50464L18.3465 4.34445L19.6811 0.184267H18.8014C18.0684 0.184267 17.9111 0.219552 17.8579 0.395732C17.4971 1.59214 16.3348 5.79981 16.2705 6.14261C16.1699 6.67841 16.0106 6.62149 15.9005 6.01044C15.8292 5.61468 15.225 3.43817 14.5094 0.999917L14.27 0.184267H13.4293C12.9669 0.184267 12.5886 0.228735 12.5886 0.283112ZM20.2013 4.27437V8.36445L21.4399 8.31976C22.121 8.29523 23.2359 8.24389 23.9171 8.2057L25.1556 8.13634V7.45055V6.76481L23.4639 6.81122L21.7722 6.85777L21.774 5.96791C21.7758 5.09738 21.8789 4.73089 22.1303 4.70056C22.1992 4.69222 22.6932 4.67869 23.2283 4.67035L24.201 4.65525L24.1647 3.96043L24.1285 3.26562H22.9806H21.8326L21.7944 2.73152C21.7143 1.61051 21.6767 1.63431 23.5266 1.63431H25.1556V0.909291V0.184267H22.6785H20.2013V4.27437ZM35.3924 4.02085C34.6777 6.13091 34.094 7.88993 34.0953 7.92968C34.0965 7.96957 34.4751 8.01309 34.9364 8.0266L35.7753 8.05102L36.0724 7.10834L36.3697 6.16571H37.6127H38.8558L39.1597 7.10222L39.4635 8.03869H40.3397H41.2157L39.8922 4.1609C39.1642 2.02812 38.5686 0.260878 38.5686 0.233689C38.5686 0.206501 38.1464 0.184267 37.6303 0.184267H36.692L35.3924 4.02085ZM41.7103 4.08042V8.00148L43.3176 8.07408C47.0783 8.24413 48.606 6.9728 48.4544 3.79984C48.3287 1.17235 47.1889 0.317913 43.674 0.216168L41.7103 0.159375V4.08042ZM49.2574 4.10773C47.8272 8.48325 47.8449 8.28035 48.8941 8.28035H49.6592L49.9475 7.34389L50.2359 6.40738L50.7763 6.37478C51.0739 6.35676 51.6417 6.38393 52.0382 6.43518L52.7592 6.52824L53.0162 7.4345L53.2727 8.34081L54.0887 8.44037C54.5371 8.4951 54.9331 8.51081 54.9683 8.47542C55.0041 8.43998 54.4426 6.56001 53.7211 4.29769L52.4092 0.184267H51.4748H50.5398L49.2574 4.10773ZM56.2812 0.637408C56.0761 1.93508 55.2337 8.43068 55.2665 8.46088C55.2875 8.48036 55.6845 8.51566 56.1495 8.5393L56.9939 8.58247L57.3057 5.62193C57.6043 2.78106 57.6224 2.68584 57.758 3.26562C57.8353 3.59792 58.2436 4.95734 58.6646 6.28657L59.4311 8.70328L60.1301 8.76623C60.7924 8.8258 60.836 8.81303 60.9456 8.52456C61.0939 8.13571 62.4513 3.62595 62.5649 3.14478C62.6241 2.89598 62.7382 3.59744 62.9291 5.38026C63.0818 6.80916 63.2394 8.20208 63.2786 8.47561L63.3501 8.97299L64.146 9.05455C64.5836 9.09938 64.9708 9.10663 65.007 9.07065C65.0613 9.01627 64.1974 1.84494 63.9835 0.576988L63.9174 0.184267H62.9075H61.8977L61.5766 1.24159C61.3999 1.82318 61.0014 3.1269 60.6911 4.13879L60.1262 5.97867L59.601 4.19921C59.3122 3.22054 58.9186 1.91683 58.7267 1.30201L58.3772 0.184267H57.3649H56.3531L56.2812 0.637408ZM65.3218 0.276708C64.8044 0.622302 64.8151 1.21187 65.3482 1.69993L65.7853 2.10039L65.4574 2.42821C64.8367 3.04871 65.4035 3.62088 66.0477 3.02406C67.2607 1.89967 66.6057 -0.580513 65.3218 0.276708ZM45.275 1.76953C48.2173 2.58446 46.9047 7.1591 43.8754 6.64738L43.4021 6.5674V4.10085V1.63431L44.0969 1.63504C44.4791 1.6354 45.0092 1.69594 45.275 1.76953ZM3.4848 2.00093C6.68226 2.66469 5.47344 7.79702 2.1197 7.79702H1.71321V4.9171C1.71321 3.33305 1.7387 2.01157 1.76988 1.98039C1.89084 1.85943 2.85923 1.87104 3.4848 2.00093ZM38.0811 3.46041C38.2828 4.16561 38.4477 4.77729 38.4477 4.81983C38.4477 4.86224 38.0613 4.89692 37.5889 4.89692C36.8202 4.89692 36.7388 4.87469 36.8125 4.68545C36.8579 4.56921 37.0312 3.9846 37.1977 3.38645C37.574 2.03453 37.6196 1.9068 37.6723 2.05725C37.6955 2.12371 37.8796 2.75508 38.0811 3.46041ZM51.9153 3.55067C52.0945 4.2392 52.2697 4.87819 52.3055 4.97051C52.3569 5.10453 52.1929 5.1386 51.4968 5.1386C50.6495 5.1386 50.6265 5.13062 50.7004 4.86671C50.7425 4.71723 50.9216 4.03596 51.0979 3.35298C51.4728 1.90426 51.488 1.90801 51.9153 3.55067ZM10.29 3.79911C10.7234 5.51561 10.7304 5.49637 9.67119 5.49931L8.98917 5.50112L9.28512 4.32294C9.75783 2.44139 9.82269 2.21156 9.86851 2.25735C9.8923 2.28116 10.082 2.975 10.29 3.79911Z" fill="#D2D2D2"/>
</svg>
