<svg width="60" height="18" viewBox="0 0 60 18" fill="none" xmlns="http://www.w3.org/2000/svg">
<g clip-path="url(#clip0_102_357)">
<mask id="mask0_102_357" style="mask-type:luminance" maskUnits="userSpaceOnUse" x="0" y="0" width="60" height="18">
<path d="M60 0.346191H0V17.5802H60V0.346191Z" fill="white"/>
</mask>
<g mask="url(#mask0_102_357)">
<path d="M12.9421 3.61032C12.9305 3.52472 12.8566 3.47722 12.7953 3.47205C12.7345 3.46688 11.5425 3.44854 11.5425 3.44854C11.5425 3.44854 10.5455 2.46845 10.447 2.36875C10.3486 2.26905 10.1563 2.29914 10.0815 2.32172C10.0805 2.32219 9.89426 2.38051 9.58071 2.4788C9.52821 2.30667 9.45106 2.09504 9.34096 1.88247C8.98606 1.19678 8.46626 0.834185 7.83816 0.833245H7.83586C7.79221 0.833245 7.74901 0.83748 7.70536 0.84124C7.68676 0.818665 7.66816 0.79656 7.64866 0.774925C7.37501 0.478644 7.02431 0.334264 6.60391 0.346962C5.79281 0.370476 4.985 0.963515 4.32999 2.01697C3.86916 2.75815 3.51843 3.68934 3.41902 4.41029C2.48762 4.70233 1.83633 4.90644 1.82193 4.91115C1.35181 5.0607 1.33695 5.07525 1.27563 5.52395C1.2301 5.863 0 15.4928 0 15.4928L10.3086 17.2977L14.7766 16.1733C14.7766 16.1733 12.9537 3.69592 12.9421 3.61032ZM9.06456 2.64057C8.82721 2.71488 8.55726 2.79953 8.26461 2.89124C8.25861 2.4755 8.20981 1.89705 8.01841 1.39713C8.63396 1.51517 8.93681 2.22013 9.06456 2.64057ZM7.72531 3.06055C7.18506 3.22985 6.59551 3.41467 6.00416 3.59998C6.17046 2.95521 6.48591 2.31326 6.87336 1.89234C7.01736 1.73574 7.21896 1.56126 7.45771 1.46156C7.68211 1.93561 7.73086 2.60671 7.72531 3.06055ZM6.62016 0.89344C6.81061 0.88921 6.97086 0.931535 7.10791 1.02277C6.88866 1.138 6.67681 1.30354 6.47801 1.5194C5.96281 2.07905 5.56796 2.94768 5.41051 3.78574C4.91947 3.93952 4.43914 4.0905 3.99689 4.22877C4.2761 2.90958 5.36821 0.930125 6.62016 0.89344Z" fill="#B7B7B7"/>
<path d="M12.7953 3.47242C12.7344 3.46725 11.5424 3.44891 11.5424 3.44891C11.5424 3.44891 10.5455 2.46882 10.447 2.36911C10.4103 2.33196 10.3606 2.31268 10.3086 2.30469L10.3091 17.2971L14.7766 16.1731C14.7766 16.1731 12.9537 3.69629 12.9421 3.61069C12.9305 3.52508 12.8561 3.47759 12.7953 3.47242Z" fill="#AEAEAE"/>
<path d="M7.83232 5.79816L7.31347 7.76351C7.31347 7.76351 6.73462 7.49686 6.04852 7.54056C5.04232 7.60501 5.03162 8.24741 5.04187 8.40876C5.09667 9.28771 7.38082 9.47961 7.50902 11.5386C7.60982 13.1582 6.66032 14.2663 5.29222 14.3537C3.65009 14.4586 2.74609 13.478 2.74609 13.478L3.09404 11.9797C3.09404 11.9797 4.00406 12.6748 4.73246 12.6282C5.20817 12.5977 5.37817 12.2059 5.36097 11.9289C5.28947 10.7823 3.42943 10.85 3.31191 8.96601C3.21295 7.38071 4.24146 5.77416 6.51072 5.62931C7.38497 5.57241 7.83232 5.79816 7.83232 5.79816Z" fill="white"/>
<path d="M20.6607 9.91364C20.1469 9.63139 19.8829 9.39354 19.8829 9.06654C19.8829 8.65044 20.2497 8.38314 20.8224 8.38314C21.4891 8.38314 22.0844 8.66539 22.0844 8.66539L22.5539 7.20909C22.5539 7.20909 22.1222 6.86719 20.8514 6.86719C19.083 6.86719 17.8574 7.89244 17.8574 9.33379C17.8574 10.151 18.4297 10.7751 19.1932 11.2206C19.8097 11.577 20.0299 11.8298 20.0299 12.2011C20.0299 12.5873 19.7217 12.8994 19.1494 12.8994C18.2965 12.8994 17.4911 12.4535 17.4911 12.4535L16.9922 13.9097C16.9922 13.9097 17.7363 14.4149 18.9881 14.4149C20.8081 14.4149 22.1144 13.5086 22.1144 11.8741C22.1139 10.9981 21.4536 10.374 20.6607 9.91364Z" fill="#AEAEAE"/>
<path d="M27.9097 6.85235C27.0144 6.85235 26.3099 7.2834 25.7671 7.9369L25.7376 7.92195L26.5154 3.8064H24.4899L22.5234 14.2812H24.5489L25.2239 10.7007C25.4879 9.3484 26.1777 8.5167 26.8236 8.5167C27.2784 8.5167 27.4549 8.82875 27.4549 9.27465C27.4549 9.5569 27.4254 9.8988 27.3669 10.181L26.6038 14.2817H28.6294L29.4217 10.0472C29.5099 9.6012 29.5688 9.06665 29.5688 8.7098C29.5679 7.55065 28.9663 6.85235 27.9097 6.85235Z" fill="#AEAEAE"/>
<path d="M34.1481 6.85229C31.7115 6.85229 30.0977 9.08104 30.0977 11.5621C30.0977 13.1518 31.066 14.4294 32.8861 14.4294C35.2783 14.4294 36.8927 12.2604 36.8927 9.71959C36.8927 8.24884 36.0413 6.85229 34.1481 6.85229ZM33.1501 12.8551C32.4603 12.8551 32.1667 12.2608 32.1667 11.5178C32.1667 10.3442 32.7686 8.42755 33.8693 8.42755C34.5885 8.42755 34.8229 9.05164 34.8229 9.66084C34.8229 10.9235 34.2218 12.8551 33.1501 12.8551Z" fill="#AEAEAE"/>
<path d="M42.0731 6.85229C40.7059 6.85229 39.9301 8.07069 39.9301 8.07069H39.9011L40.0185 6.97124H38.228C38.1401 7.71429 37.9783 8.84315 37.8172 9.69025L36.4082 17.1932H38.4337L38.991 14.1621H39.0354C39.0354 14.1621 39.4509 14.4294 40.2242 14.4294C42.6016 14.4294 44.1571 11.9633 44.1571 9.46679C44.1571 8.08564 43.5552 6.85229 42.0731 6.85229ZM40.1358 12.8845C39.61 12.8845 39.2988 12.5874 39.2988 12.5874L39.6365 10.6707C39.8715 9.39309 40.5318 8.54599 41.2364 8.54599C41.8529 8.54599 42.0435 9.12534 42.0435 9.67529C42.0435 10.9977 41.2657 12.8845 40.1358 12.8845Z" fill="#AEAEAE"/>
<path d="M47.0479 3.91064C46.4024 3.91064 45.8887 4.43074 45.8887 5.09915C45.8887 5.7084 46.2702 6.12445 46.8425 6.12445H46.8718C47.5031 6.12445 48.0459 5.69345 48.0607 4.93593C48.0607 4.34163 47.6644 3.91064 47.0479 3.91064Z" fill="#AEAEAE"/>
<path d="M44.2168 14.2817H46.2417L47.6217 7.0166H45.5814L44.2168 14.2817Z" fill="#AEAEAE"/>
<path d="M52.772 7.00155H51.363L51.436 6.65965C51.5535 5.96135 51.9645 5.3372 52.6395 5.3372C53 5.3372 53.285 5.44125 53.285 5.44125L53.6815 3.83664C53.6815 3.83664 53.329 3.65845 52.5805 3.65845C51.861 3.65845 51.1425 3.86647 50.599 4.34179C49.9094 4.93609 49.5865 5.7976 49.4252 6.65965L49.3669 7.00155H48.4273L48.1337 8.54695H49.0733L48.002 14.282H50.0275L51.099 8.54695H52.493L52.772 7.00155Z" fill="#AEAEAE"/>
<path d="M57.644 7.01661C57.644 7.01661 56.378 10.2459 55.8095 12.0086H55.78C55.7415 11.441 55.281 7.01661 55.281 7.01661H53.153L54.3715 13.6874C54.401 13.8358 54.3865 13.9253 54.3275 14.0293C54.092 14.4897 53.696 14.9357 53.2265 15.2627C52.845 15.5448 52.4195 15.723 52.082 15.842L52.6395 17.5805C53.0505 17.4914 53.9015 17.1495 54.6205 16.4661C55.5455 15.5896 56.3965 14.2374 57.277 12.3949L59.7575 7.01611H57.644V7.01661Z" fill="#AEAEAE"/>
</g>
</g>
<defs>
<clipPath id="clip0_102_357">
<rect width="60" height="18" fill="white"/>
</clipPath>
</defs>
</svg>
