<svg width="167" height="38" viewBox="0 0 167 38" fill="none" xmlns="http://www.w3.org/2000/svg">
<mask id="path-1-inside-1_642_135" fill="white">
<path d="M57.8704 25.6563H67.8544V22.9376H61.168V10.0596H57.8704V25.6563Z"/>
<path d="M74.6191 25.8848C78.168 25.8848 80.3765 23.4555 80.3765 19.8533C80.3765 16.2282 78.168 13.8065 74.6191 13.8065C71.0703 13.8065 68.8618 16.2282 68.8618 19.8533C68.8618 23.4555 71.0703 25.8848 74.6191 25.8848ZM74.6344 23.3716C72.997 23.3716 72.1593 21.8713 72.1593 19.8304C72.1593 17.7894 72.997 16.2816 74.6344 16.2816C76.2413 16.2816 77.0789 17.7894 77.0789 19.8304C77.0789 21.8713 76.2413 23.3716 74.6344 23.3716Z"/>
<path d="M87.1126 30.2866C90.4558 30.2866 92.8318 28.7634 92.8318 25.7706V13.9589H89.6105V15.9236H89.4887C89.0545 14.9716 88.1027 13.8065 86.1454 13.8065C83.579 13.8065 81.4086 15.8018 81.4086 19.7848C81.4086 23.6762 83.5181 25.4888 86.153 25.4888C88.0188 25.4888 89.0622 24.5521 89.4887 23.5849H89.6258V25.7248C89.6258 27.3318 88.5976 27.9562 87.1887 27.9562C85.757 27.9562 85.0335 27.3318 84.767 26.6235L81.7665 27.0272C82.1548 28.87 83.9597 30.2866 87.1126 30.2866ZM87.1811 23.0518C85.5895 23.0518 84.7213 21.7876 84.7213 19.7695C84.7213 17.7818 85.5743 16.3882 87.1811 16.3882C88.7576 16.3882 89.6409 17.7209 89.6409 19.7695C89.6409 21.8333 88.7423 23.0518 87.1811 23.0518Z"/>
<path d="M100.055 25.8848C103.604 25.8848 105.813 23.4555 105.813 19.8533C105.813 16.2282 103.604 13.8065 100.055 13.8065C96.5066 13.8065 94.298 16.2282 94.298 19.8533C94.298 23.4555 96.5066 25.8848 100.055 25.8848ZM100.071 23.3716C98.4333 23.3716 97.5955 21.8713 97.5955 19.8304C97.5955 17.7894 98.4333 16.2816 100.071 16.2816C101.677 16.2816 102.515 17.7894 102.515 19.8304C102.515 21.8713 101.677 23.3716 100.071 23.3716Z"/>
<path d="M107.279 25.6563H110.523V13.9589H107.279V25.6563ZM108.909 12.4509C109.876 12.4509 110.668 11.7123 110.668 10.806C110.668 9.9074 109.876 9.16865 108.909 9.16865C107.949 9.16865 107.157 9.9074 107.157 10.806C107.157 11.7123 107.949 12.4509 108.909 12.4509Z"/>
<path d="M112.479 30.0429H115.723V23.7829H115.822C116.271 24.7577 117.253 25.8467 119.142 25.8467C121.808 25.8467 123.887 23.7373 123.887 19.8227C123.887 15.8018 121.716 13.8065 119.15 13.8065C117.192 13.8065 116.256 14.9716 115.822 15.9236H115.677V13.9589H112.479V30.0429ZM115.654 19.8076C115.654 17.7209 116.537 16.3882 118.114 16.3882C119.721 16.3882 120.574 17.7818 120.574 19.8076C120.574 21.8485 119.706 23.265 118.114 23.265C116.553 23.265 115.654 21.8943 115.654 19.8076Z"/>
<path d="M135.139 17.2944C134.849 15.1393 133.113 13.8065 130.158 13.8065C127.165 13.8065 125.193 15.1925 125.2 17.4467C125.193 19.1984 126.297 20.3331 128.582 20.79L130.608 21.1936C131.628 21.3992 132.093 21.7724 132.108 22.3587C132.093 23.0518 131.339 23.5468 130.204 23.5468C129.046 23.5468 128.277 23.0518 128.08 22.0999L124.889 22.2674C125.193 24.5063 127.097 25.8848 130.196 25.8848C133.227 25.8848 135.397 24.3388 135.405 22.0313C135.397 20.3407 134.293 19.3278 132.025 18.8632L129.907 18.4367C128.818 18.2007 128.414 17.8275 128.422 17.2639C128.414 16.5634 129.207 16.1064 130.211 16.1064C131.339 16.1064 132.009 16.7233 132.168 17.4772L135.139 17.2944Z"/>
<path d="M144.306 20.6758C144.314 22.2446 143.24 23.067 142.075 23.067C140.849 23.067 140.057 22.2065 140.049 20.828V13.9589H136.805V21.4069C136.812 24.1408 138.412 25.8087 140.765 25.8087C142.524 25.8087 143.788 24.9024 144.314 23.5315H144.435V25.6563H147.55V13.9589H144.306V20.6758Z"/>
<path d="M149.502 25.6563H152.746V18.6348C152.746 17.3401 153.569 16.4796 154.65 16.4796C155.716 16.4796 156.432 17.2107 156.432 18.3607V25.6563H159.578V18.5129C159.578 17.302 160.271 16.4796 161.451 16.4796C162.487 16.4796 163.263 17.1269 163.263 18.4292V25.6563H166.5V17.7894C166.5 15.2534 164.992 13.8065 162.814 13.8065C161.1 13.8065 159.768 14.6823 159.288 16.0226H159.166C158.793 14.667 157.597 13.8065 155.99 13.8065C154.414 13.8065 153.218 14.6442 152.731 16.0226H152.594V13.9589H149.502V25.6563Z"/>
<path d="M17.4916 0.0651855H27.6024L23.5439 11.4068C16.4007 12.662 10.9373 19.5731 10.9373 27.9105C10.9373 31.6716 12.0492 35.1426 13.9254 37.9348H0.5L12.7734 3.63597C13.5451 1.47934 15.4137 0.0651855 17.4916 0.0651855Z"/>
<path d="M27.6024 0.0651855L24.7498 8.03605L23.8904 0.0651855H27.6024Z"/>
<path d="M34.0012 0.0651855H23.8904L27.9318 11.3589C35.2171 12.4752 40.8294 19.4602 40.8294 27.9105C40.8294 31.6716 39.7175 35.1426 37.8413 37.9348H50.9927L38.7194 3.63598C37.9477 1.47934 36.0791 0.0651855 34.0012 0.0651855Z"/>
<path d="M15.6884 36.8433C13.9606 34.3827 12.9303 31.2811 12.9303 27.9104C12.9303 19.9135 18.7297 13.4309 25.8835 13.4309C33.0375 13.4309 38.8369 19.9135 38.8369 27.9104C38.8369 31.2811 37.8066 34.3827 36.0788 36.8433C33.2423 34.7317 29.7112 33.4795 25.8835 33.4795C22.056 33.4795 18.5248 34.7317 15.6884 36.8433Z"/>
</mask>
<path d="M57.8704 25.6563H67.8544V22.9376H61.168V10.0596H57.8704V25.6563Z" fill="#808080"/>
<path d="M74.6191 25.8848C78.168 25.8848 80.3765 23.4555 80.3765 19.8533C80.3765 16.2282 78.168 13.8065 74.6191 13.8065C71.0703 13.8065 68.8618 16.2282 68.8618 19.8533C68.8618 23.4555 71.0703 25.8848 74.6191 25.8848ZM74.6344 23.3716C72.997 23.3716 72.1593 21.8713 72.1593 19.8304C72.1593 17.7894 72.997 16.2816 74.6344 16.2816C76.2413 16.2816 77.0789 17.7894 77.0789 19.8304C77.0789 21.8713 76.2413 23.3716 74.6344 23.3716Z" fill="#808080"/>
<path d="M87.1126 30.2866C90.4558 30.2866 92.8318 28.7634 92.8318 25.7706V13.9589H89.6105V15.9236H89.4887C89.0545 14.9716 88.1027 13.8065 86.1454 13.8065C83.579 13.8065 81.4086 15.8018 81.4086 19.7848C81.4086 23.6762 83.5181 25.4888 86.153 25.4888C88.0188 25.4888 89.0622 24.5521 89.4887 23.5849H89.6258V25.7248C89.6258 27.3318 88.5976 27.9562 87.1887 27.9562C85.757 27.9562 85.0335 27.3318 84.767 26.6235L81.7665 27.0272C82.1548 28.87 83.9597 30.2866 87.1126 30.2866ZM87.1811 23.0518C85.5895 23.0518 84.7213 21.7876 84.7213 19.7695C84.7213 17.7818 85.5743 16.3882 87.1811 16.3882C88.7576 16.3882 89.6409 17.7209 89.6409 19.7695C89.6409 21.8333 88.7423 23.0518 87.1811 23.0518Z" fill="#808080"/>
<path d="M100.055 25.8848C103.604 25.8848 105.813 23.4555 105.813 19.8533C105.813 16.2282 103.604 13.8065 100.055 13.8065C96.5066 13.8065 94.298 16.2282 94.298 19.8533C94.298 23.4555 96.5066 25.8848 100.055 25.8848ZM100.071 23.3716C98.4333 23.3716 97.5955 21.8713 97.5955 19.8304C97.5955 17.7894 98.4333 16.2816 100.071 16.2816C101.677 16.2816 102.515 17.7894 102.515 19.8304C102.515 21.8713 101.677 23.3716 100.071 23.3716Z" fill="#808080"/>
<path d="M107.279 25.6563H110.523V13.9589H107.279V25.6563ZM108.909 12.4509C109.876 12.4509 110.668 11.7123 110.668 10.806C110.668 9.9074 109.876 9.16865 108.909 9.16865C107.949 9.16865 107.157 9.9074 107.157 10.806C107.157 11.7123 107.949 12.4509 108.909 12.4509Z" fill="#808080"/>
<path d="M112.479 30.0429H115.723V23.7829H115.822C116.271 24.7577 117.253 25.8467 119.142 25.8467C121.808 25.8467 123.887 23.7373 123.887 19.8227C123.887 15.8018 121.716 13.8065 119.15 13.8065C117.192 13.8065 116.256 14.9716 115.822 15.9236H115.677V13.9589H112.479V30.0429ZM115.654 19.8076C115.654 17.7209 116.537 16.3882 118.114 16.3882C119.721 16.3882 120.574 17.7818 120.574 19.8076C120.574 21.8485 119.706 23.265 118.114 23.265C116.553 23.265 115.654 21.8943 115.654 19.8076Z" fill="#808080"/>
<path d="M135.139 17.2944C134.849 15.1393 133.113 13.8065 130.158 13.8065C127.165 13.8065 125.193 15.1925 125.2 17.4467C125.193 19.1984 126.297 20.3331 128.582 20.79L130.608 21.1936C131.628 21.3992 132.093 21.7724 132.108 22.3587C132.093 23.0518 131.339 23.5468 130.204 23.5468C129.046 23.5468 128.277 23.0518 128.08 22.0999L124.889 22.2674C125.193 24.5063 127.097 25.8848 130.196 25.8848C133.227 25.8848 135.397 24.3388 135.405 22.0313C135.397 20.3407 134.293 19.3278 132.025 18.8632L129.907 18.4367C128.818 18.2007 128.414 17.8275 128.422 17.2639C128.414 16.5634 129.207 16.1064 130.211 16.1064C131.339 16.1064 132.009 16.7233 132.168 17.4772L135.139 17.2944Z" fill="#808080"/>
<path d="M144.306 20.6758C144.314 22.2446 143.24 23.067 142.075 23.067C140.849 23.067 140.057 22.2065 140.049 20.828V13.9589H136.805V21.4069C136.812 24.1408 138.412 25.8087 140.765 25.8087C142.524 25.8087 143.788 24.9024 144.314 23.5315H144.435V25.6563H147.55V13.9589H144.306V20.6758Z" fill="#808080"/>
<path d="M149.502 25.6563H152.746V18.6348C152.746 17.3401 153.569 16.4796 154.65 16.4796C155.716 16.4796 156.432 17.2107 156.432 18.3607V25.6563H159.578V18.5129C159.578 17.302 160.271 16.4796 161.451 16.4796C162.487 16.4796 163.263 17.1269 163.263 18.4292V25.6563H166.5V17.7894C166.5 15.2534 164.992 13.8065 162.814 13.8065C161.1 13.8065 159.768 14.6823 159.288 16.0226H159.166C158.793 14.667 157.597 13.8065 155.99 13.8065C154.414 13.8065 153.218 14.6442 152.731 16.0226H152.594V13.9589H149.502V25.6563Z" fill="#808080"/>
<path d="M17.4916 0.0651855H27.6024L23.5439 11.4068C16.4007 12.662 10.9373 19.5731 10.9373 27.9105C10.9373 31.6716 12.0492 35.1426 13.9254 37.9348H0.5L12.7734 3.63597C13.5451 1.47934 15.4137 0.0651855 17.4916 0.0651855Z" fill="#808080"/>
<path d="M34.0012 0.0651855H23.8904L27.9318 11.3589C35.2171 12.4752 40.8294 19.4602 40.8294 27.9105C40.8294 31.6716 39.7175 35.1426 37.8413 37.9348H50.9927L38.7194 3.63598C37.9477 1.47934 36.0791 0.0651855 34.0012 0.0651855Z" fill="#808080"/>
<path d="M15.6884 36.8433C13.9606 34.3827 12.9303 31.2811 12.9303 27.9104C12.9303 19.9135 18.7297 13.4309 25.8835 13.4309C33.0375 13.4309 38.8369 19.9135 38.8369 27.9104C38.8369 31.2811 37.8066 34.3827 36.0788 36.8433C33.2423 34.7317 29.7112 33.4795 25.8835 33.4795C22.056 33.4795 18.5248 34.7317 15.6884 36.8433Z" fill="#808080"/>
<path d="M57.8704 25.6563H56.8704V26.6563H57.8704V25.6563ZM67.8544 25.6563V26.6563H68.8544V25.6563H67.8544ZM67.8544 22.9376H68.8544V21.9376H67.8544V22.9376ZM61.168 22.9376H60.168V23.9376H61.168V22.9376ZM61.168 10.0596H62.168V9.05964H61.168V10.0596ZM57.8704 10.0596V9.05964H56.8704V10.0596H57.8704ZM92.8318 13.9589H93.8318V12.9589H92.8318V13.9589ZM89.6105 13.9589V12.9589H88.6105V13.9589H89.6105ZM89.6105 15.9236V16.9236H90.6105V15.9236H89.6105ZM89.4887 15.9236L88.5788 16.3386L88.8456 16.9236H89.4887V15.9236ZM89.4887 23.5849V22.5849H88.8368L88.5737 23.1814L89.4887 23.5849ZM89.6258 23.5849H90.6258V22.5849H89.6258V23.5849ZM84.767 26.6235L85.7029 26.2713L85.4226 25.5263L84.6337 25.6324L84.767 26.6235ZM81.7665 27.0272L81.6332 26.0361L80.566 26.1797L80.788 27.2333L81.7665 27.0272ZM107.279 25.6563H106.279V26.6563H107.279V25.6563ZM110.523 25.6563V26.6563H111.523V25.6563H110.523ZM110.523 13.9589H111.523V12.9589H110.523V13.9589ZM107.279 13.9589V12.9589H106.279V13.9589H107.279ZM112.479 30.0429H111.479V31.0429H112.479V30.0429ZM115.723 30.0429V31.0429H116.723V30.0429H115.723ZM115.723 23.7829V22.7829H114.723V23.7829H115.723ZM115.822 23.7829L116.73 23.3642L116.462 22.7829H115.822V23.7829ZM115.822 15.9236V16.9236H116.464L116.731 16.3391L115.822 15.9236ZM115.677 15.9236H114.677V16.9236H115.677V15.9236ZM115.677 13.9589H116.677V12.9589H115.677V13.9589ZM112.479 13.9589V12.9589H111.479V13.9589H112.479ZM135.139 17.2944L135.2 18.2925L136.273 18.2265L136.13 17.1611L135.139 17.2944ZM125.2 17.4467L126.2 17.4506L126.2 17.4438L125.2 17.4467ZM128.582 20.79L128.386 21.7706L128.387 21.7708L128.582 20.79ZM130.608 21.1936L130.805 20.2133L130.803 20.2129L130.608 21.1936ZM132.108 22.3587L133.107 22.3798L133.108 22.3568L133.107 22.3338L132.108 22.3587ZM128.08 22.0999L129.059 21.8965L128.884 21.0563L128.027 21.1013L128.08 22.0999ZM124.889 22.2674L124.836 21.2688L123.751 21.3257L123.898 22.4022L124.889 22.2674ZM135.405 22.0313L136.405 22.0347L136.405 22.0267L135.405 22.0313ZM132.025 18.8632L132.225 17.8836L132.222 17.8829L132.025 18.8632ZM129.907 18.4367L129.695 19.414L129.702 19.4156L129.709 19.417L129.907 18.4367ZM128.422 17.2639L129.422 17.2779L129.422 17.2653L129.422 17.2527L128.422 17.2639ZM132.168 17.4772L131.19 17.6842L131.369 18.5283L132.23 18.4753L132.168 17.4772ZM144.306 20.6758H143.306L143.306 20.6808L144.306 20.6758ZM140.049 20.828H139.049L139.049 20.8337L140.049 20.828ZM140.049 13.9589H141.049V12.9589H140.049V13.9589ZM136.805 13.9589V12.9589H135.805V13.9589H136.805ZM136.805 21.4069H135.805L135.805 21.4093L136.805 21.4069ZM144.314 23.5315V22.5315H143.627L143.38 23.1734L144.314 23.5315ZM144.435 23.5315H145.435V22.5315H144.435V23.5315ZM144.435 25.6563H143.435V26.6563H144.435V25.6563ZM147.55 25.6563V26.6563H148.55V25.6563H147.55ZM147.55 13.9589H148.55V12.9589H147.55V13.9589ZM144.306 13.9589V12.9589H143.306V13.9589H144.306ZM149.502 25.6563H148.502V26.6563H149.502V25.6563ZM152.746 25.6563V26.6563H153.746V25.6563H152.746ZM156.432 25.6563H155.432V26.6563H156.432V25.6563ZM159.578 25.6563V26.6563H160.578V25.6563H159.578ZM163.263 25.6563H162.263V26.6563H163.263V25.6563ZM166.5 25.6563V26.6563H167.5V25.6563H166.5ZM159.288 16.0226V17.0226H159.992L160.229 16.3596L159.288 16.0226ZM159.166 16.0226L158.202 16.2879L158.404 17.0226H159.166V16.0226ZM152.731 16.0226V17.0226H153.438L153.673 16.3561L152.731 16.0226ZM152.594 16.0226H151.594V17.0226H152.594V16.0226ZM152.594 13.9589H153.594V12.9589H152.594V13.9589ZM149.502 13.9589V12.9589H148.502V13.9589H149.502ZM27.6024 0.0651855L28.5439 0.4021L29.0223 -0.934814H27.6024V0.0651855ZM23.5439 11.4068L23.717 12.3917L24.2896 12.2911L24.4855 11.7437L23.5439 11.4068ZM13.9254 37.9348V38.9348H15.8021L14.7554 37.3771L13.9254 37.9348ZM0.5 37.9348L-0.441535 37.5979L-0.919933 38.9348H0.5V37.9348ZM12.7734 3.63597L13.715 3.97288L13.715 3.97286L12.7734 3.63597ZM24.7498 8.03605L23.7556 8.14325L25.6914 8.37299L24.7498 8.03605ZM23.8904 0.0651855V-0.934814H22.7768L22.8962 0.172384L23.8904 0.0651855ZM27.9318 11.3589L26.9903 11.6958L27.1911 12.2571L27.7803 12.3474L27.9318 11.3589ZM37.8413 37.9348L37.0113 37.3771L35.9646 38.9348H37.8413V37.9348ZM50.9927 37.9348V38.9348H52.4127L51.9343 37.5979L50.9927 37.9348ZM38.7194 3.63598L37.7778 3.97287L37.7778 3.97289L38.7194 3.63598ZM15.6884 36.8433L14.87 37.418L15.4609 38.2594L16.2856 37.6454L15.6884 36.8433ZM36.0788 36.8433L35.4816 37.6454L36.3063 38.2594L36.8971 37.418L36.0788 36.8433ZM57.8704 25.6563V26.6563H67.8544V25.6563V24.6563H57.8704V25.6563ZM67.8544 25.6563H68.8544V22.9376H67.8544H66.8544V25.6563H67.8544ZM67.8544 22.9376V21.9376H61.168V22.9376V23.9376H67.8544V22.9376ZM61.168 22.9376H62.168V10.0596H61.168H60.168V22.9376H61.168ZM61.168 10.0596V9.05964H57.8704V10.0596V11.0596H61.168V10.0596ZM57.8704 10.0596H56.8704V25.6563H57.8704H58.8704V10.0596H57.8704ZM74.6191 25.8848V26.8848C76.6314 26.8848 78.3475 26.1897 79.5567 24.9054C80.7594 23.628 81.3765 21.8578 81.3765 19.8533H80.3765H79.3765C79.3765 21.4509 78.8893 22.6966 78.1005 23.5344C77.3182 24.3653 76.1557 24.8848 74.6191 24.8848V25.8848ZM80.3765 19.8533H81.3765C81.3765 17.8388 80.7602 16.0645 79.557 14.7853C78.3472 13.4992 76.6305 12.8065 74.6191 12.8065V13.8065V14.8065C76.1565 14.8065 77.3185 15.3247 78.1002 16.1557C78.8885 16.9937 79.3765 18.2427 79.3765 19.8533H80.3765ZM74.6191 13.8065V12.8065C72.6077 12.8065 70.891 13.4992 69.6813 14.7854C68.4781 16.0645 67.8618 17.8388 67.8618 19.8533H68.8618H69.8618C69.8618 18.2427 70.3498 16.9936 71.1381 16.1557C71.9197 15.3247 73.0817 14.8065 74.6191 14.8065V13.8065ZM68.8618 19.8533H67.8618C67.8618 21.8578 68.4789 23.628 69.6816 24.9054C70.8907 26.1897 72.6068 26.8848 74.6191 26.8848V25.8848V24.8848C73.0825 24.8848 71.92 24.3653 71.1377 23.5344C70.349 22.6966 69.8618 21.4509 69.8618 19.8533H68.8618ZM74.6344 23.3716V22.3716C74.1745 22.3716 73.8602 22.185 73.6185 21.8172C73.3478 21.4052 73.1593 20.7341 73.1593 19.8304H72.1593H71.1593C71.1593 20.9676 71.3896 22.0672 71.9471 22.9155C72.5336 23.8081 73.4568 24.3716 74.6344 24.3716V23.3716ZM72.1593 19.8304H73.1593C73.1593 18.9267 73.3478 18.2531 73.6193 17.8387C73.862 17.4682 74.1766 17.2816 74.6344 17.2816V16.2816V15.2816C73.4548 15.2816 72.5318 15.8489 71.9463 16.7426C71.3896 17.5924 71.1593 18.6931 71.1593 19.8304H72.1593ZM74.6344 16.2816V17.2816C75.0697 17.2816 75.378 17.4615 75.6204 17.8351C75.8905 18.2512 76.0789 18.927 76.0789 19.8304H77.0789H78.0789C78.0789 18.6928 77.8485 17.5942 77.298 16.7462C76.72 15.8556 75.8059 15.2816 74.6344 15.2816V16.2816ZM77.0789 19.8304H76.0789C76.0789 20.7338 75.8905 21.4071 75.6212 21.8208C75.3797 22.1917 75.0718 22.3716 74.6344 22.3716V23.3716V24.3716C75.8039 24.3716 76.7182 23.8015 77.2973 22.912C77.8485 22.0653 78.0789 20.9679 78.0789 19.8304H77.0789ZM87.1126 30.2866V31.2866C88.9186 31.2866 90.584 30.8775 91.8239 29.9524C93.1019 28.999 93.8318 27.566 93.8318 25.7706H92.8318H91.8318C91.8318 26.968 91.3738 27.793 90.628 28.3494C89.8441 28.9342 88.6498 29.2866 87.1126 29.2866V30.2866ZM92.8318 25.7706H93.8318V13.9589H92.8318H91.8318V25.7706H92.8318ZM92.8318 13.9589V12.9589H89.6105V13.9589V14.9589H92.8318V13.9589ZM89.6105 13.9589H88.6105V15.9236H89.6105H90.6105V13.9589H89.6105ZM89.6105 15.9236V14.9236H89.4887V15.9236V16.9236H89.6105V15.9236ZM89.4887 15.9236L90.3985 15.5087C89.8585 14.3245 88.6146 12.8065 86.1454 12.8065V13.8065V14.8065C87.5907 14.8065 88.2506 15.6188 88.5788 16.3386L89.4887 15.9236ZM86.1454 13.8065V12.8065C84.5907 12.8065 83.1239 13.4176 82.0587 14.6473C81.0011 15.8682 80.4086 17.6156 80.4086 19.7848H81.4086H82.4086C82.4086 17.971 82.9012 16.7293 83.5704 15.9568C84.232 15.193 85.1337 14.8065 86.1454 14.8065V13.8065ZM81.4086 19.7848H80.4086C80.4086 21.9068 80.9856 23.5985 82.0538 24.7699C83.1285 25.9485 84.5996 26.4888 86.153 26.4888V25.4888V24.4888C85.0714 24.4888 84.1703 24.1228 83.5316 23.4223C82.8862 22.7145 82.4086 21.5542 82.4086 19.7848H81.4086ZM86.153 25.4888V26.4888C88.4114 26.4888 89.8158 25.3214 90.4037 23.9884L89.4887 23.5849L88.5737 23.1814C88.3085 23.7827 87.6262 24.4888 86.153 24.4888V25.4888ZM89.4887 23.5849V24.5849H89.6258V23.5849V22.5849H89.4887V23.5849ZM89.6258 23.5849H88.6258V25.7248H89.6258H90.6258V23.5849H89.6258ZM89.6258 25.7248H88.6258C88.6258 26.3013 88.4521 26.5458 88.2996 26.6714C88.1127 26.8255 87.7663 26.9562 87.1887 26.9562V27.9562V28.9562C88.02 28.9562 88.8922 28.7748 89.5716 28.2148C90.2854 27.6265 90.6258 26.7553 90.6258 25.7248H89.6258ZM87.1887 27.9562V26.9562C86.6175 26.9562 86.2715 26.8323 86.0693 26.7064C85.8722 26.5838 85.7626 26.4299 85.7029 26.2713L84.767 26.6235L83.8311 26.9756C84.2711 28.1451 85.4224 28.9562 87.1887 28.9562V27.9562ZM84.767 26.6235L84.6337 25.6324L81.6332 26.0361L81.7665 27.0272L81.8999 28.0182L84.9004 27.6145L84.767 26.6235ZM81.7665 27.0272L80.788 27.2333C81.3077 29.6998 83.6736 31.2866 87.1126 31.2866V30.2866V29.2866C84.2459 29.2866 83.0019 28.0402 82.745 26.821L81.7665 27.0272ZM87.1811 23.0518V22.0518C86.6851 22.0518 86.378 21.8728 86.1612 21.5768C85.9143 21.2394 85.7213 20.6542 85.7213 19.7695H84.7213H83.7213C83.7213 20.9029 83.9624 21.9589 84.5474 22.7581C85.1627 23.5986 86.0854 24.0518 87.1811 24.0518V23.0518ZM84.7213 19.7695H85.7213C85.7213 18.8999 85.9106 18.2778 86.1702 17.9035C86.4011 17.5709 86.7117 17.3882 87.1811 17.3882V16.3882V15.3882C86.0437 15.3882 85.1244 15.9024 84.527 16.7634C83.9585 17.5829 83.7213 18.6513 83.7213 19.7695H84.7213ZM87.1811 16.3882V17.3882C87.6468 17.3882 87.957 17.5656 88.1865 17.8891C88.4445 18.253 88.6409 18.8706 88.6409 19.7695H89.6409H90.6409C90.6409 18.6197 90.3956 17.5468 89.8179 16.7321C89.2116 15.8772 88.2919 15.3882 87.1811 15.3882V16.3882ZM89.6409 19.7695H88.6409C88.6409 20.6746 88.4414 21.2563 88.195 21.5865C87.9776 21.8778 87.6697 22.0518 87.1811 22.0518V23.0518V24.0518C88.2537 24.0518 89.1757 23.6165 89.7979 22.7826C90.3912 21.9876 90.6409 20.9282 90.6409 19.7695H89.6409ZM100.055 25.8848V26.8848C102.068 26.8848 103.784 26.1897 104.993 24.9054C106.196 23.628 106.813 21.8578 106.813 19.8533H105.813H104.813C104.813 21.4509 104.326 22.6966 103.537 23.5344C102.755 24.3653 101.592 24.8848 100.055 24.8848V25.8848ZM105.813 19.8533H106.813C106.813 17.8388 106.197 16.0645 104.993 14.7853C103.783 13.4992 102.067 12.8065 100.055 12.8065V13.8065V14.8065C101.593 14.8065 102.755 15.3247 103.536 16.1557C104.325 16.9937 104.813 18.2427 104.813 19.8533H105.813ZM100.055 13.8065V12.8065C98.044 12.8065 96.3273 13.4992 95.1175 14.7853C93.9143 16.0645 93.298 17.8388 93.298 19.8533H94.298H95.298C95.298 18.2428 95.786 16.9937 96.5743 16.1557C97.356 15.3247 98.518 14.8065 100.055 14.8065V13.8065ZM94.298 19.8533H93.298C93.298 21.8578 93.9151 23.628 95.1178 24.9054C96.327 26.1897 98.0431 26.8848 100.055 26.8848V25.8848V24.8848C98.5188 24.8848 97.3563 24.3653 96.574 23.5344C95.7851 22.6966 95.298 21.4509 95.298 19.8533H94.298ZM100.071 23.3716V22.3716C99.6108 22.3716 99.2965 22.185 99.0548 21.8172C98.784 21.4052 98.5955 20.7341 98.5955 19.8304H97.5955H96.5955C96.5955 20.9676 96.8259 22.0672 97.3834 22.9155C97.9699 23.8081 98.8931 24.3716 100.071 24.3716V23.3716ZM97.5955 19.8304H98.5955C98.5955 18.9267 98.784 18.2531 99.0555 17.8387C99.2983 17.4682 99.6129 17.2816 100.071 17.2816V16.2816V15.2816C98.8911 15.2816 97.9681 15.8489 97.3826 16.7426C96.8259 17.5924 96.5955 18.6931 96.5955 19.8304H97.5955ZM100.071 16.2816V17.2816C100.506 17.2816 100.814 17.4615 101.057 17.8351C101.327 18.2512 101.515 18.927 101.515 19.8304H102.515H103.515C103.515 18.6928 103.285 17.5942 102.734 16.7462C102.156 15.8556 101.242 15.2816 100.071 15.2816V16.2816ZM102.515 19.8304H101.515C101.515 20.7338 101.327 21.407 101.057 21.8208C100.816 22.1917 100.508 22.3716 100.071 22.3716V23.3716V24.3716C101.24 24.3716 102.154 23.8014 102.734 22.912C103.285 22.0653 103.515 20.9679 103.515 19.8304H102.515ZM107.279 25.6563V26.6563H110.523V25.6563V24.6563H107.279V25.6563ZM110.523 25.6563H111.523V13.9589H110.523H109.523V25.6563H110.523ZM110.523 13.9589V12.9589H107.279V13.9589V14.9589H110.523V13.9589ZM107.279 13.9589H106.279V25.6563H107.279H108.279V13.9589H107.279ZM108.909 12.4509V13.4509C110.363 13.4509 111.668 12.3275 111.668 10.806H110.668H109.668C109.668 11.0971 109.389 11.4509 108.909 11.4509V12.4509ZM110.668 10.806H111.668C111.668 9.28935 110.36 8.16865 108.909 8.16865V9.16865V10.1687C109.392 10.1687 109.668 10.5254 109.668 10.806H110.668ZM108.909 9.16865V8.16865C107.462 8.16865 106.157 9.29199 106.157 10.806H107.157H108.157C108.157 10.5228 108.436 10.1687 108.909 10.1687V9.16865ZM107.157 10.806H106.157C106.157 12.3249 107.459 13.4509 108.909 13.4509V12.4509V11.4509C108.439 11.4509 108.157 11.0997 108.157 10.806H107.157ZM112.479 30.0429V31.0429H115.723V30.0429V29.0429H112.479V30.0429ZM115.723 30.0429H116.723V23.7829H115.723H114.723V30.0429H115.723ZM115.723 23.7829V24.7829H115.822V23.7829V22.7829H115.723V23.7829ZM115.822 23.7829L114.913 24.2016C115.482 25.4357 116.768 26.8467 119.142 26.8467V25.8467V24.8467C117.738 24.8467 117.06 24.0797 116.73 23.3642L115.822 23.7829ZM119.142 25.8467V26.8467C120.756 26.8467 122.228 26.1996 123.28 24.9454C124.321 23.7048 124.887 21.9507 124.887 19.8227H123.887H122.887C122.887 21.6093 122.413 22.8672 121.748 23.66C121.094 24.4392 120.194 24.8467 119.142 24.8467V25.8467ZM123.887 19.8227H124.887C124.887 17.6368 124.295 15.8801 123.238 14.6538C122.172 13.418 120.705 12.8065 119.15 12.8065V13.8065V14.8065C120.161 14.8065 121.062 15.1927 121.723 15.9598C122.393 16.7364 122.887 17.9878 122.887 19.8227H123.887ZM119.15 13.8065V12.8065C116.675 12.8065 115.45 14.3304 114.912 15.5082L115.822 15.9236L116.731 16.3391C117.063 15.6129 117.709 14.8065 119.15 14.8065V13.8065ZM115.822 15.9236V14.9236H115.677V15.9236V16.9236H115.822V15.9236ZM115.677 15.9236H116.677V13.9589H115.677H114.677V15.9236H115.677ZM115.677 13.9589V12.9589H112.479V13.9589V14.9589H115.677V13.9589ZM112.479 13.9589H111.479V30.0429H112.479H113.479V13.9589H112.479ZM115.654 19.8076H116.654C116.654 18.8863 116.852 18.2587 117.111 17.8907C117.34 17.5647 117.649 17.3882 118.114 17.3882V16.3882V15.3882C117.002 15.3882 116.081 15.8781 115.475 16.7401C114.898 17.5601 114.654 18.6421 114.654 19.8076H115.654ZM118.114 16.3882V17.3882C118.583 17.3882 118.893 17.5702 119.123 17.9053C119.384 18.2836 119.574 18.9156 119.574 19.8076H120.574H121.574C121.574 18.6737 121.338 17.5961 120.771 16.7712C120.173 15.9031 119.252 15.3882 118.114 15.3882V16.3882ZM120.574 19.8076H119.574C119.574 20.7048 119.381 21.3491 119.115 21.7376C118.878 22.0852 118.566 22.265 118.114 22.265V23.265V24.265C119.253 24.265 120.172 23.7366 120.767 22.8657C121.334 22.0358 121.574 20.9513 121.574 19.8076H120.574ZM118.114 23.265V22.265C117.67 22.265 117.358 22.0902 117.12 21.7478C116.854 21.3664 116.654 20.7252 116.654 19.8076H115.654H114.654C114.654 20.9767 114.903 22.0642 115.478 22.8898C116.079 23.7544 116.997 24.265 118.114 24.265V23.265ZM135.139 17.2944L136.13 17.1611C135.951 15.8295 135.309 14.7038 134.231 13.9299C133.173 13.1708 131.777 12.8065 130.158 12.8065V13.8065V14.8065C131.495 14.8065 132.443 15.1086 133.065 15.5547C133.666 15.986 134.037 16.6042 134.148 17.4277L135.139 17.2944ZM130.158 13.8065V12.8065C128.522 12.8065 127.054 13.1835 125.967 13.9718C124.848 14.7832 124.196 15.9918 124.2 17.4497L125.2 17.4467L126.2 17.4438C126.198 16.6475 126.528 16.0359 127.141 15.5908C127.787 15.1226 128.801 14.8065 130.158 14.8065V13.8065ZM125.2 17.4467L124.2 17.4429C124.196 18.5491 124.551 19.539 125.325 20.3116C126.074 21.0596 127.131 21.5198 128.386 21.7706L128.582 20.79L128.778 19.8094C127.747 19.6033 127.11 19.2677 126.738 18.8962C126.39 18.5493 126.197 18.096 126.2 17.4506L125.2 17.4467ZM128.582 20.79L128.387 21.7708L130.412 22.1743L130.608 21.1936L130.803 20.2129L128.777 19.8093L128.582 20.79ZM130.608 21.1936L130.41 22.1739C130.858 22.2641 131.052 22.3686 131.118 22.4208C131.142 22.4396 131.133 22.4385 131.12 22.413C131.106 22.3866 131.108 22.3704 131.108 22.3836L132.108 22.3587L133.107 22.3338C133.092 21.7328 132.825 21.2166 132.351 20.846C131.927 20.5136 131.378 20.3288 130.805 20.2133L130.608 21.1936ZM132.108 22.3587L131.108 22.3377C131.109 22.2801 131.154 22.2965 131.041 22.3679C130.911 22.4499 130.64 22.5468 130.204 22.5468V23.5468V24.5468C130.904 24.5468 131.576 24.3962 132.111 24.0575C132.663 23.708 133.092 23.1304 133.107 22.3798L132.108 22.3587ZM130.204 23.5468V22.5468C129.759 22.5468 129.489 22.4507 129.339 22.35C129.21 22.2631 129.108 22.1347 129.059 21.8965L128.08 22.0999L127.101 22.3033C127.249 23.0169 127.631 23.612 128.224 24.0106C128.798 24.3954 129.492 24.5468 130.204 24.5468V23.5468ZM128.08 22.0999L128.027 21.1013L124.836 21.2688L124.889 22.2674L124.941 23.266L128.132 23.0985L128.08 22.0999ZM124.889 22.2674L123.898 22.4022C124.087 23.7935 124.788 24.9499 125.925 25.7377C127.04 26.5104 128.508 26.8848 130.196 26.8848V25.8848V24.8848C128.785 24.8848 127.751 24.57 127.064 24.0937C126.398 23.6326 125.995 22.9802 125.88 22.1326L124.889 22.2674ZM130.196 25.8848V26.8848C131.871 26.8848 133.393 26.4589 134.525 25.6304C135.677 24.7871 136.4 23.5374 136.405 22.0347L135.405 22.0313L134.405 22.0279C134.403 22.8327 134.036 23.5098 133.344 24.0163C132.631 24.5378 131.553 24.8848 130.196 24.8848V25.8848ZM135.405 22.0313L136.405 22.0267C136.4 20.9379 136.029 19.9876 135.245 19.256C134.495 18.5573 133.449 18.1342 132.225 17.8836L132.025 18.8632L131.824 19.8429C132.868 20.0568 133.509 20.3725 133.881 20.719C134.217 21.0326 134.403 21.4342 134.405 22.036L135.405 22.0313ZM132.025 18.8632L132.222 17.8829L130.104 17.4564L129.907 18.4367L129.709 19.417L131.827 19.8435L132.025 18.8632ZM129.907 18.4367L130.118 17.4594C129.628 17.353 129.44 17.2428 129.387 17.1995C129.372 17.1876 129.391 17.1993 129.408 17.2372C129.425 17.2741 129.422 17.2953 129.422 17.2779L128.422 17.2639L127.422 17.25C127.414 17.8247 127.639 18.3532 128.12 18.7468C128.539 19.09 129.097 19.2844 129.695 19.414L129.907 18.4367ZM128.422 17.2639L129.422 17.2527C129.423 17.2766 129.414 17.3043 129.404 17.3197C129.398 17.3289 129.409 17.3068 129.467 17.2703C129.593 17.192 129.845 17.1064 130.211 17.1064V16.1064V15.1064C129.572 15.1064 128.927 15.2494 128.407 15.5747C127.872 15.9094 127.414 16.4883 127.422 17.2752L128.422 17.2639ZM130.211 16.1064V17.1064C130.59 17.1064 130.819 17.208 130.95 17.3066C131.08 17.4052 131.159 17.5354 131.19 17.6842L132.168 17.4772L133.147 17.2702C132.878 15.9991 131.753 15.1064 130.211 15.1064V16.1064ZM132.168 17.4772L132.23 18.4753L135.2 18.2925L135.139 17.2944L135.078 16.2963L132.107 16.4791L132.168 17.4772ZM144.306 20.6758L143.306 20.6808C143.309 21.2237 143.131 21.5507 142.933 21.7427C142.726 21.9446 142.425 22.067 142.075 22.067V23.067V24.067C142.89 24.067 143.709 23.7783 144.327 23.1767C144.956 22.5653 145.311 21.6966 145.306 20.6707L144.306 20.6758ZM142.075 23.067V22.067C141.708 22.067 141.485 21.9458 141.345 21.7918C141.195 21.6272 141.052 21.3251 141.049 20.8223L140.049 20.828L139.049 20.8337C139.054 21.7094 139.31 22.5269 139.865 23.1371C140.43 23.758 141.216 24.067 142.075 24.067V23.067ZM140.049 20.828H141.049V13.9589H140.049H139.049V20.828H140.049ZM140.049 13.9589V12.9589H136.805V13.9589V14.9589H140.049V13.9589ZM136.805 13.9589H135.805V21.4069H136.805H137.805V13.9589H136.805ZM136.805 21.4069L135.805 21.4093C135.809 22.9686 136.27 24.3279 137.168 25.3084C138.073 26.2972 139.341 26.8087 140.765 26.8087V25.8087V24.8087C139.836 24.8087 139.127 24.4862 138.643 23.9576C138.151 23.4207 137.808 22.5791 137.805 21.4044L136.805 21.4069ZM140.765 25.8087V26.8087C142.909 26.8087 144.563 25.6739 145.248 23.8897L144.314 23.5315L143.38 23.1734C143.013 24.1309 142.14 24.8087 140.765 24.8087V25.8087ZM144.314 23.5315V24.5315H144.435V23.5315V22.5315H144.314V23.5315ZM144.435 23.5315H143.435V25.6563H144.435H145.435V23.5315H144.435ZM144.435 25.6563V26.6563H147.55V25.6563V24.6563H144.435V25.6563ZM147.55 25.6563H148.55V13.9589H147.55H146.55V25.6563H147.55ZM147.55 13.9589V12.9589H144.306V13.9589V14.9589H147.55V13.9589ZM144.306 13.9589H143.306V20.6758H144.306H145.306V13.9589H144.306ZM149.502 25.6563V26.6563H152.746V25.6563V24.6563H149.502V25.6563ZM152.746 25.6563H153.746V18.6348H152.746H151.746V25.6563H152.746ZM152.746 18.6348H153.746C153.746 17.7949 154.214 17.4796 154.65 17.4796V16.4796V15.4796C152.924 15.4796 151.746 16.8853 151.746 18.6348H152.746ZM154.65 16.4796V17.4796C154.947 17.4796 155.118 17.5758 155.218 17.68C155.321 17.7879 155.432 17.9944 155.432 18.3607H156.432H157.432C157.432 17.577 157.185 16.8429 156.663 16.2978C156.139 15.7489 155.419 15.4796 154.65 15.4796V16.4796ZM156.432 18.3607H155.432V25.6563H156.432H157.432V18.3607H156.432ZM156.432 25.6563V26.6563H159.578V25.6563V24.6563H156.432V25.6563ZM159.578 25.6563H160.578V18.5129H159.578H158.578V25.6563H159.578ZM159.578 18.5129H160.578C160.578 18.0929 160.697 17.843 160.816 17.7106C160.923 17.5913 161.107 17.4796 161.451 17.4796V16.4796V15.4796C160.615 15.4796 159.862 15.7791 159.328 16.3738C158.805 16.9553 158.578 17.722 158.578 18.5129H159.578ZM161.451 16.4796V17.4796C161.761 17.4796 161.938 17.573 162.037 17.672C162.133 17.7684 162.263 17.979 162.263 18.4292H163.263H164.263C164.263 17.577 164.005 16.8128 163.454 16.26C162.905 15.7098 162.177 15.4796 161.451 15.4796V16.4796ZM163.263 18.4292H162.263V25.6563H163.263H164.263V18.4292H163.263ZM163.263 25.6563V26.6563H166.5V25.6563V24.6563H163.263V25.6563ZM166.5 25.6563H167.5V17.7894H166.5H165.5V25.6563H166.5ZM166.5 17.7894H167.5C167.5 16.3232 167.061 15.0594 166.196 14.1557C165.329 13.2488 164.13 12.8065 162.814 12.8065V13.8065V14.8065C163.676 14.8065 164.32 15.0877 164.751 15.5382C165.185 15.992 165.5 16.7197 165.5 17.7894H166.5ZM162.814 13.8065V12.8065C160.757 12.8065 158.993 13.8783 158.346 15.6856L159.288 16.0226L160.229 16.3596C160.542 15.4864 161.444 14.8065 162.814 14.8065V13.8065ZM159.288 16.0226V15.0226H159.166V16.0226V17.0226H159.288V16.0226ZM159.166 16.0226L160.131 15.7573C159.622 13.9079 157.982 12.8065 155.99 12.8065V13.8065V14.8065C157.212 14.8065 157.965 15.4262 158.202 16.2879L159.166 16.0226ZM155.99 13.8065V12.8065C154.014 12.8065 152.425 13.8892 151.788 15.6891L152.731 16.0226L153.673 16.3561C154.012 15.3992 154.814 14.8065 155.99 14.8065V13.8065ZM152.731 16.0226V15.0226H152.594V16.0226V17.0226H152.731V16.0226ZM152.594 16.0226H153.594V13.9589H152.594H151.594V16.0226H152.594ZM152.594 13.9589V12.9589H149.502V13.9589V14.9589H152.594V13.9589ZM149.502 13.9589H148.502V25.6563H149.502H150.502V13.9589H149.502ZM17.4916 0.0651855V1.06519H27.6024V0.0651855V-0.934814H17.4916V0.0651855ZM27.6024 0.0651855L26.6608 -0.271729L22.6024 11.0699L23.5439 11.4068L24.4855 11.7437L28.5439 0.4021L27.6024 0.0651855ZM23.5439 11.4068L23.3708 10.4219C15.6807 11.7733 9.93729 19.161 9.93729 27.9105H10.9373H11.9373C11.9373 19.9852 17.1208 13.5508 23.717 12.3917L23.5439 11.4068ZM10.9373 27.9105H9.93729C9.93729 31.8691 11.1077 35.5344 13.0954 38.4926L13.9254 37.9348L14.7554 37.3771C12.9907 34.7507 11.9373 31.4742 11.9373 27.9105H10.9373ZM13.9254 37.9348V36.9348H0.5V37.9348V38.9348H13.9254V37.9348ZM0.5 37.9348L1.44153 38.2718L13.715 3.97288L12.7734 3.63597L11.8319 3.29905L-0.441535 37.5979L0.5 37.9348ZM12.7734 3.63597L13.715 3.97286C14.3636 2.16007 15.8906 1.06519 17.4916 1.06519V0.0651855V-0.934814C14.9368 -0.934814 12.7266 0.798606 11.8319 3.29907L12.7734 3.63597ZM27.6024 0.0651855L26.6608 -0.271755L23.8083 7.69911L24.7498 8.03605L25.6914 8.37299L28.5439 0.402126L27.6024 0.0651855ZM24.7498 8.03605L25.7441 7.92885L24.8847 -0.0420127L23.8904 0.0651855L22.8962 0.172384L23.7556 8.14325L24.7498 8.03605ZM23.8904 0.0651855V1.06519H27.6024V0.0651855V-0.934814H23.8904V0.0651855ZM34.0012 0.0651855V-0.934814H23.8904V0.0651855V1.06519H34.0012V0.0651855ZM23.8904 0.0651855L22.9489 0.402104L26.9903 11.6958L27.9318 11.3589L28.8733 11.022L24.832 -0.271733L23.8904 0.0651855ZM27.9318 11.3589L27.7803 12.3474C34.5048 13.3777 39.8294 19.8766 39.8294 27.9105H40.8294H41.8294C41.8294 19.0437 35.9294 11.5727 28.0832 10.3705L27.9318 11.3589ZM40.8294 27.9105H39.8294C39.8294 31.4742 38.776 34.7507 37.0113 37.3771L37.8413 37.9348L38.6713 38.4926C40.659 35.5344 41.8294 31.8691 41.8294 27.9105H40.8294ZM37.8413 37.9348V38.9348H50.9927V37.9348V36.9348H37.8413V37.9348ZM50.9927 37.9348L51.9343 37.5979L39.6609 3.29906L38.7194 3.63598L37.7778 3.97289L50.0512 38.2718L50.9927 37.9348ZM38.7194 3.63598L39.6609 3.29909C38.7662 0.798607 36.556 -0.934814 34.0012 -0.934814V0.0651855V1.06519C35.6022 1.06519 37.1292 2.16007 37.7778 3.97287L38.7194 3.63598ZM15.6884 36.8433L16.5068 36.2686C14.8981 33.9776 13.9303 31.077 13.9303 27.9104H12.9303H11.9303C11.9303 31.4852 13.0231 34.7878 14.87 37.418L15.6884 36.8433ZM12.9303 27.9104H13.9303C13.9303 20.3582 19.3838 14.4309 25.8835 14.4309V13.4309V12.4309C18.0756 12.4309 11.9303 19.4689 11.9303 27.9104H12.9303ZM25.8835 13.4309V14.4309C32.3834 14.4309 37.8369 20.3582 37.8369 27.9104H38.8369H39.8369C39.8369 19.4689 33.6916 12.4309 25.8835 12.4309V13.4309ZM38.8369 27.9104H37.8369C37.8369 31.077 36.8691 33.9776 35.2604 36.2686L36.0788 36.8433L36.8971 37.418C38.7441 34.7878 39.8369 31.4852 39.8369 27.9104H38.8369ZM36.0788 36.8433L36.6759 36.0412C33.6719 33.8048 29.9325 32.4795 25.8835 32.4795V33.4795V34.4795C29.4898 34.4795 32.8127 35.6585 35.4816 37.6454L36.0788 36.8433ZM25.8835 33.4795V32.4795C21.8346 32.4795 18.0952 33.8048 15.0912 36.0412L15.6884 36.8433L16.2856 37.6454C18.9545 35.6585 22.2773 34.4795 25.8835 34.4795V33.4795Z" fill="#808080" mask="url(#path-1-inside-1_642_135)"/>
</svg>
