<svg width="167" height="46" viewBox="0 0 167 46" fill="none" xmlns="http://www.w3.org/2000/svg">
<path d="M55.2318 29.6424V10.6984H52.1254V29.6424H55.2318Z" fill="#808080"/>
<path d="M57.1331 23.3277C57.1331 27.198 59.7303 29.9479 63.6769 29.9479C67.6236 29.9479 70.2207 27.198 70.2207 23.3277C70.2207 19.4575 67.6236 16.7075 63.6769 16.7075C59.7303 16.7075 57.1331 19.4575 57.1331 23.3277ZM60.265 23.3277C60.265 21.0616 61.6145 19.4829 63.6769 19.4829C65.7394 19.4829 67.0889 21.0616 67.0889 23.3277C67.0889 25.5684 65.7394 27.1725 63.6769 27.1725C61.6145 27.1725 60.265 25.5684 60.265 23.3277Z" fill="#808080"/>
<path d="M71.2656 23.0731C71.2656 26.7397 73.6336 29.3878 77.1728 29.3878C79.0061 29.3878 80.5848 28.6494 81.3741 27.4272V29.566C81.3741 31.6285 80.0755 33.0034 77.9112 33.0034C75.9761 33.0034 74.6521 32.0613 74.4738 30.4063H71.342C71.7494 33.6909 74.2701 35.8297 77.733 35.8297C81.807 35.8297 84.4041 33.1562 84.4041 29.0058V17.064H81.6542L81.476 18.77C80.7121 17.4459 79.1334 16.6566 77.2747 16.6566C73.6845 16.6566 71.2656 19.3811 71.2656 23.0731ZM74.4229 22.9967C74.4229 20.9088 75.7469 19.3811 77.7075 19.3811C79.8464 19.3811 81.2723 20.9343 81.2723 22.9967C81.2723 25.0846 79.8464 26.6888 77.7075 26.6888C75.7724 26.6888 74.4229 25.1101 74.4229 22.9967Z" fill="#808080"/>
<path d="M85.9414 23.3277C85.9414 27.198 88.5386 29.9479 92.4852 29.9479C96.4319 29.9479 99.029 27.198 99.029 23.3277C99.029 19.4575 96.4319 16.7075 92.4852 16.7075C88.5386 16.7075 85.9414 19.4575 85.9414 23.3277ZM89.0733 23.3277C89.0733 21.0616 90.4228 19.4829 92.4852 19.4829C94.5477 19.4829 95.8972 21.0616 95.8972 23.3277C95.8972 25.5684 94.5477 27.1725 92.4852 27.1725C90.4228 27.1725 89.0733 25.5684 89.0733 23.3277Z" fill="#808080"/>
<path d="M102.391 14.4923C103.409 14.4923 104.25 13.6775 104.25 12.6336C104.25 11.6151 103.409 10.8003 102.391 10.8003C101.347 10.8003 100.558 11.6151 100.558 12.6336C100.558 13.6775 101.347 14.4923 102.391 14.4923ZM100.838 29.6424H103.944V17.064H100.838V29.6424Z" fill="#808080"/>
<path d="M106.666 35.4733H109.696V27.911C110.485 29.2095 112.191 29.9734 114.075 29.9734C117.793 29.9734 120.008 27.1216 119.957 23.2004C119.881 19.2538 117.615 16.6821 114.05 16.6821C112.14 16.6821 110.409 17.5223 109.645 18.9737L109.467 17.064H106.666V35.4733ZM109.823 23.3532C109.823 21.087 111.198 19.5084 113.362 19.5084C115.527 19.5084 116.825 21.1125 116.825 23.3532C116.825 25.5939 115.527 27.1725 113.362 27.1725C111.198 27.1725 109.823 25.6193 109.823 23.3532Z" fill="#808080"/>
<path d="M120.745 25.874C120.847 28.3693 122.782 29.9734 125.787 29.9734C128.74 29.9734 130.752 28.3947 130.752 25.9504C130.752 24.1425 129.632 22.9203 127.569 22.4111L125.354 21.8764C124.412 21.6218 123.775 21.2907 123.775 20.476C123.775 19.6102 124.463 18.9991 125.583 18.9991C126.754 18.9991 127.518 19.6612 127.518 20.756H130.345C130.243 18.2607 128.384 16.6821 125.66 16.6821C122.961 16.6821 120.949 18.2607 120.949 20.6542C120.949 22.2838 121.891 23.6333 124.31 24.2698L126.5 24.83C127.315 25.0592 127.824 25.4411 127.824 26.1541C127.824 27.1471 126.882 27.6054 125.736 27.6054C124.361 27.6054 123.572 26.9688 123.572 25.874H120.745Z" fill="#808080"/>
<path d="M137.196 29.9734C138.902 29.9734 140.532 29.1841 141.27 28.0128L141.474 29.6424H144.377V17.064H141.27V23.6587C141.27 25.9249 140.404 27.198 138.367 27.198C136.789 27.198 135.694 26.4341 135.694 23.837V17.064H132.587V24.9319C132.587 27.9364 134.217 29.9734 137.196 29.9734Z" fill="#808080"/>
<path d="M150.224 29.6424V22.4111C150.224 20.3741 151.421 19.4065 152.898 19.4065C154.374 19.4065 155.342 20.3486 155.342 22.131V29.6424H158.372V22.4366C158.372 20.3741 159.543 19.4065 161.02 19.4065C162.522 19.4065 163.49 20.3486 163.49 22.131V29.6424H166.494V21.4181C166.494 18.5154 164.89 16.6821 161.835 16.6821C159.925 16.6821 158.423 17.5987 157.812 19.0755C157.124 17.5987 155.749 16.6821 153.661 16.6821C152.185 16.6821 150.861 17.3695 150.122 18.4899L149.969 17.064H147.118V29.6424H150.224Z" fill="#808080"/>
<path d="M142.777 40.8835C143.24 40.8835 143.641 40.4938 143.641 40.031C143.641 39.5561 143.24 39.1664 142.777 39.1664C142.302 39.1664 141.9 39.5561 141.9 40.031C141.9 40.4938 142.302 40.8835 142.777 40.8835Z" fill="#808080"/>
<path d="M144.535 37.7416C144.535 39.6048 145.68 40.8591 147.348 40.8591C148.785 40.8591 149.881 39.9945 150.112 38.7037H149.016C148.809 39.4221 148.176 39.8484 147.421 39.8484C146.349 39.8484 145.667 39.0203 145.667 37.7294C145.667 36.4143 146.386 35.6105 147.445 35.6105C148.176 35.6105 148.809 36.0002 149.004 36.7674H150.1C149.905 35.4644 148.882 34.5876 147.458 34.5876C145.728 34.5876 144.535 35.8663 144.535 37.7416Z" fill="#808080"/>
<path d="M150.544 37.7294C150.544 39.5196 151.762 40.8591 153.588 40.8591C155.415 40.8591 156.633 39.5196 156.633 37.7294C156.633 35.9393 155.415 34.5998 153.588 34.5998C151.762 34.5998 150.544 35.9393 150.544 37.7294ZM151.701 37.7294C151.701 36.5117 152.444 35.6227 153.588 35.6227C154.733 35.6227 155.476 36.5117 155.476 37.7294C155.476 38.9472 154.733 39.8362 153.588 39.8362C152.444 39.8362 151.701 38.9472 151.701 37.7294Z" fill="#808080"/>
<path d="M158.755 40.7251V37.1449C158.755 36.2072 159.34 35.5984 160.192 35.5984C161.008 35.5984 161.519 36.122 161.519 37.0597V40.7251H162.64V37.1571C162.64 36.2072 163.212 35.5984 164.077 35.5984C164.88 35.5984 165.392 36.122 165.392 37.0597V40.7251H166.5V36.8161C166.5 35.4401 165.696 34.5998 164.332 34.5998C163.407 34.5998 162.688 35.0504 162.396 35.781C162.092 35.0504 161.422 34.5998 160.448 34.5998C159.705 34.5998 159.047 34.9408 158.718 35.5253L158.633 34.7703H157.61V40.7251H158.755Z" fill="#808080"/>
<path fill-rule="evenodd" clip-rule="evenodd" d="M0.5 23.4819L0.502137 23.2601L0.506543 23.0381L0.513229 22.8162L0.522185 22.5942L0.533433 22.3722L0.54695 22.1503L0.562759 21.9284L0.580837 21.7066L0.601207 21.4848L0.623858 21.2631L0.648788 21.0417L0.675989 20.8202L0.705481 20.5991L0.737253 20.3781L0.771296 20.1573L0.807618 19.9369L0.846221 19.7166L0.887083 19.4968L0.930225 19.2771L0.975636 19.0578L1.02332 18.8388L1.07325 18.6203L1.12545 18.4022L1.1799 18.1845L1.23661 17.9672L1.29557 17.7504L1.35677 17.5341L1.42022 17.3183L1.4859 17.1031L1.55381 16.8884L1.62395 16.6743L1.69632 16.4608L1.7709 16.2479L1.84769 16.0357L1.92669 15.8241L2.00788 15.6132L2.09127 15.4031L2.17685 15.1936L2.26461 14.9851L2.35453 14.7771L2.44663 14.57L2.54088 14.3638L2.63729 14.1584L2.73584 13.9538L2.83652 13.7501L2.93934 13.5474L3.04426 13.3456L3.1513 13.1447L3.26044 12.9449L3.37166 12.7459L3.48498 12.548L3.60036 12.3511L3.71781 12.1553L3.8373 11.9606L3.95885 11.7669L4.08242 11.5744L4.20801 11.3831L4.33562 11.1928L4.46523 11.0039L4.59682 10.816L4.73039 10.6293L4.86591 10.444L5.0034 10.2598L5.14282 10.077L5.28418 9.89547L5.42745 9.71517L5.57262 9.53627L5.71968 9.35872L5.86861 9.18254L6.01941 9.00775L6.17207 8.83437L6.32655 8.66244L6.48285 8.49194L6.64097 8.32291L6.80087 8.15537L6.96256 7.98934L7.12601 7.82482L7.2912 7.66183L7.45813 7.50041L7.62678 7.34057L7.79714 7.18232L7.96918 7.02567L8.14288 6.87066L8.31825 6.71729L8.49526 6.56557L8.67388 6.41554L8.85411 6.26721L9.03594 6.12058L9.21933 5.97568L9.40429 5.83251L9.59072 5.69112L9.77881 5.55148L9.96833 5.41365L10.1593 5.27763L10.3517 5.14342L10.5457 5.01105L10.7409 4.88052L10.9377 4.75187L11.1358 4.62509L11.3354 4.50021L11.5363 4.37724L11.7385 4.25618L11.942 4.13707L12.1468 4.01991L12.3529 3.90471L12.5603 3.79149L12.7689 3.68026L12.9786 3.57103L13.1896 3.46382L13.4019 3.35863L13.6152 3.25549L13.8298 3.15439L14.0453 3.05537L14.2621 2.95842L14.4798 2.86356L14.6987 2.7708L14.9185 2.68015L15.1394 2.59162L15.3613 2.50521L15.5841 2.42097L15.8078 2.33886L16.0326 2.25893L16.2582 2.18116L16.4847 2.10557L16.712 2.03218L16.9401 1.96099L17.1692 1.892L17.399 1.82525L17.6295 1.76072L17.8609 1.69841L18.0929 1.63836L18.3256 1.58056L18.559 1.52503L18.7931 1.47174L19.0278 1.42075L19.2631 1.37203L19.499 1.3256L19.7355 1.28147L19.9725 1.23964L20.2101 1.20012L20.4481 1.16291L20.6865 1.12801L20.9254 1.09545L21.1648 1.06522L21.4046 1.03732L21.6447 1.01175L21.8851 0.988545L22.1259 0.967677L22.367 0.949156L22.6084 0.933004L23.9063 0.858887L23.9804 7.11229L24.0228 7.1118L24.202 7.11155L24.3812 7.11306L24.5605 7.11632L24.7399 7.12136L24.9193 7.12816L25.0987 7.1367L25.2782 7.14703L25.4576 7.15913L25.637 7.17298L25.8164 7.18861L25.9957 7.20601L26.1749 7.22519L26.3539 7.24612L26.5329 7.26883L26.7117 7.29331L26.8904 7.31954L27.0688 7.34756L27.2472 7.37734L27.4252 7.40888L27.6031 7.44219L27.7807 7.47727L27.9579 7.51411L28.135 7.5527L28.3117 7.59305L28.4881 7.63515L28.6642 7.67902L28.8399 7.72464L29.0152 7.772L29.1901 7.82111L29.3646 7.87195L29.5387 7.92454L29.7123 7.97886L29.8854 8.03492L30.0581 8.09271L30.2303 8.15222L30.4019 8.21345L30.573 8.27638L30.7435 8.34105L30.9134 8.4074L31.0828 8.47548L31.2515 8.54524L31.4196 8.61669L31.5871 8.68984L31.7539 8.76466L31.92 8.84116L32.0854 8.91932L32.2501 8.99915L32.414 9.08064L32.5772 9.16378L32.7396 9.24856L32.9013 9.33498L33.0621 9.42303L33.2221 9.5127L33.3813 9.60399L33.5396 9.69688L33.697 9.7914L33.8535 9.8875L34.0092 9.98514L34.1639 10.0844L34.3176 10.1852L34.4704 10.2876L34.6223 10.3915L34.7731 10.4969L34.923 10.604L35.0718 10.7125L35.2194 10.8225L35.3662 10.9341L35.5118 11.0471L35.6564 11.1617L35.7998 11.2776L35.9421 11.3951L36.0833 11.5141L36.2233 11.6344L36.3623 11.7562L36.5 11.8794L36.6364 12.0041L36.7716 12.1302L36.9057 12.2576L37.0386 12.3863L37.1701 12.5165L37.3004 12.6481L37.4293 12.781L37.5571 12.9152L37.6834 13.0507L37.8085 13.1875L37.9322 13.3257L38.0545 13.4651L38.1755 13.6058L38.2951 13.7477L38.4133 13.8908L38.5301 14.0353L38.6454 14.1809L38.7594 14.3277L38.8718 14.4757L38.9829 14.6249L39.0924 14.7753L39.2004 14.9268L39.3069 15.0795L39.412 15.2331L39.5155 15.388L39.6174 15.544L39.7179 15.7011L39.8166 15.8592L39.9139 16.0183L40.0096 16.1785L40.1037 16.3397L40.1961 16.5018L40.287 16.665L40.3762 16.8292L40.4638 16.9943L40.5497 17.1603L40.6339 17.3273L40.7165 17.4951L40.7975 17.6639L40.8767 17.8335L40.9542 18.004L41.03 18.1754L41.1041 18.3475L41.1764 18.5206L41.247 18.6943L41.3159 18.8688L41.383 19.0441L41.4483 19.2202L41.5118 19.3969L41.5736 19.5745L41.6336 19.7526L41.6918 19.9315L41.7482 20.111L41.8028 20.2911L41.8555 20.4719L41.9064 20.6532L41.9554 20.8352L42.0027 21.0177L42.048 21.2007L42.0916 21.3844L42.1332 21.5685L42.173 21.7532L42.2109 21.9382L42.2469 22.1238L42.281 22.3098L42.3134 22.4962L42.3437 22.683L42.3721 22.8702L42.3987 23.0578L42.4233 23.2457L42.446 23.434L42.4668 23.6225L42.4856 23.8114L42.5025 24.0005L42.5176 24.1899L42.5307 24.3795L42.5417 24.5694L42.5509 24.7594L42.5582 24.9497L42.5634 25.14L42.5669 25.3305L42.5682 25.5211L42.5676 25.7119L42.5651 25.9027L42.5606 26.0937L42.5541 26.2846L42.5457 26.4755L42.5354 26.6665L42.523 26.8575L42.5087 27.0484L42.4925 27.2393L42.4742 27.4302L42.4541 27.6209L42.4318 27.8114L42.4077 28.002L42.3817 28.1923L42.3535 28.3824L42.3235 28.5724L42.2915 28.7622L42.2576 28.9517L42.2217 29.141L42.1838 29.3301L42.144 29.5188L42.1021 29.7073L42.0584 29.8955L42.0128 30.0832L41.9651 30.2706L41.9155 30.4576L41.864 30.6443L41.8105 30.8305L41.7552 31.0162L41.6978 31.2017L41.6385 31.3864L41.5774 31.5709L41.5143 31.7547L41.4492 31.938L41.3823 32.1208L41.3135 32.3029L41.2427 32.4844L41.1701 32.6654L41.0956 32.8458L41.0192 33.0254L40.9409 33.2046L40.8608 33.3828L40.7787 33.5605L40.6948 33.7374L40.6091 33.9135L40.5215 34.089L40.4321 34.2636L40.3408 34.4375L40.2478 34.6104L40.1528 34.7827L40.0562 34.9539L39.9576 35.1244L39.8573 35.294L39.7553 35.4626L39.6514 35.6305L39.5457 35.7972L39.4383 35.963L39.3293 36.1279L39.2183 36.2917L39.1058 36.4546L38.9914 36.6164L38.8754 36.7772L38.7576 36.9369L38.6381 37.0955L38.517 37.2531L38.3943 37.4094L38.2698 37.5647L38.1437 37.7188L38.016 37.8717L37.8866 38.0235L37.7556 38.174L37.623 38.3234L37.4888 38.4715L37.3531 38.6184L37.2158 38.764L37.0769 38.9084L36.9365 39.0513L36.7944 39.193L36.651 39.3334L36.5061 39.4724L36.3596 39.6101L36.2117 39.7464L36.0622 39.8813L35.9113 40.0147L35.7591 40.1468L35.6054 40.2776L35.4503 40.4068L35.2937 40.5344L35.1359 40.6607L34.9766 40.7855L34.8159 40.9087L34.654 41.0304L34.4907 41.1506L34.3262 41.2693L34.1602 41.3863L33.993 41.5019L33.8247 41.6158L33.6551 41.728L33.4841 41.8387L33.3121 41.9479L33.1388 42.0553L32.9644 42.1611L32.7887 42.2652L32.6119 42.3677L32.4341 42.4684L32.255 42.5674L32.0749 42.6648L31.8937 42.7604L31.7115 42.8542L31.5282 42.9465L31.3438 43.0368L31.1585 43.1254L30.9722 43.2123L30.7849 43.2973L30.5967 43.3805L30.4075 43.4619L30.2174 43.5415L30.0265 43.6193L29.8346 43.6953L29.6419 43.7693L29.4482 43.8416L29.2538 43.9119L29.0585 43.9804L28.8626 44.047L28.6659 44.1117L28.4683 44.1745L28.27 44.2354L28.0711 44.2944L27.8715 44.3514L27.6711 44.4066L27.4701 44.4598L27.2684 44.5109L27.0663 44.5602L26.8635 44.6076L26.66 44.6529L26.4561 44.6963L26.2516 44.7377L26.0466 44.7771L25.8411 44.8145L25.6352 44.8498L25.4287 44.8833L25.2219 44.9147L25.0146 44.944L24.807 44.9714L24.599 44.9967L24.3905 45.02L24.1818 45.0412L23.9728 45.0605L23.7636 45.0777L23.554 45.0928L23.3442 45.1059L23.1341 45.117L22.9239 45.1259L22.7136 45.1328L22.5029 45.1377L22.2922 45.1404L22.0813 45.1412L21.8704 45.1399L21.6594 45.1364L21.4483 45.131L21.2372 45.1234L21.0261 45.1137L20.815 45.1021L20.6039 45.0883L20.3928 45.0725L20.1819 45.0545L19.971 45.0345L19.7603 45.0125L19.5497 44.9883L19.3392 44.9621L19.1289 44.9337L18.9189 44.9033L18.709 44.8709L18.4994 44.8363L18.2901 44.7998L18.081 44.761L17.8723 44.7203L17.6638 44.6776L17.4558 44.6326L17.248 44.5857L17.0408 44.5367L16.8339 44.4857L16.6274 44.4326L16.4214 44.3774L16.2159 44.3203L16.0109 44.2611L15.8063 44.1999L15.6024 44.1365L15.399 44.0712L15.1962 44.0039L14.9939 43.9345L14.7923 43.8631L14.5914 43.7898L14.3911 43.7144L14.1915 43.637L13.9927 43.5577L13.7945 43.4763L13.5972 43.3929L13.4005 43.3077L13.2047 43.2205L13.0096 43.1312L12.8155 43.04L12.6222 42.9469L12.4298 42.8518L12.2381 42.7548L12.0475 42.656L11.8579 42.5551L11.669 42.4525L11.4812 42.3479L11.2945 42.2414L11.1087 42.133L10.9239 42.0227L10.7403 41.9107L10.5576 41.7967L10.3761 41.681L10.1957 41.5633L10.0164 41.444L9.83825 41.3226L9.66135 41.1996L9.48555 41.0749L9.31097 40.9482L9.13763 40.8199L8.96553 40.6897L8.7947 40.5579L8.62514 40.4244L8.45688 40.289L8.28995 40.152L8.12434 40.0133L7.96009 39.8729L7.7972 39.7309L7.63572 39.5871L7.47564 39.4417L7.31699 39.2948L7.15976 39.1462L7.00401 38.996L6.84973 38.8441L6.69693 38.6908L6.54565 38.5359L6.3959 38.3794L6.24769 38.2214L6.10104 38.0619L5.95597 37.9008L5.81248 37.7383L5.6706 37.5743L5.53035 37.4088L5.39173 37.242L5.25478 37.0736L5.11949 36.9039L4.98589 36.7328L4.85398 36.5603L4.72379 36.3864L4.59533 36.2111L4.46861 36.0345L4.34365 35.8566L4.22047 35.6775L4.09907 35.4971L3.97947 35.3153L3.86169 35.1324L3.74573 34.9482L3.63161 34.7628L3.51936 34.5762L3.40896 34.3883L3.30046 34.1995L3.19384 34.0094L3.08912 33.8182L2.98633 33.6258L2.88545 33.4324L2.78654 33.238L2.68956 33.0425L2.59456 32.846L2.50154 32.6484L2.41049 32.4499L2.32145 32.2503L2.23442 32.0499L2.14941 31.8484L2.06643 31.6462L1.98548 31.4429L1.90659 31.2388L1.82978 31.0339L1.75502 30.828L1.68234 30.6215L1.61174 30.4141L1.54325 30.2059L1.47687 29.997L1.41259 29.7873L1.35045 29.577L1.29044 29.3658L1.23256 29.1541L1.17683 28.9417L1.12326 28.7287L1.07185 28.5151L1.02262 28.3009L0.975559 28.086L0.930679 27.8707L0.887991 27.6548L0.847494 27.4385L0.809201 27.2216L0.773122 27.0043L0.739246 26.7865L0.707596 26.5683L0.67817 26.3497L0.650981 26.1307L0.626016 25.9114L0.603289 25.6917L0.582808 25.4719L0.564575 25.2516L0.548589 25.0311L0.534861 24.8103L0.523392 24.5893L0.514181 24.3681L0.507229 24.1468L0.502546 23.9253L0.500144 23.7037L0.5 23.4819ZM21.9527 7.24328L21.9022 2.98088L21.8543 2.98551L21.6342 3.00894L21.4146 3.03449L21.1952 3.06221L20.9767 3.09199L20.7584 3.12394L20.5403 3.15802L20.3229 3.1942L20.1057 3.23254L19.8896 3.27287L19.6731 3.31546L19.4583 3.35996L19.243 3.40671L19.0289 3.45545L18.8151 3.50635L18.6022 3.5592L18.3898 3.61418L18.1781 3.6712L17.9669 3.73028L17.7568 3.79135L17.547 3.85452L17.3383 3.91965L17.1302 3.98685L16.9232 4.0559L16.7165 4.12714L16.5109 4.20029L16.3063 4.27537L16.1023 4.3525L15.8994 4.43151L15.6976 4.51242L15.4963 4.59542L15.296 4.6803L15.0968 4.76711L14.8986 4.85575L14.7014 4.94632L14.5054 5.03872L14.31 5.13315L14.116 5.22931L13.9231 5.32734L13.7312 5.42722L13.5405 5.52894L13.3511 5.63241L13.1624 5.73779L12.975 5.845L12.7892 5.95373L12.604 6.06459L12.4206 6.17693L12.2384 6.29101L12.057 6.40696L11.8771 6.52461L11.6986 6.64397L11.5216 6.76474L11.3454 6.88765L11.1709 7.01187L10.9978 7.13781L10.8259 7.26547L10.6555 7.39466L10.4867 7.52539L10.3188 7.65796L10.1529 7.79179L9.98815 7.92738L9.82497 8.06445L9.66323 8.20311L9.50315 8.3431L9.34426 8.48485L9.18719 8.62787L9.03146 8.77255L8.87754 8.91843L8.72502 9.0659L8.57419 9.2147L8.42491 9.36498L8.27707 9.5168L8.13117 9.66966L7.98691 9.82384L7.84393 9.97983L7.70294 10.1368L7.56367 10.2949L7.42583 10.4546L7.29 10.6154L7.15566 10.7776L7.02314 10.9409L6.89235 11.1055L6.76327 11.2712L6.63609 11.438L6.51057 11.6061L6.38678 11.7755L6.26498 11.9456L6.14481 12.1172L6.02655 12.2897L5.91013 12.4633L5.79544 12.638L5.6827 12.8137L5.57181 12.9902L5.46277 13.1679L5.35569 13.3465L5.25036 13.5262L5.14693 13.7068L5.04554 13.8882L4.94595 14.0705L4.84828 14.2538L4.75259 14.4379L4.65877 14.6229L4.56698 14.8086L4.47709 14.9951L4.38919 15.1824L4.30321 15.3706L4.21926 15.5594L4.13722 15.749L4.05718 15.9393L3.97918 16.1302L3.90314 16.3218L3.82909 16.5141L3.75707 16.707L3.68705 16.9005L3.6191 17.0944L3.55311 17.2892L3.48917 17.4843L3.42727 17.6801L3.36742 17.8761L3.30957 18.073L3.25381 18.27L3.20008 18.4676L3.14839 18.6656L3.09876 18.8641L3.0512 19.0628L3.0057 19.262L2.96226 19.4614L2.92089 19.6613L2.88159 19.8613L2.84435 20.0617L2.80919 20.2623L2.7761 20.4632L2.74509 20.6643L2.71615 20.8655L2.6893 21.067L2.66451 21.2686L2.6418 21.4703L2.62118 21.6722L2.60263 21.8742L2.58616 22.0761L2.57177 22.2782L2.55946 22.4804L2.54922 22.6824L2.54106 22.8846L2.53497 23.0866L2.53096 23.2887L2.52902 23.4906L2.52915 23.6925L2.53134 23.8942L2.5356 24.0959L2.54192 24.2974L2.5503 24.4987L2.56075 24.6998L2.57324 24.9006L2.58779 25.1013L2.60438 25.3017L2.62303 25.5019L2.6437 25.7018L2.66641 25.9013L2.69116 26.1006L2.71792 26.2994L2.74672 26.4979L2.77754 26.6961L2.81035 26.8937L2.84519 27.091L2.88202 27.2878L2.92085 27.4841L2.96166 27.68L3.00446 27.8753L3.04924 28.0701L3.096 28.2644L3.14471 28.4582L3.19539 28.6514L3.24799 28.8438L3.30257 29.0357L3.35908 29.227L3.41751 29.4177L3.47786 29.6076L3.54011 29.7968L3.60428 29.9854L3.67035 30.1731L3.7383 30.3602L3.80811 30.5464L3.87984 30.732L3.95338 30.9166L4.02878 31.1005L4.10604 31.2835L4.18512 31.4656L4.26603 31.6469L4.34875 31.8274L4.43328 32.0068L4.51958 32.1854L4.60768 32.363L4.69754 32.5397L4.78917 32.7154L4.88254 32.8901L4.97766 33.0638L5.0745 33.2363L5.17305 33.4079L5.2733 33.5785L5.37526 33.7479L5.47885 33.9163L5.58417 34.0836L5.6911 34.2496L5.79971 34.4147L5.90994 34.5785L6.02176 34.7412L6.13519 34.9027L6.25025 35.063L6.36684 35.2221L6.48504 35.3799L6.60474 35.5365L6.72604 35.6918L6.84879 35.8458L6.97309 35.9986L7.09892 36.1501L7.22615 36.3002L7.3549 36.449L7.48508 36.5965L7.61674 36.7426L7.74979 36.8873L7.88422 37.0307L8.02008 37.1726L8.1573 37.3132L8.29592 37.4524L8.43586 37.59L8.57716 37.7262L8.71973 37.861L8.86361 37.9944L9.00882 38.1262L9.15528 38.2565L9.3029 38.3853L9.45189 38.5126L9.60212 38.6383L9.75334 38.7626L9.90601 38.8853L10.0597 39.0063L10.2145 39.1259L10.3705 39.2439L10.5277 39.3603L10.6859 39.4749L10.8452 39.5881L11.0055 39.6996L11.1671 39.8095L11.3295 39.9177L11.4931 40.0243L11.6575 40.1292L11.823 40.2324L11.9895 40.334L12.1568 40.4339L12.3251 40.5321L12.4943 40.6285L12.6645 40.7233L12.8354 40.8163L13.0073 40.9076L13.1799 40.9971L13.3534 41.0851L13.5277 41.1711L13.7029 41.2554L13.8787 41.338L14.0553 41.4188L14.2325 41.4978L14.4106 41.575L14.5893 41.6504L14.7688 41.7242L14.9488 41.796L15.1294 41.866L15.3108 41.9343L15.4926 42.0007L15.675 42.0652L15.8581 42.128L16.0417 42.189L16.2258 42.2481L16.4102 42.3054L16.5954 42.3608L16.7808 42.4144L16.9668 42.4661L17.1532 42.516L17.34 42.5641L17.5272 42.6102L17.7146 42.6545L17.9026 42.697L18.0908 42.7376L18.2792 42.7763L18.4681 42.8132L18.6572 42.8481L18.8465 42.8812L19.036 42.9125L19.2258 42.9418L19.4157 42.9693L19.6059 42.9948L19.7961 43.0186L19.9865 43.0404L20.1771 43.0604L20.3677 43.0785L20.5584 43.0947L20.7492 43.1091L20.9399 43.1215L21.1308 43.1321L21.3215 43.1407L21.5123 43.1476L21.703 43.1526L21.8938 43.1556L22.0843 43.1568L22.2748 43.1561L22.4652 43.1536L22.6554 43.1493L22.8455 43.143L23.0355 43.1349L23.2252 43.1249L23.4147 43.1131L23.604 43.0995L23.7931 43.084L23.9818 43.0666L24.1702 43.0473L24.3584 43.0263L24.5462 43.0035L24.7337 42.9788L24.9208 42.9522L25.1076 42.9239L25.2939 42.8938L25.4799 42.8618L25.6654 42.828L25.8504 42.7925L26.035 42.7552L26.2191 42.716L26.4026 42.6751L26.5856 42.6324L26.7682 42.5879L26.95 42.5417L27.1314 42.4937L27.3121 42.444L27.4923 42.3925L27.6717 42.3392L27.8506 42.2843L28.0288 42.2278L28.2063 42.1693L28.3831 42.1093L28.559 42.0475L28.7345 41.984L28.9091 41.9189L29.0829 41.852L29.2559 41.7836L29.4281 41.7135L29.5995 41.6417L29.7701 41.5683L29.9398 41.4932L30.1085 41.4166L30.2765 41.3383L30.4436 41.2584L30.6096 41.177L30.7749 41.0939L30.9391 41.0093L31.1024 40.9232L31.2648 40.8354L31.426 40.7462L31.5863 40.6554L31.7455 40.5632L31.9039 40.4693L32.0609 40.3741L32.2172 40.2772L32.3721 40.179L32.526 40.0793L32.6788 39.9781L32.8306 39.8754L32.981 39.7715L33.1303 39.666L33.2785 39.5592L33.4256 39.451L33.5715 39.3413L33.7159 39.2305L33.8595 39.118L34.0016 39.0044L34.1424 38.8895L34.2822 38.7732L34.4206 38.6555L34.5575 38.5367L34.6934 38.4165L34.8278 38.2952L34.9609 38.1725L35.0928 38.0486L35.2231 37.9236L35.3523 37.7972L35.48 37.6697L35.6064 37.541L35.7313 37.4112L35.8548 37.2803L35.9768 37.1484L36.0977 37.0148L36.2168 36.8807L36.3347 36.7452L36.4509 36.6088L36.5658 36.4712L36.6792 36.3327L36.791 36.1931L36.9015 36.0524L37.0103 35.9109L37.1178 35.7682L37.2235 35.6247L37.3279 35.4801L37.4309 35.3345L37.5319 35.1884L37.6316 35.0411L37.7296 34.8931L37.8261 34.7439L37.9212 34.5939L38.0144 34.4434L38.1061 34.2919L38.1963 34.1393L38.2847 33.9864L38.3716 33.8324L38.4569 33.6776L38.5404 33.5224L38.6224 33.3661L38.7028 33.2091L38.7813 33.052L38.8583 32.8936L38.9337 32.7346L39.0073 32.5752L39.0793 32.4151L39.1496 32.2544L39.2181 32.0932L39.2851 31.9311L39.3503 31.7686L39.4137 31.606L39.4755 31.4421L39.5355 31.2783L39.594 31.1137L39.6507 30.9487L39.7056 30.7832L39.7586 30.6177L39.8102 30.451L39.8598 30.2845L39.9077 30.1174L39.954 29.9502L39.9985 29.7822L40.0411 29.6143L40.0822 29.4458L40.1214 29.277L40.1589 29.108L40.1947 28.9386L40.2285 28.7694L40.2608 28.5993L40.2912 28.4297L40.3199 28.2595L40.3468 28.0891L40.3719 27.9187L40.3954 27.748L40.417 27.5775L40.4369 27.4062L40.4549 27.2356L40.4713 27.0645L40.4858 26.8937L40.4987 26.7223L40.5097 26.5516L40.519 26.3803L40.5266 26.209L40.5323 26.038L40.5364 25.8674L40.5386 25.6962L40.5392 25.5252L40.538 25.3545L40.535 25.1839L40.5302 25.0133L40.5237 24.8434L40.5155 24.6728L40.5055 24.503L40.4938 24.3332L40.4804 24.1639L40.4652 23.9943L40.4484 23.8255L40.4298 23.6565L40.4094 23.4881L40.3874 23.3199L40.3637 23.1522L40.3381 22.9843L40.311 22.8173L40.2822 22.6508L40.2517 22.4842L40.2194 22.3181L40.1855 22.1527L40.1498 21.9872L40.1127 21.8229L40.0737 21.6584L40.0333 21.495L39.9909 21.3314L39.947 21.169L39.9015 21.0068L39.8544 20.8449L39.8056 20.6841L39.7553 20.5238L39.7031 20.3636L39.6497 20.2046L39.5943 20.0457L39.5376 19.8879L39.4792 19.7303L39.4193 19.5739L39.3576 19.4177L39.2945 19.2624L39.23 19.1081L39.1639 18.9544L39.0959 18.801L39.0269 18.649L38.956 18.4971L38.8838 18.3466L38.8101 18.1967L38.7347 18.0474L38.6581 17.8993L38.5798 17.7518L38.5 17.605L38.4192 17.4597L38.3365 17.3146L38.2526 17.1708L38.167 17.0277L38.0804 16.886L37.992 16.7446L37.9025 16.6046L37.8114 16.4652L37.7191 16.327L37.6255 16.1901L37.5303 16.0537L37.4339 15.9185L37.3362 15.7844L37.2372 15.6514L37.1369 15.5192L37.0352 15.3884L36.9324 15.2584L36.8282 15.1296L36.7228 15.002L36.6161 14.8753L36.5082 14.7499L36.3991 14.6256L36.289 14.5025L36.1775 14.3805L36.0646 14.2595L35.9511 14.1401L35.8357 14.0215L35.7198 13.9045L35.6026 13.7883L35.4844 13.6736L35.3646 13.5598L35.2443 13.4478L35.1226 13.3366L34.9998 13.2268L34.8764 13.1184L34.7517 13.0113L34.6256 12.9051L34.4989 12.8005L34.3712 12.6972L34.2425 12.5953L34.1127 12.4945L33.9823 12.3954L33.8504 12.2971L33.7182 12.2007L33.5848 12.1055L33.4504 12.0115L33.3154 11.9191L33.179 11.8277L33.0426 11.7383L32.9047 11.6498L32.7663 11.5629L32.6268 11.4773L32.4868 11.3932L32.346 11.3106L32.2046 11.2296L32.0619 11.1495L31.9192 11.0714L31.7753 10.9944L31.6308 10.9191L31.4858 10.8452L31.3399 10.7727L31.1934 10.7016L31.0464 10.6322L30.8986 10.5641L30.7505 10.4977L30.6016 10.4326L30.4474 10.3671L30.3023 10.3072L30.1514 10.2465L30.0008 10.1877L29.8489 10.1301L29.697 10.0743L29.5444 10.0198L29.3916 9.96698L29.238 9.91551L29.0843 9.8658L28.93 9.81753L28.7754 9.77081L28.6206 9.72576L28.4652 9.68209L28.3092 9.63994L28.1534 9.5995L27.9973 9.56059L27.8402 9.52312L27.6837 9.48737L27.5264 9.45305L27.3691 9.4204L27.2112 9.38922L27.0536 9.35968L26.8955 9.33168L26.7375 9.30529L26.5787 9.28039L26.4204 9.25713L26.2618 9.23541L26.1029 9.21525L25.9441 9.19667L25.7852 9.17969L25.6262 9.16426L25.4671 9.1504L25.3079 9.1381L25.1486 9.12736L24.9898 9.11821L24.8308 9.11063L24.6713 9.1046L24.5126 9.10015L24.3537 9.09725L24.1948 9.09592L24.0357 9.09614L24.0038 9.0965L24.054 13.3279L24.1442 13.3275L24.2603 13.3281L24.3765 13.3299L24.4927 13.3329L24.6091 13.337L24.7254 13.3423L24.8418 13.3487L24.9582 13.3562L25.0747 13.365L25.1912 13.3748L25.3076 13.3859L25.424 13.3981L25.5404 13.4115L25.6568 13.426L25.773 13.4416L25.8893 13.4585L26.0054 13.4765L26.1214 13.4956L26.2374 13.516L26.3532 13.5375L26.4689 13.5602L26.5845 13.584L26.7 13.6089L26.8152 13.635L26.9302 13.6623L27.0451 13.6908L27.1597 13.7204L27.2742 13.7511L27.3884 13.783L27.5025 13.8161L27.6163 13.8503L27.7297 13.8856L27.8429 13.9222L27.9558 13.9598L28.0685 13.9987L28.1808 14.0386L28.2928 14.0797L28.4044 14.1219L28.5158 14.1653L28.6267 14.2098L28.7373 14.2554L28.8474 14.3022L28.9573 14.35L29.0666 14.3991L29.1756 14.4491L29.2841 14.5004L29.3922 14.5527L29.4998 14.6062L29.607 14.6608L29.7137 14.7165L29.8199 14.7732L29.9256 14.8311L30.0308 14.89L30.1354 14.95L30.2396 15.0111L30.3432 15.0733L30.4461 15.1365L30.5485 15.2008L30.6504 15.2662L30.7517 15.3327L30.8523 15.4001L30.9524 15.4686L31.0518 15.5383L31.1506 15.6088L31.2486 15.6804L31.3461 15.7531L31.4429 15.8268L31.5389 15.9015L31.6343 15.9772L31.729 16.0538L31.823 16.1315L31.9162 16.2102L32.0087 16.2898L32.1005 16.3704L32.1915 16.452L32.2817 16.5346L32.3711 16.6181L32.4598 16.7025L32.5476 16.7879L32.6346 16.8743L32.7208 16.9615L32.8062 17.0497L32.8907 17.1387L32.9743 17.2287L33.0571 17.3196L33.1391 17.4114L33.2201 17.5039L33.3002 17.5975L33.3795 17.6918L33.4579 17.787L33.5353 17.8831L33.6118 17.98L33.6873 18.0777L33.7619 18.1763L33.8355 18.2757L33.9081 18.3758L33.9799 18.4767L34.0505 18.5785L34.1202 18.681L34.1889 18.7843L34.2565 18.8882L34.3232 18.993L34.3888 19.0985L34.4535 19.2047L34.517 19.3117L34.5794 19.4194L34.6409 19.5276L34.7012 19.6367L34.7604 19.7464L34.8187 19.8568L34.8758 19.9678L34.9317 20.0795L34.9866 20.1919L35.0404 20.3048L35.093 20.4183L35.1445 20.5325L35.1949 20.6472L35.2441 20.7626L35.2922 20.8785L35.3391 20.9949L35.3848 21.112L35.4293 21.2294L35.4727 21.3475L35.5149 21.4661L35.556 21.5852L35.5958 21.7048L35.6344 21.8249L35.6718 21.9453L35.708 22.0664L35.743 22.1878L35.7767 22.3097L35.8092 22.432L35.8405 22.5547L35.8705 22.6778L35.8993 22.8012L35.9268 22.9251L35.9531 23.0493L35.9781 23.1739L36.0018 23.2987L36.0243 23.424L36.0455 23.5496L36.0654 23.6753L36.084 23.8016L36.1014 23.9279L36.1175 24.0545L36.1323 24.1815L36.1457 24.3087L36.1579 24.436L36.1688 24.5637L36.1784 24.6914L36.1867 24.8194L36.1935 24.9475L36.1992 25.0758L36.2035 25.2043L36.2065 25.3328L36.2081 25.4616L36.2085 25.5904L36.2075 25.7193L36.2052 25.8483L36.2015 25.9774L36.1965 26.1066L36.1902 26.2356L36.1826 26.3648L36.1736 26.4941L36.1633 26.6233L36.1516 26.7525L36.1386 26.8817L36.1242 27.0108L36.1086 27.14L36.0916 27.269L36.0732 27.3979L36.0535 27.5268L36.0325 27.6556L36.0101 27.7842L35.9863 27.9127L35.9613 28.0411L35.9348 28.1693L35.907 28.2974L35.878 28.4253L35.8476 28.5529L35.8158 28.6804L35.7827 28.8077L35.7483 28.9346L35.7125 29.0614L35.6754 29.1878L35.637 29.314L35.5973 29.44L35.5561 29.5657L35.5137 29.6909L35.47 29.8159L35.425 29.9405L35.3786 30.0647L35.3309 30.1886L35.282 30.3122L35.2317 30.4353L35.1801 30.558L35.1272 30.6803L35.0731 30.8021L35.0176 30.9236L34.9608 31.0445L34.9028 31.1649L34.8435 31.2849L34.7828 31.4044L34.7209 31.5234L34.6578 31.6417L34.5934 31.7596L34.5277 31.877L34.4609 31.9938L34.3927 32.1099L34.3233 32.2256L34.2526 32.3405L34.1808 32.455L34.1076 32.5687L34.0333 32.6818L33.9577 32.7942L33.881 32.906L33.8031 33.0171L33.7239 33.1275L33.6435 33.2372L33.5621 33.3463L33.4794 33.4545L33.3954 33.562L33.3104 33.6688L33.2242 33.7748L33.1368 33.88L33.0484 33.9845L32.9587 34.0881L32.8679 34.191L32.7761 34.2929L32.6831 34.3941L32.589 34.4944L32.4939 34.5939L32.3975 34.6925L32.3002 34.7902L32.2017 34.887L32.1023 34.9829L32.0017 35.0779L31.9001 35.1719L31.7975 35.2651L31.6938 35.3572L31.5892 35.4485L31.4834 35.5388L31.3768 35.628L31.2691 35.7164L31.1605 35.8036L31.0508 35.8898L30.9402 35.9751L30.8287 36.0593L30.7163 36.1425L30.6028 36.2246L30.4885 36.3058L30.3733 36.3857L30.2572 36.4646L30.14 36.5425L30.0221 36.6192L29.9033 36.6948L29.7838 36.7693L29.6632 36.8426L29.542 36.9149L29.4198 36.9859L29.2969 37.0558L29.1731 37.1245L29.0486 37.1922L28.9233 37.2586L28.7972 37.3238L28.6703 37.3878L28.5428 37.4506L28.4145 37.5122L28.2854 37.5726L28.1556 37.6317L28.0252 37.6896L27.8941 37.7463L27.7623 37.8016L27.6299 37.8558L27.4968 37.9087L27.3631 37.9603L27.2288 38.0106L27.0939 38.0597L26.9583 38.1074L26.8222 38.1538L26.6856 38.1989L26.5483 38.2427L26.4106 38.2852L26.2723 38.3264L26.1335 38.3661L25.9942 38.4046L25.8544 38.4417L25.7141 38.4775L25.5734 38.5119L25.4323 38.545L25.2906 38.5767L25.1486 38.607L25.0062 38.6359L24.8634 38.6635L24.7202 38.6897L24.5766 38.7145L24.4327 38.7379L24.2886 38.7598L24.144 38.7804L23.9991 38.7995L23.8539 38.8174L23.7086 38.8336L23.5629 38.8486L23.417 38.8621L23.2709 38.8741L23.1245 38.8848L22.9779 38.894L22.8311 38.9017L22.6842 38.908L22.5371 38.9129L22.3899 38.9163L22.2425 38.9183L22.0949 38.9189L21.9474 38.918L21.7998 38.9156L21.652 38.9118L21.5042 38.9065L21.3564 38.8997L21.2085 38.8915L21.0607 38.8819L20.9128 38.8708L20.765 38.8582L20.6172 38.8441L20.4694 38.8286L20.3218 38.8117L20.1742 38.7933L20.0266 38.7734L19.8793 38.752L19.732 38.7292L19.5849 38.705L19.4379 38.6792L19.2911 38.6521L19.1445 38.6234L18.9982 38.5932L18.8519 38.5616L18.706 38.5286L18.5603 38.4941L18.4149 38.4581L18.2697 38.4207L18.1248 38.3818L17.9802 38.3415L17.8361 38.2998L17.6922 38.2566L17.5486 38.212L17.4054 38.1658L17.2627 38.1184L17.1203 38.0694L16.9783 38.0191L16.8369 37.9672L16.6957 37.914L16.5551 37.8593L16.415 37.8033L16.2752 37.7457L16.1361 37.6868L15.9975 37.6266L15.8594 37.5648L15.7218 37.5017L15.5849 37.4373L15.4485 37.3714L15.3127 37.3041L15.1774 37.2355L15.0429 37.1655L14.9089 37.0941L14.7756 37.0214L14.643 36.9473L14.511 36.8718L14.3797 36.7951L14.2492 36.7169L14.1194 36.6374L13.9903 36.5567L13.862 36.4746L13.7344 36.3912L13.6077 36.3064L13.4817 36.2204L13.3565 36.1332L13.2322 36.0446L13.1086 35.9547L12.986 35.8636L12.8641 35.7712L12.7432 35.6775L12.6232 35.5826L12.504 35.4864L12.3858 35.3891L12.2685 35.2905L12.1521 35.1907L12.0368 35.0897L11.9223 34.9875L11.8088 34.8841L11.6965 34.7796L11.585 34.6739L11.4745 34.5669L11.3651 34.4589L11.2568 34.3497L11.1496 34.2393L11.0433 34.128L10.9381 34.0154L10.8342 33.9018L10.7312 33.787L10.6294 33.6712L10.5287 33.5543L10.4291 33.4364L10.3308 33.3174L10.2335 33.1973L10.1375 33.0763L10.0426 32.9542L9.94896 32.831L9.85652 32.7069L9.76519 32.582L9.67518 32.4559L9.58651 32.3289L9.49894 32.2009L9.4127 32.0721L9.32775 31.9423L9.24406 31.8116L9.16166 31.6799L9.08058 31.5474L9.00081 31.414L8.92236 31.2798L8.84525 31.1447L8.76947 31.0088L8.69505 30.872L8.622 30.7345L8.5503 30.5961L8.47999 30.457L8.41108 30.317L8.34356 30.1763L8.27745 30.035L8.21275 29.8927L8.14947 29.7499L8.08763 29.6063L8.02723 29.4619L7.96827 29.317L7.91078 29.1714L7.85474 29.0251L7.80017 28.8782L7.74708 28.7307L7.69548 28.5825L7.64537 28.4338L7.59676 28.2845L7.54966 28.1346L7.50407 27.9842L7.46 27.8332L7.41745 27.6818L7.37643 27.5298L7.33697 27.3772L7.29904 27.2244L7.26265 27.0709L7.22783 26.917L7.19457 26.7627L7.16287 26.6081L7.13275 26.453L7.1042 26.2974L7.07723 26.1415L7.05186 25.9853L7.02807 25.8288L7.00587 25.6719L6.98528 25.5147L6.96629 25.3572L6.94891 25.1994L6.93314 25.0415L6.91898 24.8831L6.90644 24.7246L6.89553 24.566L6.88623 24.407L6.87857 24.2479L6.87253 24.0887L6.86814 23.9293L6.86537 23.7698L6.86424 23.61L6.86476 23.4503L6.86691 23.2904L6.87072 23.1306L6.87615 22.9706L6.88325 22.8105L6.892 22.6505L6.90238 22.4905L6.91443 22.3305L6.92811 22.1704L6.94345 22.0106L6.96046 21.8506L6.9791 21.6908L6.9994 21.5311L7.02136 21.3715L7.04496 21.2119L7.07022 21.0526L7.09712 20.8934L7.12569 20.7344L7.1559 20.5756L7.18776 20.4169L7.22126 20.2586L7.25642 20.1004L7.29322 19.9426L7.33165 19.7849L7.37173 19.6276L7.41345 19.4706L7.45681 19.3139L7.5018 19.1576L7.54843 19.0016L7.59667 18.8459L7.64656 18.6906L7.69806 18.5358L7.75117 18.3814L7.80592 18.2274L7.86227 18.0739L7.92022 17.9207L7.97978 17.7682L8.04095 17.6161L8.1037 17.4645L8.16806 17.3135L8.23399 17.163L8.30153 17.0131L8.37062 16.8637L8.44129 16.7149L8.51353 16.5668L8.58733 16.4194L8.66269 16.2725L8.7396 16.1263L8.81804 15.9807L8.89804 15.8359L8.97956 15.6918L9.0626 15.5483L9.14717 15.4057L9.23326 15.2638L9.32084 15.1227L9.40993 14.9823L9.50049 14.8427L9.5926 14.704L9.68603 14.566L9.78113 14.429L9.87755 14.2927L9.97542 14.1573L10.0748 14.0229L10.1756 13.8893L10.2779 13.7567L10.3815 13.6249L10.4865 13.4942L10.5929 13.3644L10.7008 13.2356L10.81 13.1077L10.9206 12.9808L11.0325 12.8551L11.1459 12.7303L11.2605 12.6065L11.3765 12.4839L11.4939 12.3622L11.6124 12.2418L11.7323 12.1223L11.8535 12.004L11.9761 11.8868L12.0999 11.7707L12.2248 11.6559L12.3512 11.5421L12.4787 11.4296L12.6073 11.3183L12.7373 11.2081L12.8685 11.0992L13.0008 10.9915L13.1343 10.885L13.269 10.7798L13.4049 10.6758L13.5418 10.5732L13.68 10.4718L13.8191 10.3717L13.9594 10.273L14.1009 10.1756L14.2433 10.0795L14.3868 9.98481L14.5315 9.89137L14.6771 9.79937L14.8238 9.70875L14.9715 9.61951L15.1201 9.53168L15.2697 9.44526L15.4204 9.36026L15.5719 9.27669L15.7244 9.19458L15.8778 9.11392L16.0321 9.03472L16.1873 8.95699L16.3434 8.88075L16.5004 8.806L16.6583 8.73276L16.8169 8.66102L16.9765 8.5908L17.1368 8.52212L17.2978 8.45498L17.4597 8.38937L17.6222 8.32533L17.7856 8.26284L17.9497 8.20194L18.1145 8.14261L18.28 8.08486L18.4462 8.02871L18.613 7.97417L18.7804 7.92124L18.9486 7.86992L19.1173 7.82022L19.2867 7.77216L19.4565 7.72573L19.627 7.68095L19.798 7.63782L19.9696 7.59635L20.1416 7.55655L20.3142 7.5184L20.4873 7.48194L20.6607 7.44715L20.8348 7.41406L21.0091 7.38266L21.1839 7.35294L21.3592 7.32493L21.5348 7.29863L21.7107 7.27404L21.8869 7.25116L21.9527 7.24328ZM22.0271 13.5193L21.9764 9.24141L21.8319 9.2616L21.6766 9.28488L21.5211 9.30971L21.3667 9.33596L21.2121 9.36381L21.0582 9.3931L20.9046 9.42388L20.7516 9.45611L20.599 9.48986L20.4466 9.52511L20.2947 9.56181L20.1435 9.59996L19.9924 9.63964L19.8473 9.67926L19.6926 9.72321L19.5433 9.76716L19.3946 9.81255L19.2467 9.85927L19.0991 9.90753L18.9521 9.95724L18.8058 10.0083L18.6602 10.0606L18.5152 10.1146L18.3708 10.1697L18.227 10.2264L18.0843 10.2843L17.9416 10.3437L17.8 10.4044L17.6591 10.4664L17.5191 10.5297L17.3795 10.5945L17.2407 10.6606L17.1031 10.7278L16.9657 10.7965L16.8298 10.8664L16.694 10.9378L16.5596 11.0101L16.4255 11.0841L16.2926 11.159L16.1607 11.2352L16.0294 11.3128L15.8991 11.3915L15.7694 11.4717L15.6411 11.5527L15.5134 11.6352L15.3868 11.7188L15.2612 11.8035L15.1364 11.8895L15.0124 11.9767L14.8899 12.0647L14.768 12.1543L14.6471 12.2449L14.5273 12.3365L14.4086 12.4292L14.2907 12.5232L14.1742 12.6181L14.0586 12.714L13.9439 12.8113L13.8306 12.9093L13.7182 13.0086L13.6068 13.1089L13.4966 13.2101L13.3877 13.3123L13.2795 13.4157L13.1729 13.5198L13.0673 13.6249L12.9627 13.7312L12.8594 13.8383L12.7572 13.9464L12.6563 14.0553L12.5565 14.1652L12.4579 14.276L12.3604 14.3878L12.2645 14.5002L12.1695 14.6136L12.0757 14.728L11.9833 14.843L11.8922 14.9588L11.8021 15.0757L11.7134 15.1932L11.6259 15.3115L11.5398 15.4306L11.4549 15.5505L11.3714 15.671L11.2892 15.7923L11.2081 15.9144L11.1284 16.0372L11.0501 16.1605L10.9732 16.2846L10.8975 16.4096L10.8231 16.5349L10.7501 16.661L10.6784 16.7878L10.6082 16.9149L10.5392 17.0429L10.4715 17.1715L10.4054 17.3004L10.3405 17.4301L10.2771 17.5603L10.215 17.6908L10.1543 17.8221L10.095 17.9537L10.0371 18.0859L9.98051 18.2185L9.92549 18.3516L9.8718 18.4851L9.81943 18.6192L9.76851 18.7536L9.71913 18.8883L9.67098 19.0236L9.62448 19.159L9.5792 19.2949L9.53547 19.4312L9.49307 19.5678L9.45222 19.7047L9.4127 19.8418L9.37473 19.9792L9.3381 20.117L9.30294 20.255L9.26923 20.3933L9.23697 20.5317L9.20613 20.6703L9.17674 20.8093L9.14883 20.9483L9.12234 21.0875L9.0973 21.227L9.07373 21.3665L9.05158 21.5062L9.03091 21.6458L9.01166 21.7857L8.99388 21.9256L8.97754 22.0657L8.96265 22.2057L8.94921 22.3459L8.93722 22.486L8.92668 22.6261L8.91758 22.7663L8.90992 22.9065L8.90371 23.0465L8.89895 23.1866L8.89562 23.3265L8.89373 23.4664L8.89328 23.6064L8.89427 23.7461L8.89669 23.8857L8.90054 24.0252L8.90581 24.1644L8.91252 24.3037L8.92065 24.4428L8.93019 24.5815L8.94116 24.7202L8.95354 24.8586L8.96733 24.9967L8.98253 25.1347L8.99913 25.2724L9.01714 25.4099L9.03653 25.5469L9.05734 25.6839L9.07951 25.8203L9.10308 25.9566L9.12803 26.0925L9.15435 26.2279L9.18205 26.3632L9.21109 26.4979L9.24153 26.6324L9.27328 26.7663L9.30642 26.8999L9.3409 27.0331L9.37672 27.1658L9.41381 27.298L9.45233 27.4298L9.49208 27.5611L9.53326 27.692L9.57566 27.8224L9.61939 27.9521L9.66445 28.0813L9.71072 28.2101L9.75832 28.3383L9.80726 28.4659L9.85741 28.5929L9.90877 28.7193L9.96147 28.8452L10.0154 28.9704L10.0706 29.0949L10.127 29.2189L10.1847 29.3422L10.2435 29.4648L10.3036 29.5868L10.3649 29.708L10.4273 29.8287L10.491 29.9486L10.5558 30.0677L10.6218 30.1862L10.689 30.3039L10.7573 30.4208L10.8269 30.5369L10.8975 30.6524L10.9692 30.7669L11.0421 30.8807L11.1161 30.9939L11.1911 31.1059L11.2674 31.2174L11.3445 31.3279L11.4229 31.4376L11.5023 31.5464L11.5828 31.6544L11.6642 31.7614L11.7468 31.8677L11.8303 31.973L11.9149 32.0774L12.0004 32.1809L12.087 32.2835L12.1746 32.385L12.2632 32.4859L12.3526 32.5855L12.4431 32.6844L12.5344 32.7821L12.6267 32.879L12.7199 32.9749L12.8141 33.0697L12.9091 33.1636L13.0051 33.2565L13.102 33.3484L13.1995 33.4392L13.2981 33.529L13.3974 33.6177L13.4976 33.7054L13.5987 33.7921L13.7006 33.8777L13.8032 33.9622L13.9066 34.0456L14.0108 34.128L14.1157 34.2092L14.2214 34.2895L14.3279 34.3685L14.435 34.4465L14.5428 34.5233L14.6514 34.599L14.7607 34.6736L14.8707 34.7471L14.9813 34.8194L15.0926 34.8906L15.2045 34.9607L15.317 35.0296L15.4301 35.0973L15.5439 35.1638L15.6582 35.2292L15.7732 35.2934L15.8885 35.3564L16.0047 35.4182L16.1212 35.4789L16.2383 35.5382L16.3559 35.5966L16.4742 35.6536L16.5927 35.7095L16.7118 35.7641L16.8314 35.8176L16.9513 35.8697L17.0718 35.9206L17.1927 35.9704L17.314 36.0189L17.4355 36.0662L17.5577 36.1123L17.6801 36.1571L17.8029 36.2007L17.926 36.243L18.0495 36.2842L18.1733 36.3239L18.2974 36.3626L18.4218 36.3999L18.5465 36.436L18.6714 36.4708L18.7966 36.5044L18.922 36.5368L19.0476 36.5678L19.1735 36.5976L19.2996 36.6262L19.4259 36.6535L19.5524 36.6795L19.6789 36.7042L19.8058 36.7277L19.9325 36.7499L20.0596 36.771L20.1867 36.7906L20.3139 36.809L20.4412 36.8262L20.5685 36.8421L20.6959 36.8568L20.8234 36.8702L20.9509 36.8822L21.0784 36.8931L21.206 36.9026L21.3335 36.911L21.4609 36.918L21.5883 36.9238L21.7159 36.9284L21.8432 36.9317L21.9704 36.9337L22.0976 36.9345L22.2247 36.934L22.3517 36.9323L22.4785 36.9294L22.6052 36.9252L22.7318 36.9197L22.8581 36.913L22.9843 36.9051L23.1103 36.8959L23.2362 36.8855L23.3617 36.8739L23.4872 36.8611L23.6124 36.847L23.7373 36.8317L23.8619 36.8152L23.9862 36.7976L24.1103 36.7787L24.2341 36.7586L24.3574 36.7373L24.4806 36.7147L24.6034 36.691L24.7259 36.6662L24.8481 36.6401L24.9696 36.6129L25.091 36.5845L25.2119 36.5549L25.3324 36.5242L25.4525 36.4923L25.5722 36.4592L25.6914 36.425L25.8102 36.3897L25.9285 36.3533L26.0462 36.3156L26.1637 36.2769L26.2805 36.237L26.3969 36.1961L26.5126 36.154L26.6279 36.1108L26.7426 36.0665L26.8567 36.0211L26.9704 35.9746L27.0834 35.9272L27.1958 35.8786L27.3077 35.829L27.4189 35.7783L27.5296 35.7264L27.6396 35.6736L27.7488 35.6199L27.8577 35.5649L27.9657 35.5091L28.0732 35.4521L28.1797 35.3943L28.2857 35.3354L28.3911 35.2755L28.4956 35.2147L28.5996 35.1528L28.7027 35.09L28.805 35.0262L28.9069 34.9615L29.0076 34.8959L29.1078 34.8293L29.2073 34.7616L29.3059 34.6932L29.4035 34.624L29.5007 34.5536L29.5968 34.4827L29.6922 34.4106L29.7869 34.3376L29.8803 34.264L29.9734 34.1893L30.0655 34.1138L30.1564 34.0376L30.247 33.9602L30.3363 33.8824L30.4248 33.8038L30.5127 33.724L30.5992 33.6438L30.6851 33.5627L30.7702 33.4808L30.8541 33.3982L30.9372 33.3147L31.0195 33.2306L31.1007 33.1457L31.1809 33.0601L31.2603 32.9737L31.3388 32.8867L31.416 32.7992L31.4926 32.7106L31.568 32.6216L31.6424 32.5319L31.716 32.4414L31.7884 32.3506L31.86 32.2588L31.9305 32.1666L32 32.0736L32.0684 31.9802L32.1357 31.8863L32.2023 31.7914L32.2676 31.6963L32.3319 31.6006L32.3953 31.5041L32.4573 31.4075L32.5187 31.3101L32.5788 31.2121L32.6379 31.1138L32.6958 31.0149L32.7529 30.9154L32.8086 30.8159L32.8635 30.7154L32.9172 30.6147L32.9697 30.5136L33.0214 30.4118L33.0716 30.3102L33.1211 30.2074L33.1692 30.105L33.2165 30.0015L33.2624 29.8982L33.3074 29.7941L33.3513 29.69L33.3939 29.5855L33.4355 29.4805L33.476 29.3753L33.5152 29.27L33.5536 29.164L33.5906 29.058L33.6266 28.9517L33.6615 28.8451L33.6952 28.7381L33.7279 28.6311L33.7593 28.5239L33.7897 28.4163L33.8188 28.3087L33.8469 28.2008L33.8738 28.0927L33.8996 27.9847L33.9243 27.8761L33.9478 27.7676L33.9702 27.659L33.9914 27.5504L34.0115 27.4416L34.0305 27.3323L34.0483 27.2235L34.065 27.1143L34.0805 27.005L34.0949 26.896L34.1082 26.7867L34.1203 26.6771L34.1313 26.5683L34.1413 26.4586L34.15 26.3493L34.1575 26.2403L34.1641 26.1309L34.1694 26.0218L34.1736 25.9127L34.1767 25.8033L34.1786 25.6946L34.1795 25.5855L34.1791 25.4766L34.1778 25.3678L34.1753 25.2594L34.1716 25.1508L34.1668 25.0425L34.161 24.9345L34.154 24.8262L34.1459 24.7183L34.1368 24.6109L34.1265 24.5032L34.1151 24.3962L34.1026 24.2889L34.0891 24.1822L34.0745 24.0756L34.0588 23.969L34.042 23.863L34.0241 23.7573L34.0052 23.6518L33.9852 23.5466L33.964 23.4413L33.9419 23.3368L33.9188 23.2326L33.8945 23.1286L33.8692 23.0247L33.8429 22.9218L33.8155 22.8185L33.7871 22.7161L33.7577 22.6138L33.7272 22.5122L33.6958 22.4106L33.6632 22.3096L33.6298 22.2092L33.5954 22.1091L33.5597 22.0091L33.5234 21.91L33.4859 21.8112L33.4475 21.713L33.4081 21.615L33.3677 21.5175L33.3264 21.4208L33.284 21.3243L33.2408 21.2285L33.1966 21.1333L33.1515 21.0383L33.1053 20.9439L33.0585 20.8504L33.0104 20.757L32.9617 20.6646L32.912 20.5727L32.8613 20.4809L32.8099 20.3903L32.7575 20.2999L32.7042 20.2104L32.65 20.1211L32.5952 20.0329L32.5391 19.9449L32.4826 19.8579L32.425 19.7714L32.3667 19.6856L32.3073 19.6003L32.2473 19.5158L32.1867 19.4321L32.1249 19.3487L32.0625 19.2664L31.9992 19.1846L31.9355 19.1036L31.8706 19.0232L31.805 18.9436L31.7387 18.8646L31.6718 18.7864L31.6041 18.7091L31.5355 18.6323L31.4664 18.5564L31.3964 18.4811L31.326 18.407L31.2545 18.3331L31.1827 18.2604L31.1098 18.1881L31.0365 18.1169L30.9627 18.0465L30.8881 17.9768L30.8127 17.9078L30.7367 17.8398L30.6602 17.7726L30.5829 17.706L30.5055 17.6407L30.427 17.5757L30.348 17.5118L30.2686 17.4488L30.1884 17.3864L30.1078 17.325L30.0269 17.2647L29.945 17.2049L29.8625 17.1459L29.78 17.0882L29.6964 17.031L29.613 16.9751L29.5287 16.9198L29.4439 16.8653L29.3586 16.8117L29.2731 16.7592L29.1867 16.7074L29.1003 16.6567L29.013 16.6067L28.9259 16.5579L28.838 16.5098L28.7497 16.4625L28.661 16.4163L28.5721 16.3711L28.4827 16.3266L28.3928 16.2831L28.3028 16.2406L28.2125 16.1991L28.1213 16.1582L28.0305 16.1186L27.9391 16.0798L27.8472 16.0419L27.7552 16.005L27.6631 15.9691L27.5706 15.9341L27.4774 15.8999L27.3846 15.8669L27.2911 15.8347L27.1975 15.8035L27.1039 15.7733L27.0099 15.7441L26.916 15.7157L26.8212 15.6883L26.7268 15.6619L26.6321 15.6364L26.5372 15.612L26.4422 15.5884L26.3468 15.5658L26.2516 15.5442L26.1564 15.5236L26.0607 15.5039L25.9649 15.4851L25.8696 15.4675L25.7736 15.4507L25.6778 15.4349L25.5816 15.4199L25.486 15.4061L25.3895 15.393L25.2938 15.3812L25.1977 15.3701L25.1016 15.36L25.0056 15.3509L24.9094 15.3427L24.8136 15.3355L24.7173 15.3294L24.6215 15.324L24.5258 15.3197L24.4295 15.3163L24.334 15.3139L24.2383 15.3124L24.1428 15.3119L24.0775 15.3121L24.1269 19.4917L24.1565 19.4918L24.2114 19.4926L24.2664 19.4939L24.3216 19.4957L24.3767 19.4982L24.4319 19.5012L24.4872 19.5047L24.5425 19.5089L24.5979 19.5137L24.6533 19.519L24.7088 19.5249L24.7643 19.5313L24.8198 19.5384L24.8753 19.546L24.9309 19.5542L24.9865 19.5631L25.042 19.5725L25.0975 19.5824L25.1531 19.5931L25.2085 19.6041L25.264 19.616L25.3195 19.6283L25.3749 19.6412L25.4302 19.6547L25.4855 19.6688L25.5408 19.6835L25.5959 19.6988L25.651 19.7146L25.706 19.7311L25.761 19.7482L25.8158 19.7659L25.8706 19.7842L25.9251 19.803L25.9797 19.8223L26.0341 19.8424L26.0883 19.863L26.1424 19.8841L26.1965 19.9059L26.2503 19.9283L26.304 19.9512L26.3575 19.9748L26.4109 19.9989L26.4642 20.0236L26.5172 20.049L26.57 20.0748L26.6227 20.1012L26.6751 20.1283L26.7273 20.1559L26.7793 20.1841L26.8311 20.2129L26.8827 20.2423L26.9341 20.2721L26.9851 20.3026L27.0361 20.3337L27.0867 20.3654L27.137 20.3976L27.1871 20.4302L27.2369 20.4636L27.2865 20.4975L27.3357 20.532L27.3847 20.567L27.4334 20.6025L27.4818 20.6386L27.5298 20.6752L27.5775 20.7124L27.625 20.7502L27.6721 20.7885L27.7188 20.8272L27.7653 20.8666L27.8113 20.9065L27.8571 20.9469L27.9024 20.9879L27.9474 21.0294L27.992 21.0713L28.0362 21.1138L28.0801 21.1569L28.1235 21.2004L28.1666 21.2445L28.2093 21.289L28.2515 21.334L28.2934 21.3796L28.3348 21.4257L28.3758 21.4722L28.4163 21.5192L28.4564 21.5667L28.4962 21.6147L28.5354 21.6632L28.5741 21.7121L28.6124 21.7615L28.6503 21.8114L28.6877 21.8617L28.7246 21.9125L28.7609 21.9636L28.7968 22.0153L28.8323 22.0675L28.8671 22.12L28.9016 22.173L28.9356 22.2264L28.9689 22.2802L29.0018 22.3345L29.0341 22.3892L29.0659 22.4442L29.0972 22.4997L29.1278 22.5556L29.1581 22.6118L29.1877 22.6685L29.2167 22.7255L29.2453 22.7828L29.2732 22.8406L29.3006 22.8989L29.3273 22.9573L29.3536 23.0162L29.3793 23.0754L29.4043 23.135L29.4287 23.1949L29.4526 23.2551L29.4758 23.3157L29.4985 23.3766L29.5205 23.4378L29.5419 23.4993L29.5627 23.5611L29.5829 23.6232L29.6023 23.6856L29.6213 23.7483L29.6395 23.8113L29.6571 23.8746L29.6742 23.9381L29.6906 24.0018L29.7062 24.0659L29.7212 24.1302L29.7356 24.1947L29.7494 24.2595L29.7624 24.3245L29.7747 24.3896L29.7864 24.4552L29.7975 24.5208L29.8079 24.5866L29.8175 24.6527L29.8265 24.7189L29.8348 24.7853L29.8425 24.8519L29.8494 24.9187L29.8556 24.9856L29.8612 25.0526L29.866 25.1199L29.8701 25.1873L29.8736 25.2548L29.8762 25.3224L29.8783 25.3902L29.8795 25.458L29.8802 25.526L29.88 25.594L29.8792 25.6622L29.8777 25.7305L29.8753 25.7988L29.8723 25.8672L29.8686 25.9356L29.8642 26.0042L29.859 26.0727L29.853 26.1413L29.8463 26.21L29.839 26.2786L29.8308 26.3472L29.822 26.416L29.8125 26.4847L29.8022 26.5534L29.7911 26.622L29.7792 26.6906L29.7667 26.7593L29.7534 26.8279L29.7395 26.8964L29.7247 26.965L29.7092 27.0334L29.693 27.1018L29.676 27.1701L29.6582 27.2384L29.6399 27.3065L29.6206 27.3746L29.6007 27.4424L29.58 27.5103L29.5586 27.5781L29.5365 27.6456L29.5135 27.7131L29.49 27.7804L29.4655 27.8475L29.4404 27.9146L29.4146 27.9814L29.388 28.0481L29.3607 28.1145L29.3327 28.1809L29.3039 28.2469L29.2743 28.3129L29.2441 28.3786L29.2131 28.444L29.1813 28.5093L29.149 28.5743L29.1158 28.6391L29.0819 28.7036L29.0473 28.7678L29.0119 28.8318L28.976 28.8956L28.9392 28.959L28.9017 29.0222L28.8636 29.085L28.8246 29.1476L28.7851 29.2099L28.7448 29.2717L28.7037 29.3334L28.6621 29.3946L28.6197 29.4556L28.5766 29.5162L28.5328 29.5764L28.4884 29.6363L28.4432 29.6958L28.3974 29.7549L28.3509 29.8137L28.3038 29.872L28.2559 29.9299L28.2074 29.9875L28.1583 30.0446L28.1084 30.1013L28.0579 30.1575L28.0067 30.2134L27.9549 30.2688L27.9026 30.3237L27.8494 30.3783L27.7957 30.4323L27.7414 30.4857L27.6865 30.5389L27.6308 30.5915L27.5745 30.6435L27.5177 30.6951L27.4603 30.7462L27.4023 30.7968L27.3436 30.8469L27.2844 30.8964L27.2245 30.9454L27.164 30.9939L27.103 31.0417L27.0415 31.0891L26.9794 31.1359L26.9166 31.1822L26.8534 31.2278L26.7895 31.2729L26.7252 31.3175L26.6602 31.3613L26.5948 31.4047L26.5288 31.4473L26.4623 31.4895L26.3952 31.531L26.3277 31.5719L26.2596 31.6121L26.191 31.6517L26.122 31.6907L26.0523 31.729L25.9824 31.7667L25.9118 31.8037L25.8409 31.8401L25.7694 31.8758L25.6975 31.9109L25.6251 31.9452L25.5523 31.9788L25.4791 32.0118L25.4054 32.044L25.3313 32.0757L25.2568 32.1066L25.1819 32.1367L25.1065 32.1661L25.0307 32.1949L24.9546 32.2229L24.8781 32.2503L24.8012 32.2769L24.724 32.3027L24.6464 32.3278L24.5684 32.352L24.4902 32.3756L24.4115 32.3985L24.3325 32.4206L24.2533 32.4419L24.1737 32.4624L24.0937 32.4822L24.0135 32.5011L23.933 32.5194L23.8522 32.5368L23.7711 32.5535L23.6898 32.5693L23.6082 32.5844L23.5264 32.5987L23.4442 32.6122L23.362 32.6248L23.2794 32.6367L23.1967 32.6477L23.1136 32.658L23.0305 32.6674L22.9471 32.6759L22.8636 32.6838L22.7799 32.6907L22.696 32.6969L22.6118 32.7021L22.5277 32.7066L22.4433 32.7103L22.3589 32.713L22.2742 32.7149L22.1895 32.716L22.1047 32.7164L22.0198 32.7158L21.9347 32.7144L21.8496 32.712L21.7645 32.7089L21.6792 32.705L21.5939 32.7001L21.5085 32.6944L21.4232 32.6879L21.3378 32.6805L21.2524 32.6722L21.167 32.6631L21.0815 32.653L20.9962 32.6422L20.9107 32.6304L20.8254 32.6179L20.74 32.6044L20.6548 32.5902L20.5695 32.575L20.4844 32.5589L20.3993 32.5421L20.3142 32.5243L20.2293 32.5057L20.1445 32.4861L20.0598 32.4657L19.9751 32.4446L19.8907 32.4224L19.8064 32.3994L19.7222 32.3756L19.6383 32.3509L19.5543 32.3253L19.4707 32.2989L19.3872 32.2717L19.3038 32.2435L19.2208 32.2145L19.1379 32.1846L19.0552 32.1539L18.9728 32.1223L18.8906 32.0899L18.8086 32.0566L18.7269 32.0225L18.6456 31.9875L18.5644 31.9516L18.4835 31.915L18.403 31.8774L18.3226 31.839L18.2427 31.7998L18.1631 31.7597L18.0838 31.7189L18.0049 31.6772L17.9263 31.6347L17.848 31.5913L17.7702 31.5471L17.6926 31.502L17.6156 31.4562L17.5388 31.4096L17.4626 31.3621L17.3866 31.3138L17.3111 31.2648L17.2361 31.2149L17.1614 31.1642L17.0874 31.1127L17.0136 31.0604L16.9404 31.0074L16.8676 30.9535L16.7953 30.8989L16.7236 30.8435L16.6523 30.7873L16.5816 30.7304L16.5113 30.6727L16.4415 30.6143L16.3723 30.555L16.3037 30.495L16.2356 30.4344L16.1681 30.3729L16.1011 30.3107L16.0347 30.2478L15.9689 30.1842L15.9036 30.1199L15.8391 30.0548L15.7751 29.989L15.7116 29.9225L15.6489 29.8554L15.5868 29.7874L15.5253 29.7189L15.4644 29.6497L15.4043 29.5797L15.3448 29.5092L15.2859 29.4379L15.2277 29.366L15.1703 29.2934L15.1135 29.2203L15.0574 29.1464L15.002 29.0719L14.9474 28.9969L14.8935 28.9211L14.8403 28.8448L14.7878 28.7678L14.7361 28.6903L14.6852 28.6122L14.635 28.5335L14.5855 28.4542L14.5369 28.3744L14.489 28.2939L14.442 28.213L14.3957 28.1314L14.3502 28.0493L14.3055 27.9667L14.2616 27.8836L14.2185 27.7999L14.1763 27.7158L14.1349 27.6312L14.0943 27.546L14.0546 27.4604L14.0157 27.3743L13.9778 27.2877L13.9406 27.2006L13.9043 27.1131L13.8688 27.0251L13.8343 26.9367L13.8006 26.8478L13.768 26.7586L13.7361 26.6689L13.7051 26.5789L13.675 26.4885L13.6459 26.3976L13.6176 26.3064L13.5903 26.2148L13.5638 26.1228L13.5384 26.0305L13.5139 25.9378L13.4902 25.8449L13.4676 25.7515L13.4459 25.658L13.4251 25.564L13.4053 25.4698L13.3865 25.3752L13.3686 25.2805L13.3516 25.1854L13.3357 25.0901L13.3207 24.9945L13.3067 24.8986L13.2936 24.8027L13.2816 24.7064L13.2706 24.6099L13.2605 24.5132L13.2514 24.4163L13.2433 24.3192L13.2363 24.222L13.2302 24.1246L13.2251 24.0271L13.221 23.9294L13.2179 23.8316L13.2159 23.7336L13.2149 23.6356L13.2148 23.5374L13.2158 23.4391L13.2179 23.3408L13.2209 23.2424L13.225 23.1439L13.2301 23.0453L13.2361 22.9468L13.2432 22.8482L13.2514 22.7495L13.2606 22.6509L13.2708 22.5522L13.2821 22.4536L13.2944 22.355L13.3077 22.2564L13.3221 22.1579L13.3374 22.0594L13.3539 21.961L13.3713 21.8625L13.3898 21.7642L13.4094 21.666L13.43 21.568L13.4516 21.47L13.4742 21.3721L13.4979 21.2745L13.5225 21.1768L13.5483 21.0794L13.5751 20.9822L13.6029 20.8851L13.6317 20.7881L13.6616 20.6915L13.6925 20.595L13.7244 20.4986L13.7573 20.4027L13.7913 20.3068L13.8263 20.2113L13.8623 20.1159L13.8994 20.021L13.9375 19.9262L13.9765 19.8316L14.0166 19.7375L14.0577 19.6437L14.0999 19.5501L14.1429 19.4569L14.1871 19.364L14.2322 19.2716L14.2783 19.1794L14.3254 19.0876L14.3735 18.9963L14.4226 18.9053L14.4727 18.8147L14.5238 18.7245L14.5758 18.6347L14.6288 18.5455L14.6828 18.4566L14.7378 18.3681L14.7938 18.2802L14.8507 18.1926L14.9085 18.1056L14.9673 18.0192L15.027 17.9331L15.0877 17.8477L15.1494 17.7628L15.2119 17.6783L15.2753 17.5944L15.3398 17.5111L15.4051 17.4283L15.4714 17.3462L15.5386 17.2645L15.6066 17.1836L15.6755 17.1031L15.7454 17.0233L15.8161 16.9441L15.8878 16.8655L15.9603 16.7877L16.0337 16.7104L16.108 16.6338L16.183 16.5579L16.259 16.4826L16.3358 16.408L16.4134 16.3341L16.4919 16.2609L16.5712 16.1884L16.6512 16.1167L16.7321 16.0456L16.8139 15.9754L16.8964 15.9058L16.9798 15.837L17.0638 15.7691L17.1487 15.7018L17.2343 15.6353L17.3207 15.5697L17.4079 15.5048L17.4958 15.4407L17.5844 15.3775L17.6738 15.3151L17.7639 15.2534L17.8548 15.1926L17.9462 15.1327L18.0385 15.0737L18.1314 15.0155L18.225 14.9582L18.3193 14.9017L18.4142 14.8461L18.5098 14.7914L18.606 14.7376L18.7029 14.6847L18.8004 14.6328L18.8985 14.5818L18.9973 14.5316L19.0966 14.4825L19.1965 14.4342L19.2971 14.3869L19.3981 14.3405L19.4998 14.2951L19.6019 14.2507L19.7048 14.2072L19.8081 14.1647L19.9118 14.1233L20.0162 14.0828L20.121 14.0433L20.2263 14.0048L20.3322 13.9673L20.4386 13.9308L20.5453 13.8954L20.6525 13.8609L20.7602 13.8275L20.8683 13.7952L20.9768 13.7639L21.0857 13.7336L21.1951 13.7044L21.3048 13.6762L21.415 13.6491L21.5255 13.623L21.6364 13.5981L21.7475 13.5742L21.8591 13.5514L21.9709 13.5297L22.0271 13.5193ZM23.4019 21.5569L22.1259 21.8618L22.051 15.541L21.9909 15.5545L21.9003 15.5759L21.8099 15.5981L21.7201 15.6212L21.6304 15.6451L21.5413 15.6699L21.4522 15.6957L21.3639 15.722L21.2755 15.7495L21.1881 15.7775L21.1006 15.8066L21.0136 15.8365L20.927 15.8672L20.8407 15.8986L20.7553 15.9308L20.6699 15.964L20.585 15.9979L20.5007 16.0326L20.4164 16.0682L20.3333 16.1043L20.2501 16.1415L20.1678 16.1792L20.0855 16.218L20.004 16.2573L19.9228 16.2975L19.8424 16.3383L19.7624 16.3799L19.6829 16.4223L19.6039 16.4654L19.5255 16.5093L19.4475 16.5539L19.3705 16.599L19.2933 16.6452L19.2171 16.6918L19.1416 16.7392L19.0666 16.7872L18.992 16.8361L18.9181 16.8855L18.8448 16.9357L18.7721 16.9864L18.7001 17.0378L18.6285 17.0899L18.5577 17.1427L18.4875 17.1961L18.4178 17.2501L18.349 17.3046L18.2808 17.3598L18.213 17.4157L18.1459 17.4723L18.0797 17.5292L18.0141 17.5869L17.9491 17.645L17.8848 17.7038L17.8211 17.7632L17.7583 17.8231L17.696 17.8834L17.6344 17.9446L17.5736 18.006L17.5135 18.0681L17.4541 18.1305L17.3953 18.1939L17.3374 18.2573L17.2801 18.3214L17.2235 18.386L17.1679 18.4509L17.1127 18.5166L17.0586 18.5823L17.0049 18.649L16.9522 18.7157L16.9001 18.7831L16.8488 18.851L16.7983 18.9191L16.7485 18.9876L16.6996 19.0566L16.6513 19.1261L16.6038 19.1959L16.5572 19.2662L16.5114 19.3366L16.4663 19.4074L16.4219 19.4788L16.3785 19.5503L16.3357 19.6225L16.2938 19.6946L16.2527 19.7673L16.2123 19.8403L16.1728 19.9135L16.1341 19.987L16.0962 20.0608L16.059 20.1351L16.0228 20.2093L15.9873 20.2841L15.9526 20.3589L15.9189 20.4341L15.8858 20.5095L15.8536 20.5852L15.8222 20.6609L15.7917 20.7371L15.762 20.8134L15.733 20.8899L15.705 20.9664L15.6778 21.0433L15.6513 21.1204L15.6257 21.1975L15.6009 21.2748L15.577 21.3524L15.5539 21.43L15.5317 21.5076L15.5103 21.5856L15.4896 21.6636L15.4699 21.7417L15.4509 21.8198L15.4328 21.8981L15.4155 21.9765L15.3991 22.0549L15.3835 22.1333L15.3687 22.2118L15.3547 22.2905L15.3417 22.369L15.3294 22.4476L15.3179 22.5264L15.3072 22.6049L15.2975 22.6838L15.2885 22.7622L15.2803 22.841L15.273 22.9198L15.2665 22.9983L15.2608 23.0769L15.256 23.1555L15.2519 23.2339L15.2487 23.3122L15.2462 23.3905L15.2447 23.4689L15.2438 23.547L15.2439 23.6251L15.2447 23.703L15.2463 23.781L15.2488 23.8587L15.252 23.9363L15.256 24.0138L15.2608 24.091L15.2665 24.1682L15.2729 24.2453L15.2801 24.3221L15.2881 24.3989L15.2968 24.4752L15.3063 24.5517L15.3166 24.6276L15.3278 24.7037L15.3397 24.7793L15.3523 24.8548L15.3657 24.9302L15.3799 25.0051L15.3948 25.08L15.4104 25.1544L15.4269 25.2288L15.4441 25.3027L15.462 25.3766L15.4806 25.4499L15.5001 25.5232L15.5201 25.596L15.5409 25.6687L15.5625 25.7409L15.5848 25.813L15.6078 25.8846L15.6315 25.9558L15.656 26.027L15.6811 26.0976L15.7069 26.1678L15.7333 26.2379L15.7606 26.3075L15.7885 26.3767L15.817 26.4455L15.8461 26.514L15.8761 26.5822L15.9067 26.6499L15.9379 26.7172L15.9698 26.7841L16.0022 26.8505L16.0356 26.9168L16.0692 26.9824L16.1036 27.0476L16.1387 27.1124L16.1745 27.1768L16.2108 27.2407L16.2477 27.3043L16.2852 27.3672L16.3234 27.4298L16.362 27.4919L16.4013 27.5535L16.4413 27.6147L16.4817 27.6754L16.5228 27.7357L16.5643 27.7952L16.6065 27.8545L16.6492 27.9132L16.6924 27.9713L16.7363 28.0291L16.7806 28.0862L16.8254 28.1428L16.8708 28.1989L16.9168 28.2546L16.9631 28.3095L17.0101 28.3641L17.0575 28.4181L17.1053 28.4715L17.1539 28.5244L17.2026 28.5765L17.252 28.6284L17.3018 28.6796L17.352 28.7302L17.4028 28.7802L17.4539 28.8297L17.5055 28.8786L17.5575 28.9269L17.61 28.9746L17.6629 29.0218L17.7162 29.0683L17.7699 29.1142L17.8239 29.1596L17.8784 29.2043L17.9333 29.2485L17.9886 29.292L18.0441 29.3349L18.1001 29.3771L18.1565 29.4189L18.2131 29.4599L18.2702 29.5004L18.3275 29.5402L18.3852 29.5794L18.4432 29.6179L18.5014 29.6558L18.56 29.6931L18.6191 29.7298L18.6782 29.7657L18.7377 29.8011L18.7976 29.8359L18.8575 29.8699L18.9177 29.9033L18.9785 29.9362L19.0392 29.9683L19.1002 29.9997L19.1615 30.0305L19.2231 30.0607L19.2847 30.0902L19.3468 30.1191L19.4089 30.1473L19.4711 30.1748L19.5338 30.2017L19.5965 30.2279L19.6593 30.2535L19.7224 30.2784L19.7856 30.3025L19.8492 30.3261L19.9125 30.349L19.9764 30.3713L20.04 30.3928L20.1039 30.4137L20.168 30.4339L20.2322 30.4535L20.2964 30.4724L20.3607 30.4906L20.4253 30.5081L20.4898 30.525L20.5544 30.5412L20.619 30.5568L20.6837 30.5717L20.7484 30.5858L20.8133 30.5994L20.8782 30.6123L20.943 30.6246L21.0079 30.6361L21.0729 30.647L21.1379 30.6572L21.2029 30.6669L21.2676 30.6757L21.3326 30.6839L21.3975 30.6915L21.4625 30.6985L21.5273 30.7047L21.5922 30.7104L21.657 30.7154L21.7216 30.7197L21.7864 30.7233L21.8509 30.7263L21.9154 30.7287L21.98 30.7304L22.0442 30.7315L22.1084 30.732L22.1726 30.7317L22.2366 30.731L22.3007 30.7294L22.3646 30.7273L22.4282 30.7246L22.4917 30.7212L22.5554 30.7172L22.6185 30.7126L22.6817 30.7074L22.7446 30.7015L22.8074 30.6951L22.8701 30.6879L22.9324 30.6803L22.9949 30.672L23.0569 30.663L23.1186 30.6535L23.1805 30.6434L23.242 30.6327L23.3032 30.6214L23.3643 30.6094L23.4252 30.5969L23.4856 30.5838L23.5458 30.5702L23.6061 30.5559L23.666 30.5411L23.7255 30.5258L23.7849 30.5099L23.8439 30.4934L23.9029 30.4762L23.9613 30.4586L24.0193 30.4405L24.0776 30.4216L24.1351 30.4024L24.1925 30.3827L24.2495 30.3623L24.3062 30.3414L24.3627 30.3199L24.4189 30.298L24.4746 30.2755L24.53 30.2526L24.5851 30.229L24.6401 30.205L24.6943 30.1805L24.7486 30.1555L24.8022 30.13L24.8555 30.104L24.9086 30.0776L24.9611 30.0507L25.0135 30.0232L25.0654 29.9952L25.1169 29.9669L25.1679 29.9381L25.2187 29.9087L25.2691 29.879L25.3189 29.8487L25.3684 29.8181L25.4175 29.787L25.4663 29.7555L25.5146 29.7235L25.5625 29.6912L25.61 29.6583L25.657 29.6251L25.7035 29.5916L25.7497 29.5575L25.7954 29.5231L25.8407 29.4882L25.8855 29.453L25.93 29.4173L25.9738 29.3815L26.0173 29.3451L26.0603 29.3084L26.1028 29.2713L26.145 29.2339L26.1866 29.196L26.2278 29.1579L26.2683 29.1195L26.3086 29.0807L26.3484 29.0415L26.3877 29.0021L26.4264 28.9623L26.4646 28.9221L26.5024 28.8818L26.5398 28.841L26.5764 28.8001L26.6128 28.7587L26.6486 28.7171L26.6838 28.6754L26.7188 28.6331L26.7529 28.5908L26.7868 28.5481L26.8201 28.5052L26.8527 28.462L26.8851 28.4185L26.9167 28.375L26.9479 28.331L26.9787 28.2868L27.0088 28.2426L27.0385 28.1979L27.0677 28.1532L27.0962 28.1082L27.1243 28.0631L27.1519 28.0177L27.1789 27.9721L27.2054 27.9263L27.2313 27.8804L27.2568 27.8343L27.2817 27.788L27.3061 27.7417L27.3299 27.6951L27.3532 27.6484L27.376 27.6015L27.3983 27.5544L27.42 27.5073L27.4411 27.46L27.4617 27.4128L27.4819 27.3652L27.5014 27.3177L27.5205 27.2697L27.5389 27.2222L27.5569 27.174L27.5742 27.1265L27.5911 27.0782L27.6075 27.03L27.6232 26.9819L27.6385 26.9336L27.6532 26.8855L27.6675 26.8368L27.681 26.7887L27.6943 26.7399L27.7068 26.6919L27.7189 26.6431L27.7304 26.5944L27.7414 26.5461L27.7518 26.4978L27.7617 26.4489L27.7712 26.4005L27.78 26.3517L27.7883 26.3034L27.7962 26.2549L27.8035 26.2063L27.8102 26.1577L27.8164 26.1092L27.8222 26.0609L27.8274 26.0128L27.832 25.9642L27.8362 25.916L27.8399 25.8678L27.843 25.8196L27.8457 25.7716L27.8478 25.7236L27.8493 25.6759L27.8504 25.6279L27.8511 25.5799L27.8512 25.5324L27.8507 25.4849L27.8499 25.4376L27.8484 25.3903L27.8465 25.3428L27.8441 25.2962L27.8412 25.2486L27.8379 25.2022L27.834 25.1556L27.8297 25.1087L27.8248 25.0623L27.8196 25.0163L27.8138 24.9697L27.8076 24.9241L27.8008 24.8782L27.7937 24.8329L27.786 24.7872L27.7779 24.7418L27.7694 24.6968L27.7604 24.652L27.7509 24.607L27.7409 24.5627L27.7306 24.5183L27.7198 24.4742L27.7086 24.4305L27.6968 24.3864L27.6848 24.3432L27.6722 24.2996L27.6592 24.2568L27.6458 24.2139L27.632 24.1714L27.6177 24.129L27.603 24.0867L27.588 24.0451L27.5725 24.0036L27.5566 23.962L27.5403 23.921L27.5236 23.8798L27.5067 23.8396L27.4891 23.799L27.4714 23.759L27.4531 23.7194L27.4345 23.6798L27.4156 23.6406L27.3962 23.6016L27.3765 23.5629L27.3564 23.5246L27.336 23.4865L27.3153 23.4487L27.2941 23.4112L27.2725 23.374L27.2508 23.3371L27.2287 23.3006L27.2061 23.2642L27.1833 23.2284L27.1602 23.1928L27.1367 23.1575L27.1129 23.1224L27.0889 23.0878L27.0644 23.0534L27.0397 23.0194L27.0147 22.9858L26.9893 22.9524L26.9639 22.9194L26.9379 22.8867L26.9117 22.8545L26.8853 22.8225L26.8586 22.7908L26.8316 22.7595L26.8045 22.7286L26.7769 22.698L26.7491 22.6678L26.7211 22.6378L26.6929 22.6084L26.6643 22.5793L26.6355 22.5504L26.6066 22.522L26.5774 22.494L26.5481 22.4663L26.5182 22.4389L26.4885 22.412L26.4584 22.3853L26.4282 22.3592L26.3976 22.3333L26.367 22.3079L26.3361 22.2828L26.3051 22.2581L26.2739 22.2337L26.2424 22.2097L26.2109 22.1862L26.1791 22.163L26.1471 22.1402L26.1151 22.1178L26.0829 22.0957L26.0506 22.0741L26.018 22.0528L25.9852 22.0319L25.9526 22.0114L25.9195 21.9913L25.8865 21.9716L25.8534 21.9523L25.8201 21.9334L25.7865 21.9148L25.7531 21.8966L25.7196 21.8788L25.6858 21.8614L25.6521 21.8445L25.618 21.8278L25.5842 21.8116L25.5501 21.7959L25.516 21.7804L25.4818 21.7653L25.4473 21.7506L25.4132 21.7364L25.3787 21.7226L25.3441 21.7091L25.3097 21.696L25.2752 21.6833L25.2406 21.671L25.206 21.6591L25.1713 21.6474L25.1368 21.6364L25.102 21.6255L25.0673 21.6151L25.0327 21.6052L24.9978 21.5955L24.9632 21.5863L24.9284 21.5775L24.8937 21.5689L24.8589 21.5609L24.8243 21.5531L24.7895 21.5458L24.7549 21.5388L24.7203 21.5322L24.6858 21.526L24.651 21.5201L24.6167 21.5147L24.5819 21.5096L24.5477 21.5049L24.5132 21.5004L24.4789 21.4964L24.4448 21.4928L24.4105 21.4896L24.3764 21.4866L24.3423 21.484L24.3083 21.4818L24.2743 21.4799L24.2404 21.4785L24.2069 21.4774L24.1731 21.4765L24.1396 21.4761L24.106 21.476L24.0727 21.4763L24.0394 21.4768L24.0063 21.4777L23.9732 21.4791L23.9404 21.4806L23.9074 21.4826L23.8749 21.4848L23.8423 21.4874L23.8099 21.4903L23.7777 21.4936L23.7453 21.4971L23.7135 21.501L23.6816 21.5052L23.6499 21.5097L23.6182 21.5146L23.5869 21.5197L23.5556 21.5251L23.5247 21.5309L23.4936 21.537L23.4629 21.5433L23.4323 21.5499L23.4019 21.5569Z" fill="#808080"/>
</svg>
