<svg width="167" height="34" viewBox="0 0 167 34" fill="none" xmlns="http://www.w3.org/2000/svg">
<path d="M48.3785 23.321C48.3785 24.1453 48.2092 24.7787 47.8708 25.2212C47.5412 25.6638 46.9902 25.885 46.218 25.885C45.4891 25.885 44.9729 25.6638 44.6691 25.2212C44.3741 24.7787 44.2266 24.1453 44.2266 23.321V9.56401C44.2266 8.7397 44.3741 8.1063 44.6691 7.66378C44.9729 7.22126 45.4891 7 46.218 7C46.9902 7 47.5412 7.22126 47.8708 7.66378C48.2092 8.1063 48.3785 8.7397 48.3785 9.56401V23.321Z" fill="#808080"/>
<path d="M49.6388 19.3254C49.6388 18.4056 49.7863 17.538 50.0814 16.7223C50.3851 15.898 50.8362 15.1779 51.435 14.5618C52.0424 13.9458 52.7972 13.4555 53.6996 13.0911C54.6107 12.7266 55.6779 12.5445 56.9013 12.5445C58.0727 12.5445 59.1096 12.7136 60.012 13.052C60.9144 13.3905 61.6736 13.8634 62.2896 14.4708C62.9056 15.0694 63.3742 15.7852 63.6953 16.6182C64.0163 17.4425 64.1768 18.3449 64.1768 19.3254C64.1768 20.2365 64.0249 21.0998 63.7213 21.9154C63.4176 22.7223 62.962 23.4339 62.3546 24.0499C61.7474 24.6572 60.9881 25.1431 60.0771 25.5076C59.1659 25.8634 58.1074 26.0412 56.9013 26.0412C55.7126 26.0412 54.6628 25.872 53.7516 25.5336C52.8492 25.1865 52.0901 24.7136 51.474 24.1149C50.8666 23.5076 50.4067 22.7961 50.0944 21.9805C49.7907 21.1562 49.6388 20.2711 49.6388 19.3254ZM53.973 19.3254C53.973 19.8981 54.0249 20.4447 54.1291 20.9653C54.2332 21.4772 54.3981 21.9284 54.6237 22.3189C54.8579 22.7093 55.1617 23.0217 55.5347 23.2559C55.9079 23.4815 56.3634 23.5943 56.9013 23.5943C57.3959 23.5943 57.8254 23.4903 58.1898 23.2819C58.563 23.0738 58.8666 22.783 59.1009 22.41C59.3438 22.0369 59.5261 21.59 59.6475 21.0694C59.769 20.5401 59.8297 19.9588 59.8297 19.3254C59.8297 18.7527 59.7733 18.2104 59.6606 17.6985C59.5564 17.1779 59.3873 16.7223 59.1529 16.3318C58.9187 15.9328 58.615 15.6204 58.2419 15.3948C57.8775 15.1606 57.4306 15.0434 56.9013 15.0434C56.372 15.0434 55.9209 15.1561 55.5477 15.3818C55.1747 15.6074 54.871 15.9154 54.6367 16.3059C54.4024 16.6963 54.2332 17.1518 54.1291 17.6725C54.0249 18.193 53.973 18.744 53.973 19.3254Z" fill="#808080"/>
<path d="M74.8602 23.3731C74.6259 23.8069 74.3395 24.1756 74.0011 24.4794C73.6715 24.7831 73.3027 25.0347 72.8949 25.2343C72.4958 25.4251 72.0663 25.5683 71.6064 25.6638C71.1551 25.7505 70.691 25.7939 70.2138 25.7939C69.4155 25.7939 68.6867 25.6508 68.0272 25.3644C67.3678 25.078 66.7995 24.6659 66.3223 24.128C65.8537 23.5814 65.4893 22.9132 65.229 22.1237C64.9686 21.334 64.8384 20.4316 64.8384 19.4165C64.8384 18.462 64.96 17.5683 65.203 16.7353C65.4459 15.9024 65.7973 15.1779 66.2572 14.5618C66.7257 13.9458 67.2984 13.4599 67.9752 13.1041C68.6519 12.7484 69.4242 12.5705 70.2919 12.5705C71.281 12.5705 72.1574 12.7614 72.9209 13.1431C73.6932 13.525 74.357 14.1497 74.9123 15.0173V14.679C74.9123 14.0543 75.0814 13.5857 75.4198 13.2733C75.7669 12.9523 76.2442 12.7917 76.8516 12.7917C77.216 12.7917 77.5239 12.8525 77.7756 12.974C78.0272 13.0868 78.2267 13.2603 78.3742 13.4946C78.5218 13.7202 78.6259 14.0022 78.6866 14.3406C78.7561 14.6702 78.7907 15.0477 78.7907 15.4729V24.1931C78.7907 25.2516 78.6563 26.1973 78.3873 27.0303C78.127 27.8633 77.7192 28.5662 77.1639 29.1388C76.6086 29.7115 75.8971 30.1453 75.0294 30.4404C74.1617 30.744 73.1292 30.8958 71.9318 30.8958C71.0902 30.8958 70.3439 30.8569 69.6931 30.7787C69.0511 30.7094 68.4958 30.6009 68.0272 30.4534C67.5587 30.2884 67.203 30.1063 66.96 29.9067C66.7257 29.7071 66.6086 29.4468 66.6086 29.1258C66.6086 28.9436 66.6346 28.7701 66.6866 28.6052C66.7387 28.4403 66.8168 28.2929 66.9209 28.1627C67.0337 28.0412 67.1769 27.9415 67.3505 27.8633C67.5326 27.794 67.7539 27.7592 68.0142 27.7592C68.2918 27.7592 68.5695 27.7765 68.8472 27.8113C69.1335 27.8459 69.4286 27.8807 69.7322 27.9154C70.0445 27.9588 70.3699 27.9978 70.7083 28.0325C71.0554 28.0672 71.4285 28.0846 71.8276 28.0846C72.3049 28.0846 72.73 28.0369 73.1032 27.9415C73.4762 27.8459 73.7929 27.6768 74.0532 27.4338C74.3136 27.1909 74.5131 26.8655 74.652 26.4577C74.7908 26.0585 74.8602 25.5466 74.8602 24.9219V23.3731ZM74.8602 19.3254C74.8602 18.6919 74.8124 18.115 74.717 17.5944C74.6303 17.0737 74.4784 16.6313 74.2615 16.2668C74.0446 15.8937 73.7539 15.6074 73.3895 15.4078C73.025 15.1996 72.5695 15.0955 72.0229 15.0955C71.4849 15.0955 71.0381 15.2039 70.6824 15.4208C70.3353 15.6377 70.0576 15.9371 69.8494 16.3188C69.6411 16.7007 69.4936 17.1475 69.4068 17.6595C69.3287 18.1714 69.2897 18.718 69.2897 19.2993C69.2897 20.6269 69.524 21.6248 69.9925 22.2928C70.461 22.961 71.1422 23.295 72.0359 23.295C72.4524 23.2864 72.8299 23.2082 73.1682 23.0607C73.5152 22.9045 73.8147 22.666 74.0662 22.3449C74.3179 22.0238 74.5131 21.616 74.652 21.1214C74.7908 20.6269 74.8602 20.0282 74.8602 19.3254Z" fill="#808080"/>
<path d="M79.9861 19.3254C79.9861 18.4056 80.1336 17.538 80.4286 16.7223C80.7323 15.898 81.1834 15.1779 81.7822 14.5618C82.3896 13.9458 83.1444 13.4555 84.0468 13.0911C84.9579 12.7266 86.0251 12.5445 87.2486 12.5445C88.4199 12.5445 89.4567 12.7136 90.3591 13.052C91.2615 13.3905 92.0207 13.8634 92.6368 14.4708C93.2529 15.0694 93.7214 15.7852 94.0424 16.6182C94.3635 17.4425 94.524 18.3449 94.524 19.3254C94.524 20.2365 94.3722 21.0998 94.0685 21.9154C93.7648 22.7223 93.3093 23.4339 92.7019 24.0499C92.0945 24.6572 91.3353 25.1431 90.4242 25.5076C89.5132 25.8634 88.4546 26.0412 87.2486 26.0412C86.0598 26.0412 85.0099 25.872 84.0988 25.5336C83.1965 25.1865 82.4372 24.7136 81.8212 24.1149C81.2139 23.5076 80.754 22.7961 80.4416 21.9805C80.1379 21.1562 79.9861 20.2711 79.9861 19.3254ZM84.3201 19.3254C84.3201 19.8981 84.3722 20.4447 84.4764 20.9653C84.5804 21.4772 84.7452 21.9284 84.9709 22.3189C85.2051 22.7093 85.5088 23.0217 85.882 23.2559C86.255 23.4815 86.7106 23.5943 87.2486 23.5943C87.7431 23.5943 88.1726 23.4903 88.537 23.2819C88.9101 23.0738 89.2138 22.783 89.4481 22.41C89.6911 22.0369 89.8732 21.59 89.9947 21.0694C90.1162 20.5401 90.177 19.9588 90.177 19.3254C90.177 18.7527 90.1206 18.2104 90.0077 17.6985C89.9037 17.1779 89.7344 16.7223 89.5002 16.3318C89.2659 15.9328 88.9622 15.6204 88.5891 15.3948C88.2247 15.1606 87.7778 15.0434 87.2486 15.0434C86.7193 15.0434 86.268 15.1561 85.895 15.3818C85.5219 15.6074 85.2181 15.9154 84.9839 16.3059C84.7497 16.6963 84.5804 17.1518 84.4764 17.6725C84.3722 18.193 84.3201 18.744 84.3201 19.3254Z" fill="#808080"/>
<path d="M100.105 8.15835C100.105 8.44469 100.04 8.70065 99.9102 8.92625C99.78 9.14317 99.6109 9.32533 99.4026 9.47294C99.1944 9.62043 98.9514 9.73316 98.6737 9.81123C98.4048 9.88065 98.1272 9.91541 97.8408 9.91541C97.5371 9.91541 97.2465 9.87632 96.9688 9.79824C96.6998 9.72016 96.4613 9.60743 96.253 9.45983C96.0448 9.30368 95.8798 9.11714 95.7583 8.90022C95.6369 8.6833 95.5762 8.43601 95.5762 8.15835C95.5762 7.90673 95.6326 7.6768 95.7453 7.46855C95.8668 7.25164 96.0273 7.06508 96.2269 6.9089C96.4265 6.75272 96.6652 6.63124 96.9428 6.54448C97.2205 6.4577 97.5241 6.41432 97.8539 6.41432C98.1402 6.41432 98.4178 6.45337 98.6868 6.53146C98.9645 6.60955 99.2074 6.72234 99.4156 6.86986C99.6239 7.01736 99.7888 7.19957 99.9102 7.41649C100.04 7.63341 100.105 7.8807 100.105 8.15835ZM99.9102 23.321C99.9102 24.1453 99.741 24.7787 99.4026 25.2212C99.0729 25.6638 98.5219 25.885 97.7497 25.885C97.0209 25.885 96.5046 25.6638 96.2009 25.2212C95.9059 24.7787 95.7583 24.1453 95.7583 23.321V15.3557C95.7583 14.5314 95.9059 13.898 96.2009 13.4555C96.5046 13.0131 97.0209 12.7917 97.7497 12.7917C98.5219 12.7917 99.0729 13.0131 99.4026 13.4555C99.741 13.898 99.9102 14.5314 99.9102 15.3557V23.321Z" fill="#808080"/>
<path d="M105.895 19.2993C105.895 19.8807 105.938 20.423 106.025 20.9263C106.121 21.4295 106.277 21.872 106.494 22.2538C106.719 22.6269 107.014 22.9219 107.379 23.1388C107.752 23.3558 108.212 23.4642 108.758 23.4642C109.262 23.4642 109.682 23.3601 110.021 23.1519C110.368 22.935 110.645 22.6399 110.854 22.2668C111.062 21.885 111.21 21.4382 111.296 20.9263C111.392 20.4143 111.44 19.859 111.44 19.2603C111.44 18.7831 111.405 18.2972 111.335 17.8026C111.266 17.2993 111.136 16.8438 110.945 16.436C110.754 16.0282 110.49 15.6941 110.151 15.4338C109.812 15.1736 109.37 15.0434 108.824 15.0434C108.277 15.0434 107.813 15.1301 107.431 15.3037C107.058 15.4772 106.754 15.7419 106.52 16.0976C106.294 16.4533 106.134 16.9003 106.038 17.4381C105.943 17.9675 105.895 18.5879 105.895 19.2993ZM105.882 15.3557C106.099 14.8959 106.377 14.4924 106.715 14.1453C107.053 13.7983 107.427 13.5076 107.834 13.2733C108.242 13.0391 108.667 12.8655 109.11 12.7527C109.561 12.6312 110.008 12.5705 110.45 12.5705C111.248 12.5705 111.969 12.7484 112.611 13.1041C113.253 13.4599 113.8 13.9458 114.251 14.5618C114.71 15.1692 115.062 15.8894 115.306 16.7223C115.548 17.5466 115.67 18.4317 115.67 19.3774C115.67 20.3579 115.539 21.2559 115.279 22.0716C115.028 22.8872 114.667 23.59 114.198 24.18C113.739 24.7614 113.183 25.2169 112.532 25.5466C111.89 25.8764 111.175 26.0412 110.386 26.0412C109.414 26.0412 108.546 25.8156 107.782 25.3644C107.019 24.9132 106.385 24.2798 105.882 23.4642V28.1497C105.882 28.9739 105.713 29.6074 105.374 30.0499C105.045 30.4923 104.494 30.7137 103.722 30.7137C102.993 30.7137 102.476 30.4923 102.173 30.0499C101.878 29.6074 101.73 28.9739 101.73 28.1497V15.3557C101.73 14.5314 101.878 13.898 102.173 13.4555C102.476 13.0131 102.993 12.7917 103.722 12.7917C104.494 12.7917 105.045 13.0131 105.374 13.4555C105.713 13.898 105.882 14.5314 105.882 15.3557Z" fill="#808080"/>
<path d="M120.249 16.2799C120.249 16.6182 120.397 16.8828 120.691 17.0737C120.986 17.256 121.394 17.4078 121.915 17.5293C122.409 17.642 122.917 17.7506 123.438 17.8546C123.959 17.9588 124.466 18.0803 124.96 18.2191C125.455 18.3492 125.919 18.5055 126.353 18.6876C126.786 18.8698 127.168 19.0997 127.498 19.3774C127.828 19.6464 128.088 19.9761 128.279 20.3665C128.47 20.7484 128.565 21.2083 128.565 21.7462C128.565 22.423 128.427 23.026 128.149 23.5553C127.871 24.0759 127.477 24.5184 126.965 24.8829C126.462 25.2473 125.859 25.5293 125.156 25.7289C124.453 25.9284 123.676 26.0325 122.826 26.0412C122.019 26.0412 121.242 25.9892 120.496 25.885C119.75 25.7896 119.086 25.6377 118.504 25.4294C117.932 25.2212 117.472 24.9653 117.125 24.6615C116.778 24.3492 116.605 23.9848 116.605 23.5684C116.605 23.2039 116.722 22.9219 116.956 22.7223C117.19 22.5228 117.489 22.423 117.854 22.423C117.993 22.423 118.158 22.449 118.349 22.501C118.54 22.5531 118.747 22.6182 118.973 22.6963C119.198 22.7744 119.437 22.8611 119.689 22.9566C119.949 23.0434 120.218 23.1214 120.496 23.1909C120.843 23.2864 121.199 23.3644 121.563 23.4252C121.936 23.4772 122.318 23.5033 122.709 23.5033C122.951 23.5033 123.19 23.4815 123.424 23.4382C123.659 23.3861 123.867 23.3124 124.05 23.217C124.241 23.1128 124.396 22.9826 124.518 22.8265C124.639 22.6703 124.713 22.4794 124.739 22.2538C124.765 22.2017 124.787 22.1496 124.804 22.0976C124.821 22.0456 124.83 21.9848 124.83 21.9154C124.83 21.6724 124.717 21.4555 124.492 21.2646C124.275 21.0738 123.966 20.9218 123.568 20.8091C122.899 20.653 122.261 20.5098 121.654 20.3796C121.048 20.2495 120.483 20.1106 119.962 19.9631C119.45 19.8157 118.982 19.6464 118.556 19.4555C118.14 19.2647 117.785 19.0303 117.489 18.7527C117.204 18.475 116.977 18.1409 116.813 17.7506C116.656 17.3601 116.578 16.8872 116.578 16.3318C116.578 15.7332 116.713 15.1996 116.982 14.731C117.259 14.2537 117.655 13.8547 118.167 13.5336C118.679 13.2125 119.298 12.9696 120.028 12.8048C120.757 12.6312 121.581 12.5445 122.5 12.5445C124.148 12.5445 125.402 12.7441 126.262 13.1431C127.129 13.5336 127.564 14.0455 127.564 14.679C127.564 15.0347 127.446 15.3081 127.212 15.4989C126.977 15.6811 126.695 15.7722 126.366 15.7722C126.192 15.7722 126.01 15.7419 125.819 15.6811C125.637 15.6117 125.416 15.538 125.156 15.4599C124.895 15.3731 124.583 15.2994 124.218 15.2386C123.863 15.1692 123.42 15.1345 122.891 15.1345C122.491 15.1345 122.127 15.1518 121.797 15.1866C121.476 15.2212 121.199 15.282 120.964 15.3687C120.739 15.4556 120.561 15.5726 120.431 15.7202C120.309 15.8677 120.249 16.0542 120.249 16.2799Z" fill="#808080"/>
<path d="M133.848 21.0563C133.848 21.4642 133.9 21.8199 134.004 22.1237C134.116 22.4273 134.268 22.6833 134.459 22.8915C134.651 23.0911 134.872 23.2429 135.123 23.347C135.384 23.4425 135.661 23.4903 135.956 23.4903C136.303 23.4903 136.637 23.4382 136.958 23.334C137.279 23.2299 137.561 23.0694 137.805 22.8524C138.056 22.6355 138.256 22.3622 138.403 22.0325C138.55 21.7028 138.624 21.3167 138.624 20.8742V15.3557C138.624 14.5314 138.772 13.898 139.066 13.4555C139.371 13.0131 139.887 12.7917 140.616 12.7917C141.388 12.7917 141.938 13.0131 142.268 13.4555C142.607 13.898 142.776 14.5314 142.776 15.3557V23.321C142.776 24.1453 142.607 24.7787 142.268 25.2212C141.938 25.6638 141.388 25.885 140.616 25.885C139.887 25.885 139.371 25.6638 139.066 25.2212C138.772 24.7787 138.624 24.1453 138.624 23.321C138.442 23.7202 138.203 24.0846 137.908 24.4143C137.621 24.7441 137.284 25.0304 136.893 25.2733C136.511 25.5076 136.087 25.6898 135.618 25.8199C135.158 25.9501 134.658 26.0152 134.121 26.0152C133.54 26.0152 132.98 25.9153 132.441 25.7159C131.913 25.5076 131.444 25.2039 131.037 24.8047C130.629 24.397 130.304 23.8937 130.06 23.295C129.817 22.6963 129.696 21.9978 129.696 21.1995V15.3557C129.696 14.5314 129.844 13.898 130.138 13.4555C130.442 13.0131 130.958 12.7917 131.687 12.7917C132.459 12.7917 133.01 13.0131 133.34 13.4555C133.679 13.898 133.848 14.5314 133.848 15.3557V21.0563Z" fill="#808080"/>
<path d="M144.661 15.3557C144.661 14.5314 144.808 13.898 145.104 13.4555C145.407 13.0131 145.923 12.7917 146.652 12.7917C147.425 12.7917 147.976 13.0131 148.306 13.4555C148.643 13.898 148.813 14.5314 148.813 15.3557C148.986 14.9392 149.221 14.5618 149.516 14.2234C149.819 13.8764 150.163 13.5814 150.544 13.3384C150.935 13.0955 151.355 12.9089 151.806 12.7787C152.257 12.6399 152.726 12.5705 153.212 12.5705C153.663 12.5705 154.105 12.6312 154.54 12.7527C154.982 12.8655 155.39 13.052 155.764 13.3124C156.145 13.5639 156.479 13.885 156.765 14.2755C157.052 14.6659 157.273 15.1345 157.43 15.6811C157.698 15.0998 158.015 14.6096 158.379 14.2104C158.743 13.8113 159.139 13.4902 159.563 13.2473C159.988 13.0043 160.432 12.8308 160.891 12.7266C161.36 12.6226 161.828 12.5705 162.296 12.5705C162.852 12.5705 163.381 12.6703 163.884 12.8698C164.396 13.0694 164.843 13.3731 165.225 13.781C165.616 14.18 165.924 14.6877 166.149 15.3037C166.383 15.911 166.5 16.6226 166.5 17.4381V23.321C166.5 24.1453 166.331 24.7787 165.992 25.2212C165.664 25.6638 165.112 25.885 164.34 25.885C163.611 25.885 163.095 25.6638 162.792 25.2212C162.496 24.7787 162.348 24.1453 162.348 23.321V17.6204C162.348 17.2299 162.296 16.8828 162.193 16.5792C162.089 16.2668 161.941 16.0065 161.75 15.7983C161.568 15.5814 161.351 15.4208 161.099 15.3167C160.848 15.2039 160.578 15.1475 160.293 15.1475C159.936 15.1475 159.599 15.2039 159.278 15.3167C158.957 15.4295 158.675 15.603 158.431 15.8373C158.197 16.0716 158.006 16.3709 157.858 16.7353C157.719 17.0997 157.651 17.538 157.651 18.0499V23.321C157.651 24.1453 157.481 24.7787 157.143 25.2212C156.813 25.6638 156.262 25.885 155.489 25.885C154.761 25.885 154.244 25.6638 153.941 25.2212C153.646 24.7787 153.498 24.1453 153.498 23.321V17.8676C153.498 16.974 153.311 16.2972 152.939 15.8373C152.574 15.3775 152.075 15.1475 151.442 15.1475C151.069 15.1475 150.721 15.2082 150.4 15.3297C150.079 15.4512 149.802 15.629 149.567 15.8634C149.333 16.0976 149.146 16.3883 149.008 16.7353C148.878 17.0824 148.813 17.4816 148.813 17.9327V23.321C148.813 24.1453 148.643 24.7787 148.306 25.2212C147.976 25.6638 147.425 25.885 146.652 25.885C145.923 25.885 145.407 25.6638 145.104 25.2212C144.808 24.7787 144.661 24.1453 144.661 23.321V15.3557Z" fill="#808080"/>
<path d="M17.1594 23.6638C13.4791 23.6638 10.4957 20.6803 10.4957 17C10.4957 13.3197 13.4791 10.3362 17.1594 10.3362C20.8397 10.3362 23.8232 13.3197 23.8232 17C23.8232 20.6803 20.8397 23.6638 17.1594 23.6638Z" fill="#808080"/>
<path d="M4.24973 19.2763C2.31863 19.6169 0.994962 21.4823 1.73625 23.2977C2.77118 25.8321 4.42227 28.0903 6.5628 29.8548C9.62359 32.3779 13.4841 33.7261 17.4502 33.6569C21.4162 33.5877 25.2275 32.1055 28.1984 29.4771C30.2759 27.639 31.8472 25.3246 32.7932 22.7556C33.4707 20.9154 32.0826 19.0973 30.1408 18.8244C28.1991 18.5515 26.4556 19.9649 25.4965 21.6753C24.9766 22.6023 24.3016 23.4434 23.4931 24.1588C21.7885 25.6669 19.6018 26.5172 17.3263 26.5569C15.0508 26.5966 12.8357 25.8232 11.0796 24.3755C10.2465 23.6888 9.54273 22.8718 8.99077 21.9634C7.97256 20.2876 6.18084 18.9358 4.24973 19.2763Z" fill="#808080"/>
<path d="M33.69 19.0819C33.7751 18.3998 33.8188 17.705 33.8188 17C33.8188 7.79925 26.3602 0.340576 17.1594 0.340576C7.95868 0.340576 0.5 7.79925 0.5 17C0.5 17.9048 0.572135 18.7928 0.710975 19.6585C1.47618 18.611 2.67046 17.8632 3.96045 17.6357C5.35616 17.3896 6.62465 17.7281 7.69717 18.3608C7.63381 17.9164 7.60102 17.462 7.60102 17C7.60102 11.7211 11.8805 7.4416 17.1594 7.4416C22.4383 7.4416 26.7178 11.7211 26.7178 17C26.7178 17.3481 26.6992 17.6918 26.663 18.0302C27.7128 17.3602 28.9689 16.9773 30.3727 17.1747C31.6694 17.357 32.8887 18.0622 33.69 19.0819Z" fill="#808080"/>
</svg>
