<svg width="167" height="36" viewBox="0 0 167 36" fill="none" xmlns="http://www.w3.org/2000/svg">
<path fill-rule="evenodd" clip-rule="evenodd" d="M18.1609 4.28288L20.5047 0.223633L27.1496 4.06068L24.8066 8.11904C24.3951 8.83099 25.0111 9.6967 25.8181 9.54116L30.3084 8.67455L31.7617 16.2091L27.2713 17.0748C20.0079 18.4756 14.4625 10.6895 18.1609 4.28288Z" fill="#808080"/>
<path fill-rule="evenodd" clip-rule="evenodd" d="M14.1008 31.7173L11.7569 35.7765L5.11121 31.9404L7.45503 27.8811C7.86656 27.1692 7.2506 26.3035 6.44267 26.459L1.95322 27.3247L0.5 19.7911L4.99033 18.9253C12.2538 17.5246 17.7983 25.3106 14.1008 31.7173Z" fill="#808080"/>
<path fill-rule="evenodd" clip-rule="evenodd" d="M14.3034 4.28288L11.9605 0.223633L5.31475 4.06068L7.65857 8.11904C8.06921 8.83099 7.45414 9.6967 6.64621 9.54116L2.15588 8.67455L0.704429 16.2091L5.19387 17.0748C12.4582 18.4756 18.0036 10.6895 14.3043 4.28288H14.3034Z" fill="#808080"/>
<path fill-rule="evenodd" clip-rule="evenodd" d="M17.9654 31.7173L20.3074 35.7765L26.9531 31.9404L24.6093 27.8811C24.1987 27.1692 24.8137 26.3035 25.6217 26.459L30.1111 27.3247L31.5643 19.7911L27.074 18.9253C19.8106 17.5246 14.2661 25.3106 17.9636 31.7173H17.9654Z" fill="#808080"/>
<path d="M145.479 27.0243V19.4693C145.479 18.4223 145.72 17.4828 146.202 16.6517C146.701 15.8038 147.407 15.139 148.322 14.6563C149.236 14.1746 150.325 13.9337 151.588 13.9337C152.178 13.928 152.765 14.0033 153.334 14.1577C153.866 14.291 154.348 14.4821 154.78 14.731C155.229 14.9639 155.611 15.2465 155.927 15.5789H155.977C156.316 15.2418 156.702 14.9561 157.124 14.731C157.587 14.4761 158.082 14.2833 158.596 14.1577C159.173 14.0044 159.769 13.9291 160.366 13.9337C161.629 13.9337 162.718 14.1737 163.633 14.6563C164.546 15.139 165.253 15.8029 165.752 16.6517C166.251 17.4828 166.5 18.4214 166.5 19.4693V27.0243H162.61V19.5937C162.61 19.1787 162.502 18.8045 162.286 18.472C162.088 18.1244 161.805 17.8326 161.463 17.6241C161.103 17.4049 160.688 17.2924 160.266 17.2997C159.817 17.2997 159.41 17.4081 159.045 17.6241C158.703 17.8323 158.419 18.1241 158.221 18.472C158.02 18.8111 157.916 19.1993 157.922 19.5937V27.0243H154.057V19.5937C154.057 19.1787 153.949 18.8045 153.733 18.472C153.53 18.1193 153.238 17.8267 152.885 17.6241C152.525 17.4049 152.109 17.2924 151.688 17.2997C151.239 17.2997 150.832 17.4081 150.467 17.6241C150.125 17.8323 149.841 18.1241 149.643 18.472C149.442 18.8112 149.339 19.1994 149.344 19.5937V27.0243H145.479ZM137.026 27.3238C135.713 27.3238 134.573 27.075 133.61 26.5754C132.663 26.0599 131.931 25.3702 131.416 24.5063C130.9 23.6254 130.642 22.6522 130.642 21.5883V14.2324H134.508V21.4887C134.508 21.9376 134.615 22.3535 134.831 22.7357C135.047 23.101 135.339 23.4006 135.704 23.6334C136.086 23.8494 136.519 23.9579 137.001 23.9579C137.467 23.9579 137.882 23.8494 138.248 23.6334C138.63 23.4006 138.93 23.101 139.146 22.7357C139.362 22.3535 139.47 21.9376 139.47 21.4887V14.2324H143.335V21.5883C143.335 22.6522 143.085 23.6254 142.586 24.5063C142.088 25.3702 141.365 26.0608 140.418 26.5754C139.486 27.0741 138.355 27.3238 137.026 27.3238ZM118.193 27.0243V23.9579H124.352C124.518 23.9579 124.668 23.9241 124.801 23.8574C124.933 23.7748 125.042 23.6663 125.124 23.5339C125.206 23.4029 125.249 23.2517 125.249 23.0975C125.249 22.9432 125.206 22.7921 125.124 22.6611C125.047 22.5329 124.935 22.4291 124.801 22.3615C124.666 22.2781 124.51 22.2349 124.352 22.2371H122.108C121.276 22.2371 120.519 22.1038 119.839 21.838C119.192 21.5701 118.637 21.1195 118.242 20.5412C117.86 19.943 117.669 19.1698 117.669 18.2223C117.669 17.4908 117.843 16.8259 118.193 16.2278C118.556 15.6314 119.061 15.1343 119.664 14.7808C120.292 14.416 121.007 14.2266 121.734 14.2324H127.892V17.3246H122.332C122.111 17.3201 121.897 17.4006 121.734 17.5494C121.661 17.6207 121.603 17.7061 121.564 17.8004C121.526 17.8947 121.507 17.9959 121.509 18.0978C121.509 18.3307 121.584 18.5298 121.734 18.696C121.897 18.8448 122.111 18.9253 122.332 18.9209H124.526C125.457 18.9209 126.255 19.0622 126.92 19.344C127.602 19.6106 128.125 20.0426 128.491 20.6417C128.873 21.2398 129.065 22.0122 129.065 22.9597C129.065 23.7081 128.873 24.3898 128.491 25.004C128.129 25.6162 127.613 26.1235 126.995 26.4759C126.379 26.8421 125.682 27.0243 124.9 27.0243H118.193ZM109.772 13.9337C110.853 13.9337 111.808 14.1079 112.639 14.4572C113.455 14.7685 114.189 15.2632 114.784 15.9033C115.39 16.5305 115.857 17.2782 116.155 18.0978C116.471 18.9289 116.629 19.8515 116.629 20.8656C116.629 22.1287 116.363 23.2512 115.831 24.2316C115.339 25.1712 114.597 25.9565 113.687 26.5008C112.772 27.0492 111.709 27.3238 110.495 27.3238C109.98 27.3238 109.489 27.2572 109.023 27.1247C108.582 26.995 108.162 26.8016 107.777 26.5505C107.414 26.3042 107.101 25.9911 106.855 25.6279H106.779V32.4363H102.915V20.8647C102.915 19.4515 103.197 18.2294 103.762 17.1992C104.31 16.1853 105.142 15.3531 106.156 14.8048C107.187 14.2235 108.392 13.9328 109.772 13.9328V13.9337ZM109.772 17.2748C109.174 17.2748 108.65 17.4241 108.201 17.7237C107.768 18.0063 107.436 18.4054 107.203 18.9209C106.971 19.4186 106.855 19.9848 106.855 20.6159C106.855 21.2478 106.971 21.8131 107.203 22.3118C107.436 22.8104 107.768 23.2095 108.201 23.509C108.65 23.7916 109.174 23.933 109.772 23.933C110.37 23.933 110.885 23.7908 111.317 23.509C111.752 23.2073 112.097 22.7936 112.316 22.3118C112.564 21.8131 112.689 21.2478 112.689 20.6159C112.689 19.9848 112.564 19.4195 112.316 18.9209C112.083 18.4054 111.75 18.0054 111.317 17.7237C110.885 17.4241 110.37 17.2748 109.772 17.2748ZM97.0412 27.0243V14.2324H100.932V27.0243H97.0412ZM98.9859 12.7862C98.3709 12.7862 97.8394 12.5623 97.3905 12.1134C96.9417 11.6646 96.7168 11.1321 96.7168 10.5171C96.7168 9.90202 96.9417 9.3705 97.3905 8.92165C97.8394 8.4559 98.3709 8.22303 98.9859 8.22303C99.601 8.22303 100.133 8.4559 100.582 8.92165C101.031 9.3705 101.255 9.90202 101.255 10.5171C101.255 11.1321 101.031 11.6637 100.582 12.1134C100.133 12.5623 99.601 12.7862 98.9859 12.7862ZM88.5867 27.3238C87.2739 27.3238 86.0936 27.0332 85.0457 26.451C84.0177 25.8875 83.1574 25.0616 82.5525 24.0574C81.9543 23.0433 81.6548 21.9047 81.6548 20.6408C81.6548 19.3609 81.9543 18.2223 82.5525 17.225C83.1574 16.2208 84.0177 15.3949 85.0457 14.8314C86.0936 14.2324 87.2739 13.9337 88.5867 13.9337C89.9004 13.9337 91.0719 14.2324 92.1029 14.8314C93.1273 15.391 93.9804 16.2183 94.5712 17.225C95.1862 18.2223 95.4938 19.3609 95.4938 20.6408C95.4938 21.9047 95.1862 23.0433 94.5712 24.0574C93.9804 25.0641 93.1273 25.8914 92.1029 26.451C91.0559 27.0332 89.8835 27.3238 88.5867 27.3238ZM88.5867 23.9579C89.2018 23.9579 89.7342 23.8076 90.1831 23.509C90.632 23.2098 90.9934 22.7966 91.2301 22.3118C91.4798 21.8131 91.6043 21.2478 91.6043 20.6159C91.6043 20.0008 91.4798 19.4444 91.2301 18.9449C90.9933 18.4604 90.6319 18.0475 90.1831 17.7485C89.7342 17.449 89.2018 17.2997 88.5867 17.2997C87.9717 17.2997 87.4313 17.449 86.9664 17.7485C86.5172 18.0478 86.1556 18.4609 85.9185 18.9458C85.6645 19.4657 85.5366 20.0382 85.5452 20.6168C85.5452 21.2478 85.6696 21.8131 85.9185 22.3118C86.1557 22.7966 86.5173 23.2097 86.9664 23.509C87.4313 23.8076 87.9717 23.9579 88.5867 23.9579ZM69.094 32.087V28.7699H75.4766C75.7264 28.7699 75.9343 28.6873 76.1005 28.5211C76.1816 28.4494 76.2459 28.3609 76.2889 28.2617C76.3319 28.1624 76.3526 28.055 76.3494 27.9469V25.1293H76.2748C75.959 25.4965 75.599 25.8231 75.2028 26.1017C74.8366 26.3683 74.4207 26.5674 73.9558 26.7008C73.4611 26.8398 72.9489 26.9068 72.435 26.8999C71.3045 26.8999 70.2903 26.6332 69.3926 26.1017C68.5118 25.5533 67.8132 24.7969 67.2977 23.8325C66.7999 22.869 66.5502 21.7713 66.5502 20.5412C66.5502 19.328 66.8079 18.2223 67.3234 17.225C67.8549 16.2278 68.6282 15.4296 69.6424 14.8314C70.6556 14.2324 71.8946 13.9337 73.3576 13.9337C74.754 13.9337 75.9592 14.2244 76.9734 14.8065C77.9918 15.3593 78.8244 16.2003 79.367 17.2241C79.9323 18.2552 80.2149 19.4693 80.2149 20.8656V28.346C80.2149 29.4925 79.8745 30.3991 79.1928 31.064C78.5279 31.7457 77.6053 32.0861 76.425 32.0861L69.094 32.087ZM73.3825 23.6583C73.9807 23.6583 74.4962 23.525 74.9291 23.2592C75.3562 22.9819 75.7004 22.5944 75.9255 22.1375C76.1619 21.6567 76.2815 21.1268 76.2748 20.591C76.2748 19.9928 76.1592 19.4444 75.9263 18.9458C75.6935 18.4472 75.361 18.0561 74.9282 17.7734C74.4962 17.4739 73.9807 17.3246 73.3816 17.3246C72.8004 17.3246 72.2848 17.4659 71.836 17.7485C71.404 18.0312 71.0716 18.4134 70.8387 18.8951C70.6067 19.3778 70.4903 19.9173 70.4903 20.5163C70.4903 21.0985 70.6059 21.63 70.8387 22.1127C71.0716 22.5775 71.404 22.9517 71.8369 23.2344C72.2848 23.517 72.8004 23.6583 73.3825 23.6583ZM58.6939 27.3238C57.3811 27.3238 56.2007 27.0332 55.1537 26.451C54.1253 25.8877 53.2647 25.0618 52.6596 24.0574C52.0615 23.0433 51.7619 21.9047 51.7619 20.6408C51.7619 19.3609 52.0615 18.2223 52.6596 17.225C53.2647 16.2207 54.1253 15.3947 55.1537 14.8314C56.2007 14.2324 57.3811 13.9337 58.6939 13.9337C60.0075 13.9337 61.179 14.2324 62.21 14.8314C63.2343 15.3911 64.0874 16.2184 64.6783 17.225C65.2934 18.2223 65.6009 19.3609 65.6009 20.6408C65.6009 21.9047 65.2934 23.0433 64.6783 24.0574C64.0874 25.064 63.2343 25.8913 62.21 26.451C61.163 27.0332 59.9906 27.3238 58.6939 27.3238ZM58.6939 23.9579C59.3089 23.9579 59.8404 23.8076 60.2902 23.509C60.739 23.2096 61.1003 22.7964 61.3372 22.3118C61.5861 21.8131 61.7105 21.2478 61.7105 20.6159C61.7105 20.0008 61.5861 19.4444 61.3372 18.9449C61.1002 18.4605 60.7389 18.0477 60.2902 17.7485C59.8413 17.449 59.3089 17.2997 58.6939 17.2997C58.0788 17.2997 57.5384 17.449 57.0735 17.7485C56.6244 18.0478 56.2627 18.4609 56.0256 18.9458C55.7717 19.4657 55.6438 20.0382 55.6523 20.6168C55.6523 21.2478 55.7767 21.8131 56.0256 22.3118C56.2628 22.7966 56.6244 23.2097 57.0735 23.509C57.5384 23.8076 58.0788 23.9579 58.6939 23.9579ZM46.3161 27.0243C45.2353 27.0243 44.2878 26.7843 43.4737 26.3017C42.6818 25.8425 42.0275 25.1796 41.5787 24.3818C41.1298 23.5837 40.905 22.7019 40.905 21.7385V9.5696H45.094V22.0371C45.094 22.4371 45.2362 22.7855 45.518 23.085C45.8006 23.3837 46.149 23.5339 46.565 23.5339H51.178V27.0243H46.3161Z" fill="#808080"/>
</svg>
