<svg width="167" height="32" viewBox="0 0 167 32" fill="none" xmlns="http://www.w3.org/2000/svg">
<path d="M15.5907 31.091C23.9254 31.091 30.6816 24.3348 30.6816 16.0001V5.43645C30.6816 4.23574 30.2046 3.08422 29.3556 2.23519C28.5065 1.38616 27.355 0.90918 26.1543 0.90918H16.3452V7.52956C16.3452 9.04016 16.4373 10.6051 17.2295 11.8908C17.7967 12.8123 18.5555 13.601 19.4543 14.2034C20.3531 14.8058 21.371 15.2078 22.4389 15.3821L22.7279 15.4289C22.847 15.4696 22.9505 15.5466 23.0237 15.649C23.0969 15.7514 23.1363 15.8742 23.1363 16.0001C23.1363 16.126 23.0969 16.2488 23.0237 16.3512C22.9505 16.4536 22.847 16.5306 22.7279 16.5713L22.4389 16.6181C20.8786 16.8729 19.4378 17.6115 18.3199 18.7294C17.202 19.8473 16.4635 21.2881 16.2086 22.8483L16.1618 23.1373C16.1211 23.2565 16.0442 23.3599 15.9417 23.4331C15.8393 23.5064 15.7166 23.5457 15.5907 23.5457C15.4647 23.5457 15.342 23.5064 15.2396 23.4331C15.1371 23.3599 15.0602 23.2565 15.0195 23.1373L14.9727 22.8483C14.7983 21.7805 14.3963 20.7626 13.7939 19.8638C13.1915 18.9649 12.4028 18.2062 11.4814 17.639C10.1957 16.8467 8.63073 16.7546 7.12013 16.7546H0.517856C0.912483 24.7385 7.50947 31.091 15.5907 31.091Z" fill="#808080"/>
<path d="M0.5 15.2455H7.12038C8.63098 15.2455 10.1959 15.1535 11.4817 14.3612C12.4867 13.742 13.3328 12.8959 13.952 11.8908C14.7443 10.6051 14.8364 9.04016 14.8364 7.52956V0.90918H5.02727C3.82657 0.90918 2.67504 1.38616 1.82601 2.23519C0.976979 3.08422 0.5 4.23574 0.5 5.43645V15.2455ZM35.5524 2.41827C35.5524 2.81851 35.3934 3.20235 35.1104 3.48536C34.8274 3.76837 34.4436 3.92736 34.0433 3.92736C33.6431 3.92736 33.2592 3.76837 32.9762 3.48536C32.6932 3.20235 32.5342 2.81851 32.5342 2.41827C32.5342 2.01803 32.6932 1.63419 32.9762 1.35118C33.2592 1.06817 33.6431 0.90918 34.0433 0.90918C34.4436 0.90918 34.8274 1.06817 35.1104 1.35118C35.3934 1.63419 35.5524 2.01803 35.5524 2.41827ZM160.246 10.0422C164.464 10.0422 166.5 12.9887 166.5 16.4015V22.8114H162.085V17.1621C162.085 15.6153 161.521 14.3386 159.902 14.3386C158.284 14.3386 157.744 15.6153 157.744 17.1621V22.8106H153.329V17.1621C153.329 15.6153 152.79 14.3386 151.171 14.3386C149.552 14.3386 148.988 15.6153 148.988 17.1621V22.8106H144.574V16.4008C144.574 12.9879 146.609 10.0414 150.827 10.0414C153.133 10.0414 154.801 10.9499 155.561 12.4477C156.37 10.9499 158.137 10.0407 160.246 10.0407V10.0422ZM136.64 18.8825C138.063 18.8825 138.676 17.5809 138.676 16.0333V10.5327H143.09V16.5735C143.09 20.1833 140.981 23.1796 136.64 23.1796C132.299 23.1796 130.19 20.184 130.19 16.5735V10.5327H134.605V16.0333C134.605 17.5801 135.217 18.8825 136.64 18.8825ZM123.698 23.2037C120.927 23.2037 119.136 22.2462 118.082 20.3802L121.27 18.5874C121.712 19.3729 122.373 19.766 123.477 19.766C124.385 19.766 124.802 19.4469 124.802 19.0537C124.802 17.556 118.327 19.0786 118.327 14.3152C118.327 12.0063 120.289 10.1403 123.624 10.1403C126.543 10.1403 128.137 11.5641 128.849 12.9397L125.66 14.7566C125.391 14.0202 124.556 13.578 123.723 13.578C123.085 13.578 122.742 13.8481 122.742 14.2163C122.742 15.739 129.216 14.3393 129.216 18.9556C129.216 21.5339 126.69 23.2037 123.698 23.2037ZM108.274 28.4591H103.859V16.6475C103.859 12.8899 106.68 10.1644 110.604 10.1644C114.43 10.1644 117.349 13.0868 117.349 16.6475C117.349 20.5764 114.749 23.1796 110.849 23.1796C109.942 23.1796 109.035 22.9095 108.274 22.4914V28.4591ZM110.604 19.0296C112.002 19.0296 112.934 17.9491 112.934 16.6716C112.934 15.3708 112.002 14.3144 110.604 14.3144C109.206 14.3144 108.274 15.3708 108.274 16.6724C108.274 17.9491 109.206 19.0296 110.604 19.0296ZM99.4368 9.23182C97.9895 9.23182 96.7883 8.02832 96.7883 6.57959C96.7883 5.13086 97.9895 3.92736 99.4368 3.92736C100.884 3.92736 102.086 5.13086 102.086 6.57959C102.086 8.02832 100.884 9.23182 99.4368 9.23182ZM97.2297 10.5327H101.645V22.8114H97.2297V10.5327ZM88.7592 23.1796C84.9329 23.1796 82.0143 20.2331 82.0143 16.6475C82.0143 13.0868 84.9329 10.1403 88.7592 10.1403C92.5855 10.1403 95.5041 13.0868 95.5041 16.6475C95.5041 20.2331 92.5855 23.1796 88.7592 23.1796ZM88.7592 19.0296C90.1574 19.0296 91.0892 17.9491 91.0892 16.6716C91.0892 15.3708 90.1574 14.2903 88.7592 14.2903C87.361 14.2903 86.4292 15.3708 86.4292 16.6716C86.4292 17.9491 87.361 19.0296 88.7592 19.0296ZM73.6781 28.8274C70.6373 28.8274 68.4295 27.4767 67.3014 25.0697L70.9557 23.1056C71.348 23.9409 72.0837 24.8004 73.6041 24.8004C75.1992 24.8004 76.2533 23.793 76.3763 22.0251C75.7878 22.5412 74.8552 22.9336 73.4578 22.9336C70.048 22.9336 67.3007 20.3063 67.3007 16.6226C67.3007 13.0626 70.22 10.1644 74.0463 10.1644C77.9707 10.1644 80.7912 12.8906 80.7912 16.6475V21.5098C80.7912 25.9299 77.7247 28.8274 73.6781 28.8274ZM73.9724 18.7844C75.2966 18.7844 76.3024 17.8751 76.3024 16.5245C76.3024 15.1988 75.2973 14.3144 73.9724 14.3144C72.6723 14.3144 71.6423 15.1988 71.6423 16.5253C71.6423 17.8759 72.6723 18.7844 73.9724 18.7844ZM59.8126 23.1796C55.9863 23.1796 53.0669 20.2331 53.0669 16.6475C53.0669 13.0868 55.9863 10.1403 59.8126 10.1403C63.6381 10.1403 66.5574 13.0868 66.5574 16.6475C66.5574 20.2331 63.6389 23.1796 59.8126 23.1796ZM59.8126 19.0296C61.2107 19.0296 62.1426 17.9491 62.1426 16.6716C62.1426 15.3708 61.2107 14.2903 59.8126 14.2903C58.4144 14.2903 57.4825 15.3708 57.4825 16.6716C57.4825 17.9491 58.4144 19.0296 59.8126 19.0296ZM45.028 6.23627V18.6365H52.3373V22.8114H44.4145C41.619 22.8114 40.4909 21.3377 40.4909 19.0047V6.23627H45.028Z" fill="#808080"/>
</svg>
