<svg width="49" height="49" viewBox="0 0 49 49" fill="none" xmlns="http://www.w3.org/2000/svg">
<g clip-path="url(#clip0_590_843)">
<path d="M29.9375 24.5C29.9375 25.7574 29.8695 26.9695 29.7506 28.125H19.2494C19.1248 26.9695 19.0625 25.7574 19.0625 24.5C19.0625 23.2426 19.1305 22.0305 19.2494 20.875H29.7506C29.8752 22.0305 29.9375 23.2426 29.9375 24.5ZM31.5687 20.875H38.5412C38.8414 22.0361 39 23.2482 39 24.5C39 25.7518 38.8414 26.9639 38.5412 28.125H31.5687C31.6877 26.9582 31.75 25.7461 31.75 24.5C31.75 23.2539 31.6877 22.0418 31.5687 20.875ZM37.9465 19.0625H31.3365C30.7701 15.4432 29.6486 12.4129 28.2043 10.4758C32.6393 11.6482 36.2473 14.8654 37.9408 19.0625H37.9465ZM29.5014 19.0625H19.4986C19.8441 17.0008 20.3766 15.177 21.0279 13.6986C21.6227 12.3619 22.2854 11.3934 22.9254 10.7816C23.5598 10.1812 24.0865 10 24.5 10C24.9135 10 25.4402 10.1812 26.0746 10.7816C26.7146 11.3934 27.3773 12.3619 27.9721 13.6986C28.6291 15.1713 29.1559 16.9951 29.5014 19.0625ZM17.6635 19.0625H11.0535C12.7527 14.8654 16.3551 11.6482 20.7957 10.4758C19.3514 12.4129 18.2299 15.4432 17.6635 19.0625ZM10.4588 20.875H17.4312C17.3123 22.0418 17.25 23.2539 17.25 24.5C17.25 25.7461 17.3123 26.9582 17.4312 28.125H10.4588C10.1586 26.9639 10 25.7518 10 24.5C10 23.2482 10.1586 22.0361 10.4588 20.875ZM21.0279 35.2957C20.3709 33.823 19.8441 31.9992 19.4986 29.9375H29.5014C29.1559 31.9992 28.6234 33.823 27.9721 35.2957C27.3773 36.6324 26.7146 37.601 26.0746 38.2127C25.4402 38.8188 24.9135 39 24.5 39C24.0865 39 23.5598 38.8188 22.9254 38.2184C22.2854 37.6066 21.6227 36.6381 21.0279 35.3014V35.2957ZM17.6635 29.9375C18.2299 33.5568 19.3514 36.5871 20.7957 38.5242C16.3551 37.3518 12.7527 34.1346 11.0535 29.9375H17.6635ZM37.9465 29.9375C36.2473 34.1346 32.6449 37.3518 28.21 38.5242C29.6543 36.5871 30.7701 33.5568 31.3422 29.9375H37.9465Z" fill="#686666"/>
</g>
<defs>
<clipPath id="clip0_590_843">
<path d="M10 10H39V39H10V10Z" fill="white"/>
</clipPath>
</defs>
</svg>
